<svg width="160" height="157" viewBox="0 0 160 157" fill="none" xmlns="http://www.w3.org/2000/svg">
<path d="M43.0546 39.3219L26.1434 34.2133C25.4871 34.015 24.7944 34.3864 24.5961 35.0427L21.5882 44.9998C21.39 45.6561 21.7613 46.3489 22.4176 46.5471L39.3288 51.6557C39.9851 51.854 40.6779 51.4827 40.8761 50.8263L43.884 40.8692C44.0823 40.2129 43.7109 39.5201 43.0546 39.3219Z" stroke="#263238" stroke-width="1.00285" stroke-miterlimit="10"/>
<path d="M23.9995 36.5804L43.2235 42.4065" stroke="#263238" stroke-miterlimit="10"/>
<path d="M23.414 38.5095L42.6416 44.3356" stroke="#263238" stroke-miterlimit="10"/>
<path d="M36.7908 47.9434C36.7419 48.1057 36.7264 48.2763 36.7452 48.4448C36.7639 48.6133 36.8167 48.7762 36.9001 48.9238C36.6119 49.0661 36.2805 49.0938 35.9726 49.0014C35.7766 48.9421 35.5981 48.8357 35.4527 48.6915C35.3074 48.5472 35.1996 48.3695 35.1389 48.1739C35.0783 47.9783 35.0665 47.7708 35.1046 47.5696C35.1428 47.3684 35.2297 47.1796 35.3578 47.0199C35.4859 46.8601 35.6512 46.7341 35.8393 46.6531C36.0273 46.5721 36.2324 46.5384 36.4365 46.5551C36.6406 46.5717 36.8376 46.6382 37.01 46.7487C37.1824 46.8591 37.3251 47.0102 37.4256 47.1886C37.2748 47.2657 37.141 47.3722 37.0319 47.5018C36.9229 47.6315 36.8409 47.7816 36.7908 47.9434Z" stroke="#263238" stroke-miterlimit="10"/>
<path d="M39.1854 48.6699C39.1133 48.9068 38.9725 49.117 38.7808 49.2738C38.5892 49.4307 38.3554 49.5272 38.1089 49.5512C37.8624 49.5751 37.6144 49.5255 37.3961 49.4084C37.1779 49.2914 36.9993 49.1123 36.8828 48.8937C36.7664 48.6752 36.7174 48.427 36.742 48.1806C36.7666 47.9342 36.8638 47.7006 37.0212 47.5094C37.1786 47.3182 37.3891 47.178 37.6262 47.1065C37.8633 47.0349 38.1163 47.0353 38.3531 47.1076C38.6706 47.2045 38.9367 47.4235 39.0927 47.7164C39.2488 48.0094 39.2822 48.3524 39.1854 48.6699Z" stroke="#263238" stroke-miterlimit="10"/>
<path d="M157.998 63.3572L144.015 59.1195C143.361 58.9212 142.67 59.2909 142.471 59.9452L140.02 68.0319C139.822 68.6862 140.192 69.3773 140.846 69.5756L154.829 73.8133C155.483 74.0116 156.175 73.6419 156.373 72.9877L158.824 64.9009C159.022 64.2466 158.652 63.5555 157.998 63.3572Z" stroke="#263238" stroke-miterlimit="10"/>
<path d="M142.094 61.1896L158.448 66.1446" stroke="#263238" stroke-miterlimit="10"/>
<path d="M141.597 62.8331L157.947 67.7881" stroke="#263238" stroke-miterlimit="10"/>
<path d="M152.974 70.8457C152.932 70.9834 152.918 71.1282 152.934 71.2713C152.95 71.4144 152.995 71.5528 153.066 71.678C152.911 71.7531 152.741 71.7895 152.57 71.7841C152.398 71.7786 152.23 71.7315 152.081 71.6468C151.932 71.562 151.805 71.4423 151.712 71.2977C151.62 71.1532 151.564 70.9883 151.549 70.8173C151.534 70.6462 151.561 70.4741 151.628 70.3159C151.695 70.1577 151.799 70.0181 151.931 69.9091C152.064 69.8001 152.221 69.725 152.389 69.6904C152.558 69.6557 152.732 69.6625 152.897 69.7101C153.158 69.7888 153.38 69.9657 153.514 70.2038C153.385 70.2684 153.27 70.3587 153.178 70.469C153.085 70.5794 153.016 70.7076 152.974 70.8457Z" stroke="#263238" stroke-miterlimit="10"/>
<path d="M155.009 71.4734C154.947 71.6726 154.827 71.8489 154.664 71.9801C154.502 72.1113 154.305 72.1915 154.097 72.2107C153.889 72.2299 153.68 72.1872 153.496 72.088C153.313 71.9887 153.163 71.8374 153.065 71.653C152.967 71.4686 152.926 71.2594 152.947 71.0518C152.967 70.8441 153.049 70.6472 153.182 70.4859C153.314 70.3245 153.491 70.206 153.691 70.1451C153.891 70.0843 154.104 70.0839 154.304 70.1439C154.438 70.1841 154.563 70.2506 154.671 70.3395C154.779 70.4283 154.868 70.5377 154.934 70.6614C155 70.785 155.04 70.9205 155.053 71.0599C155.066 71.1993 155.051 71.3399 155.009 71.4734Z" stroke="#263238" stroke-miterlimit="10"/>
<path d="M135.619 24.7216L115.206 34.0675L120.068 44.6878L140.481 35.3419L135.619 24.7216Z" stroke="#263238" stroke-miterlimit="10"/>
<path d="M138.726 33.8154L135.637 27.0689C135.348 27.2007 135.019 27.2127 134.722 27.1023C134.424 26.9919 134.183 26.7681 134.05 26.4799L117.549 34.0341C117.68 34.3227 117.692 34.6518 117.582 34.9493C117.472 35.2467 117.248 35.4883 116.96 35.6211L120.049 42.3677C120.192 42.3021 120.347 42.2653 120.504 42.2596C120.661 42.2539 120.818 42.2793 120.966 42.3343C121.113 42.3894 121.248 42.473 121.363 42.5804C121.478 42.6878 121.571 42.8168 121.636 42.9602L138.134 35.4025C138.068 35.2594 138.032 35.1048 138.026 34.9475C138.02 34.7902 138.045 34.6334 138.101 34.4859C138.156 34.3385 138.239 34.2033 138.347 34.0883C138.454 33.9732 138.583 33.8805 138.726 33.8154Z" stroke="#263238" stroke-miterlimit="10"/>
<path d="M129.713 37.1408C131.057 36.1085 131.309 34.1823 130.277 32.8385C129.245 31.4947 127.318 31.2421 125.974 32.2744C124.631 33.3067 124.378 35.2329 125.41 36.5767C126.443 37.9205 128.369 38.1731 129.713 37.1408Z" stroke="#263238" stroke-miterlimit="10"/>
<path d="M128.679 36.1925L128.908 36.6932L128.689 36.792L128.464 36.2983C128.077 36.4664 127.644 36.4938 127.24 36.3758V36.069C127.597 36.1772 127.981 36.1585 128.326 36.0161L127.808 34.8735C127.272 34.9757 126.718 35.0533 126.453 34.475C126.263 34.0588 126.397 33.558 127.039 33.2018L126.81 32.6975L127.028 32.5988L127.268 33.1101C127.585 32.9725 127.935 32.9261 128.277 32.9761V33.2829C127.975 33.2394 127.668 33.2747 127.384 33.3852L127.913 34.542C128.46 34.4326 129.042 34.3339 129.324 34.9193C129.501 35.3249 129.349 35.8363 128.679 36.1925ZM127.67 34.5666L127.169 33.4628C126.736 33.7061 126.64 34.0306 126.767 34.3057C126.915 34.6513 127.268 34.6372 127.667 34.5666H127.67ZM129 35.0639C128.845 34.7112 128.471 34.7465 128.055 34.8276L128.552 35.9174C129.031 35.6635 129.123 35.3425 128.996 35.0639H129Z" fill="#263238"/>
<path d="M22.964 73.0999L7.26669 74.5127L8.00148 82.677L23.6988 81.2642L22.964 73.0999Z" stroke="#263238" stroke-width="1.00404" stroke-miterlimit="10"/>
<path d="M22.4372 79.6131L21.9928 74.4465C21.7717 74.465 21.5523 74.3953 21.3824 74.2526C21.2126 74.1099 21.1062 73.9057 21.0864 73.6847L8.44676 74.778C8.46441 74.9988 8.39438 75.2178 8.25181 75.3874C8.10924 75.557 7.90562 75.6637 7.685 75.6843L8.12936 80.8509C8.23893 80.8413 8.34933 80.8533 8.45423 80.8864C8.55913 80.9194 8.65647 80.9729 8.74067 81.0437C8.82487 81.1144 8.89428 81.2011 8.94491 81.2988C8.99554 81.3964 9.0264 81.5031 9.03572 81.6127L21.6754 80.5194C21.6577 80.2985 21.7278 80.0796 21.8703 79.91C22.0129 79.7403 22.2165 79.6337 22.4372 79.6131Z" stroke="#263238" stroke-miterlimit="10"/>
<path d="M17.2 77.4653C17.2368 77.8886 17.1472 78.3132 16.9427 78.6856C16.7381 79.0579 16.4277 79.3613 16.0507 79.5572C15.6737 79.7531 15.247 79.8327 14.8247 79.7861C14.4025 79.7395 14.0035 79.5687 13.6783 79.2954C13.3531 79.022 13.1162 78.6583 12.9978 78.2503C12.8793 77.8423 12.8845 77.4083 13.0127 77.0032C13.1409 76.5982 13.3864 76.2403 13.718 75.9747C14.0497 75.7092 14.4526 75.548 14.8759 75.5115C15.1569 75.4868 15.4399 75.5178 15.7089 75.6027C15.9779 75.6876 16.2274 75.8247 16.4433 76.0062C16.6592 76.1877 16.8372 76.41 16.967 76.6604C17.0969 76.9108 17.176 77.1843 17.2 77.4653Z" stroke="#263238" stroke-miterlimit="10"/>
<path d="M15.2603 78.8267L15.2921 79.2111H15.1263L15.091 78.8302C14.798 78.8497 14.5073 78.7661 14.2693 78.5939L14.3469 78.3964C14.5574 78.5494 14.8135 78.6265 15.0734 78.6151L14.9993 77.7369C14.622 77.6805 14.2376 77.5994 14.2023 77.1585C14.1741 76.8376 14.3787 76.5378 14.8865 76.4532L14.8548 76.0688H15.0205L15.0523 76.4461C15.2969 76.4305 15.541 76.483 15.7576 76.5978L15.6906 76.7988C15.5024 76.701 15.2925 76.6525 15.0805 76.6577L15.1545 77.5429C15.5389 77.5994 15.948 77.6734 15.9868 78.1213C16.008 78.4493 15.7858 78.7491 15.2603 78.8267ZM14.9782 77.5183L14.9041 76.6824C14.5515 76.7424 14.4245 76.9328 14.4421 77.1444C14.4598 77.356 14.6961 77.4724 14.9782 77.5183ZM15.7364 78.1601C15.7117 77.8956 15.4613 77.8074 15.1686 77.7792L15.2392 78.6151C15.6059 78.5551 15.7541 78.3717 15.7364 78.1601Z" fill="#263238"/>
<path d="M149.955 29.4812C151.65 29.4812 153.024 28.1075 153.024 26.413C153.024 24.7184 151.65 23.3447 149.955 23.3447C148.261 23.3447 146.887 24.7184 146.887 26.413C146.887 28.1075 148.261 29.4812 149.955 29.4812Z" stroke="#263238" stroke-miterlimit="10"/>
<path d="M150.093 28.1163V28.6665H149.839V28.1198C149.418 28.1115 149.013 27.9583 148.693 27.6861L148.83 27.411C149.111 27.6572 149.466 27.8014 149.839 27.8201V26.561C149.31 26.4306 148.781 26.2683 148.781 25.6335C148.781 25.1751 149.112 24.7765 149.839 24.7201V24.1594H150.079V24.706C150.425 24.7133 150.762 24.8172 151.052 25.0058L150.932 25.2879C150.677 25.123 150.382 25.027 150.079 25.0093V26.2789C150.618 26.4094 151.19 26.561 151.19 27.2064C151.204 27.6684 150.855 28.074 150.093 28.1163ZM149.853 26.2154V25.0199C149.359 25.0622 149.148 25.3161 149.148 25.6194C149.134 25.9827 149.458 26.1167 149.839 26.2154H149.853ZM150.855 27.2241C150.855 26.8467 150.502 26.7162 150.093 26.6139V27.8201C150.618 27.7742 150.855 27.5309 150.855 27.2241Z" fill="#263238"/>
<path d="M129.747 67.4606C131.396 67.0719 132.418 65.4198 132.029 63.7704C131.641 62.1211 129.989 61.0991 128.339 61.4878C126.69 61.8764 125.668 63.5286 126.057 65.1779C126.445 66.8273 128.097 67.8493 129.747 67.4606Z" stroke="#263238" stroke-miterlimit="10"/>
<path d="M128.27 65.993L127.984 66.462L127.779 66.3351L128.065 65.8695C127.71 65.6439 127.445 65.3006 127.317 64.8997L127.578 64.7375C127.689 65.0925 127.916 65.3996 128.224 65.6086L128.887 64.5329C128.502 64.1485 128.132 63.7288 128.464 63.1893C128.703 62.7978 129.194 62.632 129.85 62.9671L130.139 62.4945L130.343 62.6215L130.058 63.087C130.347 63.2754 130.58 63.5387 130.731 63.8488L130.481 64.0286C130.348 63.755 130.148 63.5196 129.899 63.3444L129.232 64.4271C129.627 64.8221 130.033 65.2489 129.694 65.799C129.451 66.194 128.943 66.3527 128.27 65.993ZM129.063 64.2296L129.687 63.2104C129.247 62.9882 128.926 63.087 128.767 63.3444C128.576 63.6724 128.778 63.9581 129.063 64.2473V64.2296ZM129.388 65.6121C129.585 65.2912 129.356 64.9985 129.056 64.6952L128.428 65.7179C128.897 65.9789 129.225 65.9083 129.384 65.6297L129.388 65.6121Z" fill="#263238"/>
<path d="M85.0113 5.24926C85.2633 5.80125 85.346 6.41557 85.2488 7.01454C85.1517 7.61351 84.8792 8.17024 84.4657 8.61432C84.0522 9.05841 83.5163 9.36992 82.9258 9.50946C82.3352 9.64901 81.7166 9.61031 81.148 9.39828C80.5795 9.18625 80.0866 8.8104 79.7316 8.31825C79.3767 7.8261 79.1756 7.23976 79.1539 6.63335C79.1322 6.02695 79.2908 5.42772 79.6096 4.91142C79.9284 4.39513 80.3931 3.98496 80.945 3.73278C81.3115 3.56481 81.7075 3.4708 82.1104 3.45613C82.5133 3.44146 82.9151 3.50642 83.2928 3.64729C83.6705 3.78816 84.0168 4.00217 84.3117 4.27707C84.6065 4.55196 84.8443 4.88233 85.0113 5.24926Z" stroke="#263238" stroke-miterlimit="10"/>
<path d="M83.054 8.01062L83.2832 8.51141L83.0646 8.61368L82.8318 8.11642C82.4455 8.28453 82.0125 8.31198 81.608 8.194V7.88718C81.964 7.99476 82.346 7.97733 82.6907 7.83781L82.1688 6.68811C81.6327 6.79038 81.079 6.86444 80.8145 6.28959C80.6241 5.86991 80.7581 5.37265 81.4035 5.01646L81.1742 4.51214L81.3894 4.41339L81.6186 4.91065C81.9358 4.77303 82.2851 4.72662 82.6272 4.77664V5.08346C82.326 5.04077 82.0188 5.07598 81.735 5.18574L82.264 6.34249C82.8106 6.23316 83.3925 6.13794 83.6747 6.71985C83.8898 7.14305 83.7276 7.65442 83.054 8.01062ZM82.0453 6.38481L81.5481 5.29506C81.1143 5.53841 81.0191 5.86286 81.146 6.13442C81.2977 6.46592 81.6468 6.45535 82.0453 6.38481ZM83.3749 6.88208C83.2162 6.52941 82.8459 6.5682 82.4297 6.64579L82.927 7.73553C83.389 7.48161 83.5019 7.16421 83.3749 6.88208Z" fill="#263238"/>
<path d="M74.678 129.505C75.0566 130.334 75.1809 131.257 75.035 132.157C74.8891 133.057 74.4797 133.894 73.8584 134.561C73.2372 135.228 72.4321 135.696 71.5449 135.905C70.6577 136.115 69.7283 136.057 68.8742 135.738C68.0201 135.42 67.2796 134.855 66.7463 134.116C66.2131 133.376 65.9111 132.495 65.8786 131.584C65.846 130.673 66.0843 129.773 66.5633 128.998C67.0423 128.222 67.7406 127.606 68.5698 127.227C69.1204 126.975 69.7153 126.835 70.3203 126.813C70.9253 126.792 71.5286 126.889 72.0958 127.101C72.663 127.312 73.183 127.634 73.6261 128.046C74.0691 128.459 74.4266 128.955 74.678 129.505Z" stroke="#263238" stroke-miterlimit="10"/>
<path d="M71.7333 133.66L72.0859 134.414L71.758 134.562L71.4053 133.815C70.8258 134.069 70.1755 134.111 69.5679 133.935L69.589 133.476C70.1243 133.636 70.6981 133.607 71.2149 133.395L70.4284 131.674C69.6278 131.826 68.792 131.939 68.397 131.075C68.1078 130.447 68.3124 129.696 69.2787 129.16L68.926 128.408L69.2505 128.257L69.6032 129.004C70.0805 128.799 70.6053 128.729 71.1196 128.803V129.262C70.6682 129.198 70.2079 129.252 69.783 129.417L70.573 131.152C71.3947 130.99 72.2693 130.845 72.6714 131.72C72.9747 132.358 72.749 133.127 71.7333 133.66ZM70.2239 131.216L69.4727 129.579C68.8273 129.932 68.6827 130.429 68.8731 130.845C69.0988 131.343 69.6208 131.325 70.2239 131.216ZM72.22 131.967C71.9837 131.448 71.4229 131.491 70.8093 131.614L71.5569 133.251C72.2517 132.866 72.4104 132.386 72.22 131.967Z" fill="#263238"/>
<path d="M8.65132 57.8781C7.96645 58.4797 7.1186 58.8647 6.21494 58.9844C5.31129 59.1042 4.39242 58.9533 3.5745 58.5509C2.75658 58.1485 2.07635 57.5126 1.6198 56.7236C1.16325 55.9346 0.950888 55.028 1.00956 54.1183C1.06823 53.2086 1.3953 52.3368 1.94943 51.613C2.50355 50.8892 3.25984 50.346 4.12267 50.052C4.98551 49.7579 5.91615 49.7264 6.79693 49.9612C7.67771 50.1961 8.46908 50.6868 9.07099 51.3713C9.47082 51.8261 9.77713 52.3551 9.97243 52.9283C10.1677 53.5014 10.2482 54.1074 10.2092 54.7117C10.1702 55.3159 10.0126 55.9066 9.74529 56.4499C9.47798 56.9932 9.10624 57.4785 8.65132 57.8781Z" stroke="#263238" stroke-miterlimit="10"/>
<path d="M3.83386 56.2558L3.21316 56.8024L2.97334 56.5309L3.59051 55.9913C3.18163 55.5075 2.9535 54.8966 2.94513 54.2632L3.39302 54.1504C3.39324 54.706 3.58087 55.2452 3.92555 55.681L5.33623 54.4325C4.95887 53.7095 4.60973 52.9407 5.33623 52.3165C5.85818 51.8616 6.63405 51.8404 7.42403 52.6092L8.06589 52.0661L8.30218 52.3341L7.685 52.8772C8.01332 53.2766 8.2256 53.7585 8.29865 54.2703L7.86134 54.4149C7.7911 53.9639 7.6079 53.5381 7.32881 53.177L5.89344 54.436C6.28491 55.1731 6.67637 55.9701 5.9534 56.6085C5.42792 57.067 4.62736 57.0916 3.83386 56.2558ZM5.73827 54.1045L7.08899 52.916C6.55294 52.4011 6.03099 52.4047 5.70653 52.7044C5.28333 53.0642 5.45261 53.5649 5.72769 54.1045H5.73827ZM5.59368 56.2205C6.02393 55.8467 5.82291 55.3212 5.52667 54.757L4.17595 55.9455C4.72964 56.5133 5.24453 56.5344 5.5972 56.2311L5.59368 56.2205Z" fill="#263238"/>
<path d="M29.7524 97.1933C29.8015 95.9643 28.8451 94.9282 27.6161 94.879C26.387 94.8298 25.3509 95.7863 25.3017 97.0153C25.2525 98.2443 26.209 99.2805 27.438 99.3297C28.6671 99.3788 29.7032 98.4224 29.7524 97.1933Z" stroke="#263238" stroke-width="1.0008" stroke-miterlimit="10"/>
<path d="M28.1681 97.5357L28.422 97.8425L28.2915 97.9519L28.0376 97.6486C27.799 97.8404 27.5008 97.9427 27.1947 97.9378L27.1453 97.7191C27.4145 97.7262 27.6781 97.6416 27.893 97.4793L27.3075 96.774C26.9549 96.9468 26.5811 97.1055 26.2848 96.7528C26.0732 96.4989 26.0732 96.1215 26.4541 95.7477L26.1966 95.4409L26.3307 95.3315L26.5846 95.6348C26.7809 95.4789 27.0164 95.3801 27.2652 95.3492L27.3287 95.5608C27.1107 95.591 26.9036 95.6746 26.7256 95.8041L27.3146 96.5095C27.6673 96.3296 28.0658 96.1568 28.3726 96.5095C28.5877 96.7704 28.5807 97.1584 28.1681 97.5357ZM27.1594 96.5906L26.6022 95.924C26.3483 96.1779 26.3448 96.4213 26.4823 96.5906C26.6198 96.7599 26.8949 96.714 27.1594 96.5906ZM28.1857 96.6858C28.0094 96.4777 27.7554 96.5659 27.4804 96.7034L28.0376 97.37C28.3091 97.1019 28.3268 96.8551 28.1857 96.6823V96.6858Z" fill="#263238"/>
<path d="M98.2046 141.087C98.4861 141.425 98.6611 141.839 98.7073 142.277C98.7535 142.714 98.6689 143.156 98.4643 143.546C98.2596 143.935 97.944 144.255 97.5574 144.465C97.1708 144.676 96.7306 144.767 96.2923 144.727C95.8541 144.687 95.4375 144.518 95.0953 144.241C94.7531 143.964 94.5005 143.593 94.3696 143.172C94.2387 142.752 94.2354 142.303 94.3599 141.881C94.4845 141.459 94.7314 141.083 95.0694 140.801C95.5233 140.424 96.1083 140.242 96.6961 140.296C97.2838 140.349 97.8263 140.634 98.2046 141.087Z" stroke="#263238" stroke-miterlimit="10"/>
<path d="M97.3582 143.397L97.6157 143.704L97.4817 143.813L97.2277 143.51C96.9905 143.701 96.6934 143.804 96.3884 143.799L96.339 143.58C96.6084 143.589 96.8726 143.504 97.0867 143.34L96.5013 142.635C96.1486 142.808 95.7712 142.967 95.4785 142.614C95.2634 142.36 95.2634 141.983 95.6443 141.609L95.3903 141.302L95.5244 141.193L95.7783 141.496C95.9738 141.339 96.2097 141.24 96.4589 141.21L96.5224 141.422C96.3033 141.452 96.095 141.536 95.9158 141.665L96.5083 142.371C96.861 142.191 97.2595 142.018 97.5663 142.371C97.7709 142.632 97.7638 143.019 97.3582 143.397ZM96.3461 142.438L95.7889 141.771C95.5314 142.025 95.5279 142.268 95.6689 142.438C95.81 142.607 96.078 142.575 96.3461 142.438ZM97.3688 142.536C97.1925 142.325 96.9386 142.413 96.6635 142.536L97.2207 143.203C97.4958 142.963 97.5134 142.716 97.3688 142.547V142.536Z" fill="#263238"/>
<path d="M37.2976 14.3071C37.4099 13.0832 36.5087 12 35.2848 11.8878C34.061 11.7755 32.9778 12.6767 32.8656 13.9006C32.7533 15.1245 33.6545 16.2076 34.8784 16.3199C36.1023 16.4321 37.1854 15.531 37.2976 14.3071Z" stroke="#263238" stroke-miterlimit="10"/>
<path d="M35.9514 14.9899L36.2053 15.2968L36.0713 15.4061L35.8174 15.1028C35.5805 15.2951 35.2832 15.3976 34.9781 15.392L34.9287 15.1733C35.1979 15.1804 35.4615 15.0959 35.6763 14.9335L35.0909 14.2282C34.7382 14.401 34.3609 14.5597 34.0682 14.207C33.8566 13.9531 33.853 13.5757 34.2375 13.2019L33.98 12.8951L34.114 12.7858L34.3679 13.0891C34.5639 12.9325 34.7996 12.8336 35.0486 12.8034L35.1121 13.015C34.8941 13.0452 34.6869 13.1288 34.509 13.2583L35.098 13.9637C35.4506 13.7838 35.8492 13.611 36.156 13.9637C36.3641 14.2247 36.3535 14.6126 35.9514 14.9899ZM34.9357 14.0413L34.3785 13.3606C34.1246 13.6145 34.1175 13.8579 34.2586 14.0272C34.3997 14.1964 34.6677 14.1682 34.9357 14.0413ZM35.962 14.1365C35.7857 13.9284 35.5282 14.0166 35.2567 14.1365L35.8139 14.803C36.0854 14.5562 36.1031 14.3093 35.962 14.1365Z" fill="#263238"/>
<path opacity="0.2" d="M85.2335 105.34C85.2335 105.34 82.5144 119.14 65.8367 122.268C65.8367 122.268 61.4812 125.742 60.0317 127.798C58.5823 129.854 50.8623 133.349 42.9978 144.254C35.1333 155.158 23.4247 120.53 23.4247 120.53L49.3035 86.9204L85.2335 105.34Z" fill="black" fill-opacity="0.7"/>
<path d="M100.056 40.5444C100.056 40.5444 109.049 36.1466 111.028 36.9048C113.006 37.6631 114.907 42.2125 107.342 46.568C99.7775 50.9234 102.035 59.0384 102.035 59.0384H107.43C107.43 59.0384 110.668 60.3573 111.927 62.0537C113.186 63.75 114.085 69.5338 114.805 71.4946C115.524 73.4555 115.157 75.4198 113.186 76.0582C113.186 76.0582 111.927 81.5457 112.287 83.9791C112.646 86.4125 112.467 87.9784 110.128 88.2746C109.54 88.336 108.945 88.2686 108.386 88.0773C107.826 87.886 107.315 87.5753 106.887 87.1667C106.459 86.7581 106.125 86.2614 105.909 85.711C105.692 85.1606 105.597 84.5696 105.632 83.9791L103.833 90.4965L105.092 93.0004C106.871 93.6888 108.515 94.6844 109.949 95.9417C112.467 98.1 114.985 98.689 114.265 101.094C113.546 103.499 112.107 106.091 104.553 103.087C96.9985 100.082 90.7034 88.2746 90.7034 88.2746L86.1645 47.104L100.056 40.5444Z" fill="white"/>
<path opacity="0.4" d="M109.522 64.1944C105.445 69.7525 109.956 76.1534 109.956 76.1534C109.956 76.1534 107.134 77.7263 107.053 81.7397C107.021 83.4078 107.441 85.7389 107.942 87.8973C107.209 87.5509 106.597 86.992 106.185 86.2933C105.774 85.5945 105.582 84.7882 105.635 83.9791L103.833 90.4965L105.092 92.9969C106.417 93.5039 107.665 94.191 108.802 95.0388C107.684 97.6063 107.342 100.78 107.441 104.053C106.459 103.792 105.494 103.47 104.553 103.087C96.9985 100.078 90.7034 88.2746 90.7034 88.2746L86.1645 47.1005L100.056 40.5444C100.056 40.5444 104.969 38.1427 108.333 37.194C108.072 40.3398 108.686 43.595 109.13 45.4077C108.557 45.8277 107.96 46.215 107.342 46.568C99.7881 50.9234 102.035 59.0384 102.035 59.0384H107.434C107.434 59.0384 110.509 60.2939 111.828 61.9267C110.926 62.5339 110.144 63.3027 109.522 64.1944Z" fill="#92E3A9"/>
<path d="M86.0058 98.7066C86.0058 98.7066 76.2228 117.888 58.5893 122.24C58.5893 122.24 57.9157 126.035 54.9321 127.664C53.3381 128.532 46.9054 138.17 41.2591 146.969L9.98444 127.784C11.91 125.88 14.1036 123.686 16.3325 121.397C22.8569 114.746 29.8186 107.291 31.9487 103.602C33.8531 100.322 36.2618 94.6297 38.3602 89.2798C41.0475 82.438 43.2341 76.1534 43.2341 76.1534L53.659 64.5647L70.0475 46.3423L70.7529 48.6734L86.0058 98.7066Z" fill="white"/>
<path opacity="0.4" d="M70.0616 46.3423L86.0058 98.7066C86.0058 98.7066 76.2228 117.888 58.5893 122.24C58.5893 122.24 57.9157 126.035 54.9321 127.664C53.5003 128.444 48.1715 136.291 43.0154 144.24C44.9269 137.68 50.4603 127.223 50.4603 127.223C46.9089 123.016 47.9458 118.583 49.367 119.846C50.7883 121.108 54.3608 124.656 54.5865 124.878C53.0171 123.03 52.6539 120.135 52.6539 120.135C52.6539 120.135 57.0552 123.062 57.4114 118.371C57.7676 113.681 54.7734 102.219 54.7734 102.219L46.9124 72.0801L70.0616 46.3423Z" fill="#92E3A9"/>
<path d="M86.1645 47.104L100.056 40.5444C100.056 40.5444 109.049 36.1466 111.028 36.9048C113.006 37.6631 114.907 42.2125 107.342 46.568C99.7775 50.9234 102.035 59.0384 102.035 59.0384H107.43C107.43 59.0384 110.668 60.3573 111.927 62.0537C113.186 63.75 114.085 69.5338 114.805 71.4946C115.524 73.4555 115.157 75.4198 113.186 76.0582C113.186 76.0582 111.927 81.5457 112.287 83.9791C112.646 86.4125 112.467 87.9784 110.128 88.2746C109.54 88.336 108.945 88.2686 108.386 88.0773C107.826 87.886 107.315 87.5753 106.887 87.1667C106.459 86.7581 106.125 86.2614 105.909 85.711C105.692 85.1606 105.597 84.5696 105.632 83.9791L103.833 90.4965L105.092 93.0004C106.871 93.6888 108.515 94.6844 109.949 95.9417C112.467 98.1 114.985 98.689 114.265 101.094C113.546 103.499 112.107 106.091 104.553 103.087C96.9985 100.082 90.7034 88.2746 90.7034 88.2746" stroke="#263238" stroke-linecap="round" stroke-linejoin="round"/>
<path d="M113.186 76.0582C110.488 76.7882 107.342 76.2486 106.171 71.4735C105.001 66.6983 107.342 61.5987 108.869 61.1297" stroke="#263238" stroke-linecap="round" stroke-linejoin="round"/>
<path d="M105.632 83.9791C105.632 83.9791 105.452 77.8392 107.702 76.3227" stroke="#263238" stroke-linecap="round" stroke-linejoin="round"/>
<path opacity="0.4" d="M40.0248 114.474C40.0248 114.474 33.4334 113.653 31.9628 110.704C30.7461 108.264 24.1512 117.405 16.3466 121.397C22.871 114.746 29.8327 107.291 31.9628 103.602C33.8672 100.322 36.276 94.6298 38.3743 89.2798C38.2685 93.7164 35.9057 100.509 36.5793 104.046C35.8575 104.237 35.24 104.704 34.8604 105.347C34.4809 105.99 34.3698 106.757 34.5514 107.481C35.0557 110.292 40.0248 114.474 40.0248 114.474Z" fill="#92E3A9"/>
<path d="M86.0058 98.7066C86.0058 98.7066 76.2228 117.888 58.5858 122.24C58.5858 122.24 57.9157 126.035 54.9321 127.664C53.3381 128.532 46.9089 138.17 41.2556 146.969" stroke="#263238" stroke-linecap="round" stroke-linejoin="round"/>
<path d="M9.98444 127.784C17.5175 120.339 29.0956 108.536 31.9628 103.602C36.3006 96.1357 43.2482 76.1499 43.2482 76.1499L70.0511 46.3423" stroke="#263238" stroke-linecap="round" stroke-linejoin="round"/>
<path d="M54.7558 69.1071C54.7558 69.1071 58.875 72.796 60.0458 76.1604" stroke="#263238" stroke-linecap="round" stroke-linejoin="round"/>
<path d="M103.378 15.3779H59.0584C57.7475 15.3779 56.6849 16.4406 56.6849 17.7514V112.101C56.6849 113.412 57.7475 114.474 59.0584 114.474H103.378C104.689 114.474 105.752 113.412 105.752 112.101V17.7514C105.752 16.4406 104.689 15.3779 103.378 15.3779Z" fill="#263238"/>
<path d="M90.9432 18.0758L90.0051 19.7933C89.9059 19.9797 89.7581 20.1358 89.5774 20.2451C89.3968 20.3543 89.1899 20.4127 88.9788 20.414H73.4613C73.2506 20.4129 73.0439 20.3554 72.8628 20.2475C72.6818 20.1396 72.5329 19.9852 72.4316 19.8004L71.497 18.0829C71.3966 17.8973 71.2478 17.7423 71.0666 17.6343C70.8853 17.5263 70.6782 17.4692 70.4672 17.4692H59.6226C59.4681 17.4697 59.3152 17.5007 59.1726 17.5603C59.0301 17.62 58.9007 17.7072 58.792 17.8169C58.6832 17.9267 58.5972 18.0568 58.5388 18.1999C58.4804 18.343 58.4508 18.4962 58.4517 18.6507V111.403C58.4517 111.714 58.575 112.012 58.7945 112.232C59.0139 112.452 59.3118 112.576 59.6226 112.577H102.81C102.965 112.578 103.119 112.548 103.262 112.49C103.405 112.431 103.536 112.345 103.645 112.236C103.755 112.126 103.842 111.997 103.902 111.854C103.961 111.711 103.992 111.558 103.992 111.403V18.6507C103.992 18.3392 103.868 18.0405 103.648 17.8203C103.428 17.6 103.129 17.4763 102.818 17.4763H91.9765C91.7663 17.4743 91.5594 17.5289 91.3776 17.6344C91.1958 17.7398 91.0457 17.8923 90.9432 18.0758Z" fill="#92E3A9" stroke="#263238" stroke-linecap="round" stroke-linejoin="round"/>
<path d="M77.8521 18.9081C78.2008 18.9081 78.4834 18.6255 78.4834 18.2768C78.4834 17.9282 78.2008 17.6456 77.8521 17.6456C77.5035 17.6456 77.2208 17.9282 77.2208 18.2768C77.2208 18.6255 77.5035 18.9081 77.8521 18.9081Z" stroke="white" stroke-miterlimit="10"/>
<path d="M85.2123 18.2769C85.2116 18.3542 85.1881 18.4295 85.1446 18.4934C85.1012 18.5573 85.0398 18.6069 84.9682 18.636C84.8966 18.6651 84.8181 18.6724 84.7424 18.6569C84.6666 18.6414 84.5972 18.6038 84.5428 18.5489C84.4884 18.494 84.4515 18.4243 84.4367 18.3484C84.4219 18.2726 84.4298 18.1941 84.4595 18.1228C84.4893 18.0514 84.5395 17.9905 84.6038 17.9476C84.668 17.9048 84.7436 17.8819 84.8209 17.8819C84.8726 17.8819 84.9238 17.8921 84.9715 17.912C85.0192 17.9319 85.0625 17.9611 85.0989 17.9978C85.1353 18.0345 85.1641 18.0781 85.1835 18.126C85.203 18.1739 85.2128 18.2252 85.2123 18.2769Z" stroke="white" stroke-miterlimit="10"/>
<path d="M83.456 18.03H79.619C79.5867 18.03 79.5548 18.0364 79.525 18.0488C79.4953 18.0613 79.4683 18.0795 79.4457 18.1025C79.423 18.1255 79.4052 18.1527 79.3931 18.1826C79.3811 18.2126 79.3752 18.2446 79.3756 18.2768C79.3756 18.3414 79.4013 18.4033 79.4469 18.4489C79.4925 18.4945 79.5544 18.5202 79.619 18.5202H83.456C83.5206 18.5202 83.5825 18.4945 83.6281 18.4489C83.6737 18.4033 83.6994 18.3414 83.6994 18.2768C83.6998 18.2446 83.6939 18.2126 83.6819 18.1826C83.6698 18.1527 83.652 18.1255 83.6293 18.1025C83.6067 18.0795 83.5797 18.0613 83.55 18.0488C83.5202 18.0364 83.4883 18.03 83.456 18.03Z" fill="white"/>
<path d="M66.4821 19.8215H62.3452V21.5778H66.4821V19.8215Z" stroke="#263238" stroke-linecap="round" stroke-linejoin="round"/>
<path d="M67.1204 20.1178H66.4785V21.2851H67.1204V20.1178Z" stroke="#263238" stroke-linecap="round" stroke-linejoin="round"/>
<path d="M95.7959 20.9431H95.0623V21.5814H95.7959V20.9431Z" stroke="#263238" stroke-linecap="round" stroke-linejoin="round"/>
<path d="M97.2278 20.3011H96.4942V21.5813H97.2278V20.3011Z" stroke="#263238" stroke-linecap="round" stroke-linejoin="round"/>
<path d="M98.6596 19.6593H97.926V21.5778H98.6596V19.6593Z" stroke="#263238" stroke-linecap="round" stroke-linejoin="round"/>
<path d="M100.088 19.0175H99.3543V21.5778H100.088V19.0175Z" stroke="#263238" stroke-linecap="round" stroke-linejoin="round"/>
<path opacity="0.5" d="M103.689 37.9628H58.7445V80.8298H103.689V37.9628Z" fill="white"/>
<path d="M71.1584 31.1175V31.8617C71.1584 32.7821 70.7176 33.2724 69.8148 33.2724H69.388V35.4272H68.4852V29.6963H69.8148C70.7176 29.6963 71.1584 30.1971 71.1584 31.1175ZM69.3951 30.518V32.4612H69.8218C70.1075 32.4612 70.2626 32.3307 70.2626 31.9216V31.0576C70.2626 30.6485 70.1075 30.518 69.8218 30.518H69.3951Z" fill="#263238"/>
<path d="M74.3924 35.4377H73.4825L73.3238 34.3974H72.22L72.0613 35.4377H71.2325L72.1529 29.6963H73.4719L74.3924 35.4377ZM72.3328 33.618H73.2039L72.7772 30.7155H72.7595L72.3328 33.618Z" fill="#263238"/>
<path d="M75.2529 33.5369L74.1138 29.6963H75.0731L75.7537 32.3131H75.7713L76.452 29.6963H77.3125L76.1734 33.5369V35.4377H75.2706L75.2529 33.5369Z" fill="#263238"/>
<path d="M79.559 33.7731H79.5766L80.1832 29.6963H81.4387V35.4377H80.5853V31.3221L79.9787 35.4377H79.1252L78.4692 31.3785V35.4377H77.6475V29.6963H78.903L79.559 33.7731Z" fill="#263238"/>
<path d="M82.9976 32.1156H84.2425V32.9373H83.0046V34.6196H84.5634V35.4377H82.0947V29.6963H84.5634V30.518H83.0046L82.9976 32.1156Z" fill="#263238"/>
<path d="M85.9353 31.2798H85.9177V35.4377H85.1065V29.6963H86.2386L87.1485 33.1348V29.6963H87.9526V35.4377H87.0286L85.9353 31.2798Z" fill="#263238"/>
<path d="M88.3546 29.6963H91.1442V30.518H90.199V35.4377H89.2962V30.518H88.3546V29.6963Z" fill="#263238"/>
<path d="M92.7524 29.6328C93.627 29.6328 94.0784 30.1583 94.0784 31.0752V31.2551H93.2249V31.0188C93.2249 30.6062 93.0627 30.451 92.7735 30.451C92.4843 30.451 92.3256 30.6062 92.3256 31.0188C92.3256 31.4314 92.5055 31.7488 93.0944 32.2637C93.8492 32.9303 94.089 33.4028 94.089 34.0588C94.089 34.9793 93.627 35.5048 92.7418 35.5048C91.8566 35.5048 91.3981 34.9793 91.3981 34.0588V33.7061H92.2516V34.1188C92.2516 34.5279 92.4314 34.676 92.7171 34.676C93.0027 34.676 93.1861 34.5279 93.1861 34.1188C93.1861 33.7097 93.0063 33.3887 92.4138 32.8703C91.6591 32.2073 91.4228 31.7312 91.4228 31.0752C91.4228 30.1583 91.8742 29.6328 92.7524 29.6328Z" fill="#263238"/>
<path d="M100.088 43.1577H62.3452V48.7968H100.088V43.1577Z" fill="white" stroke="#263238" stroke-linecap="round" stroke-linejoin="round"/>
<path d="M100.088 53.7342H62.3452V59.3734H100.088V53.7342Z" fill="white" stroke="#263238" stroke-linecap="round" stroke-linejoin="round"/>
<path d="M100.088 63.3515H62.3452V68.9907H100.088V63.3515Z" fill="white" stroke="#263238" stroke-linecap="round" stroke-linejoin="round"/>
<path d="M80.215 71.0468H62.3452V77.6487H80.215V71.0468Z" fill="white" stroke="#263238" stroke-linecap="round" stroke-linejoin="round"/>
<path d="M100.091 71.0468H82.2217V77.6487H100.091V71.0468Z" fill="white" stroke="#263238" stroke-linecap="round" stroke-linejoin="round"/>
<path d="M64.6975 42.1737V42.3254H63.5161V40.6572H64.6623V40.8089H63.6959V41.4049H64.5565V41.553H63.6959V42.1737H64.6975Z" fill="#263238"/>
<path d="M67.1451 41.5989V42.3254H66.9617V41.62C66.9617 41.3555 66.8277 41.218 66.609 41.218C66.5502 41.2155 66.4915 41.2259 66.437 41.2483C66.3826 41.2708 66.3337 41.3049 66.2937 41.3482C66.2538 41.3915 66.2238 41.443 66.2057 41.4991C66.1877 41.5551 66.1821 41.6145 66.1893 41.6729V42.3289H66.0201V41.6236C66.0201 41.3591 65.886 41.2215 65.6674 41.2215C65.6085 41.219 65.5498 41.2294 65.4954 41.2519C65.4409 41.2744 65.3921 41.3084 65.3521 41.3517C65.3122 41.395 65.2821 41.4465 65.2641 41.5026C65.2461 41.5587 65.2405 41.618 65.2477 41.6765V42.3324H65.0784V41.0804H65.2407V41.3097C65.2889 41.2317 65.3573 41.1683 65.4386 41.1261C65.5199 41.0839 65.6112 41.0644 65.7027 41.0699C65.7951 41.0621 65.8876 41.0834 65.9673 41.1308C66.047 41.1783 66.1098 41.2494 66.147 41.3344C66.1984 41.2496 66.2717 41.1802 66.3592 41.1337C66.4468 41.0871 66.5453 41.0651 66.6443 41.0699C66.7137 41.0652 66.7833 41.0759 66.8481 41.1013C66.9129 41.1266 66.9714 41.166 67.0192 41.2165C67.067 41.267 67.1031 41.3275 67.1249 41.3936C67.1466 41.4597 67.1535 41.5298 67.1451 41.5989Z" fill="#263238"/>
<path d="M68.5522 41.5495V42.3253H68.39V42.1314C68.3424 42.2012 68.2772 42.2572 68.2011 42.2937C68.1249 42.3303 68.0404 42.346 67.9562 42.3394C67.6741 42.3394 67.5013 42.1913 67.5013 41.9868C67.5013 41.7822 67.6247 41.6341 67.9844 41.6341H68.3723V41.5565C68.3723 41.3414 68.2489 41.225 68.0197 41.225C67.8676 41.2227 67.7199 41.2753 67.6035 41.3731L67.5259 41.2462C67.6721 41.1331 67.8525 41.0734 68.0373 41.0769C68.1037 41.066 68.1718 41.0704 68.2363 41.0896C68.3008 41.1089 68.36 41.1425 68.4096 41.188C68.4592 41.2335 68.4978 41.2897 68.5225 41.3523C68.5472 41.415 68.5574 41.4824 68.5522 41.5495ZM68.3829 41.9515V41.7434H67.9879C67.7446 41.7434 67.667 41.8387 67.667 41.9691C67.667 42.0996 67.7834 42.2054 67.9844 42.2054C68.0673 42.2078 68.1489 42.1848 68.2182 42.1394C68.2876 42.094 68.3414 42.0284 68.3723 41.9515H68.3829Z" fill="#263238"/>
<path d="M68.9719 40.6784C68.9728 40.6463 68.9862 40.6158 69.0092 40.5934C69.0323 40.571 69.0632 40.5585 69.0953 40.5585C69.1271 40.5585 69.1576 40.5711 69.1801 40.5936C69.2026 40.6161 69.2152 40.6466 69.2152 40.6784C69.2152 40.7102 69.2026 40.7407 69.1801 40.7632C69.1576 40.7857 69.1271 40.7983 69.0953 40.7983C69.0632 40.7983 69.0323 40.7858 69.0092 40.7634C68.9862 40.741 68.9728 40.7105 68.9719 40.6784ZM69.0107 41.0734H69.1799V42.3253H69.0107V41.0734Z" fill="#263238"/>
<path d="M69.6525 40.5585H69.8218V42.3218H69.6525V40.5585Z" fill="#263238"/>
<path d="M65.8649 46.5115V46.6632H64.6834V44.9951H65.8296V45.1467H64.8456V45.7392H65.7097V45.8908H64.8456V46.5115H65.8649Z" fill="#263238"/>
<path d="M68.3124 45.9297V46.6562H68.1431V45.9508C68.1431 45.6863 68.0091 45.5488 67.7905 45.5488C67.7318 45.5458 67.6731 45.5556 67.6187 45.5777C67.5642 45.5998 67.5153 45.6335 67.4753 45.6766C67.4353 45.7196 67.4052 45.7709 67.3871 45.8268C67.3691 45.8827 67.3635 45.9419 67.3708 46.0002V46.6597H67.2015V45.9544C67.2015 45.6899 67.0675 45.5523 66.8488 45.5523C66.7901 45.5493 66.7315 45.5592 66.6771 45.5812C66.6226 45.6033 66.5736 45.6371 66.5336 45.6801C66.4936 45.7231 66.4635 45.7744 66.4455 45.8303C66.4274 45.8862 66.4219 45.9454 66.4292 46.0037V46.6632H66.2563V45.4077H66.4186V45.637C66.4675 45.5599 66.5361 45.4974 66.6174 45.4559C66.6986 45.4143 66.7895 45.3953 66.8806 45.4007C66.9728 45.3939 67.0649 45.4157 67.1444 45.463C67.2239 45.5103 67.2869 45.5809 67.3249 45.6652C67.376 45.5801 67.4493 45.5105 67.5369 45.464C67.6245 45.4174 67.7231 45.3955 67.8222 45.4007C67.8908 45.3976 67.9592 45.4095 68.0227 45.4356C68.0862 45.4616 68.1432 45.5012 68.1899 45.5516C68.2366 45.6019 68.2717 45.6618 68.2928 45.7271C68.314 45.7924 68.3207 45.8615 68.3124 45.9297Z" fill="#263238"/>
<path d="M69.7161 45.8803V46.6561H69.5538V46.4622C69.5069 46.5316 69.4423 46.5872 69.3666 46.6231C69.2909 46.6591 69.207 46.6741 69.1236 46.6667C68.8414 46.6667 68.6651 46.5186 68.6651 46.314C68.6651 46.1095 68.7921 45.9614 69.1518 45.9614H69.5503V45.8873C69.5503 45.6722 69.4269 45.5558 69.1976 45.5558C69.0446 45.5538 68.8959 45.6064 68.778 45.7039L68.7039 45.577C68.849 45.4618 69.0301 45.4018 69.2153 45.4077C69.2806 45.3991 69.3471 45.4052 69.4098 45.4256C69.4725 45.4459 69.5299 45.4799 69.5778 45.5251C69.6258 45.5704 69.663 45.6257 69.6869 45.6871C69.7108 45.7485 69.7208 45.8145 69.7161 45.8803ZM69.5503 46.2788V46.0742H69.1553C68.912 46.0742 68.8344 46.1694 68.8344 46.2999C68.8344 46.4304 68.9508 46.5362 69.1518 46.5362C69.2369 46.5411 69.3214 46.5188 69.3931 46.4725C69.4647 46.4263 69.5198 46.3584 69.5503 46.2788Z" fill="#263238"/>
<path d="M70.1357 45.0056C70.1366 44.9735 70.15 44.943 70.1731 44.9206C70.1961 44.8982 70.227 44.8857 70.2591 44.8857C70.2752 44.8853 70.2912 44.888 70.3061 44.8938C70.3211 44.8996 70.3347 44.9084 70.3462 44.9196C70.3577 44.9308 70.3669 44.9441 70.3731 44.9589C70.3794 44.9737 70.3826 44.9896 70.3826 45.0056C70.3826 45.0384 70.3696 45.0698 70.3464 45.0929C70.3233 45.1161 70.2919 45.1291 70.2591 45.1291C70.2264 45.1291 70.195 45.1161 70.1719 45.0929C70.1487 45.0698 70.1357 45.0384 70.1357 45.0056ZM70.1745 45.4006H70.3438V46.6561H70.1745V45.4006Z" fill="#263238"/>
<path d="M70.8199 44.8857H70.9856V46.6491H70.8199V44.8857Z" fill="#263238"/>
<path d="M72.6044 45.9296V46.6561H72.4351V45.9508C72.4426 45.8987 72.4384 45.8456 72.4226 45.7953C72.4069 45.7451 72.3802 45.699 72.3443 45.6604C72.3085 45.6219 72.2644 45.5918 72.2155 45.5725C72.1665 45.5532 72.1138 45.5451 72.0613 45.5488C72.0012 45.5437 71.9408 45.552 71.8843 45.5731C71.8278 45.5942 71.7766 45.6275 71.7345 45.6706C71.6924 45.7137 71.6603 45.7656 71.6406 45.8226C71.6209 45.8796 71.614 45.9402 71.6205 46.0002V46.6597H71.4512V45.4042H71.6134V45.6369C71.6644 45.5584 71.7354 45.4948 71.819 45.4527C71.9027 45.4105 71.996 45.3914 72.0895 45.3971C72.1601 45.3914 72.2311 45.4015 72.2973 45.4265C72.3636 45.4515 72.4235 45.4909 72.4727 45.5418C72.5219 45.5927 72.5592 45.6539 72.582 45.721C72.6048 45.788 72.6124 45.8593 72.6044 45.9296Z" fill="#263238"/>
<path d="M74.0151 45.8803V46.6562H73.8528V46.4622C73.8059 46.5316 73.7413 46.5872 73.6656 46.6232C73.5899 46.6591 73.506 46.6742 73.4226 46.6668C73.1369 46.6668 72.9641 46.5186 72.9641 46.3141C72.9641 46.1095 73.0875 45.9614 73.4473 45.9614H73.8458V45.8874C73.8458 45.6722 73.7259 45.5558 73.4931 45.5558C73.3411 45.5535 73.1933 45.6061 73.077 45.704L72.9994 45.577C73.1447 45.4624 73.3257 45.4025 73.5107 45.4077C73.5764 45.3986 73.6432 45.4043 73.7064 45.4243C73.7695 45.4444 73.8274 45.4783 73.8757 45.5236C73.9241 45.5689 73.9617 45.6245 73.9858 45.6862C74.0099 45.7479 74.0199 45.8142 74.0151 45.8803ZM73.8458 46.2788V46.0743H73.4543C73.211 46.0743 73.1299 46.1695 73.1299 46.3C73.1299 46.4305 73.2462 46.5363 73.4473 46.5363C73.533 46.542 73.6183 46.52 73.6906 46.4737C73.763 46.4274 73.8186 46.3591 73.8493 46.2788H73.8458Z" fill="#263238"/>
<path d="M76.5472 45.9297V46.6562H76.378V45.9508C76.378 45.6863 76.2439 45.5488 76.0253 45.5488C75.9666 45.5458 75.908 45.5556 75.8535 45.5777C75.7991 45.5998 75.7501 45.6335 75.7101 45.6766C75.6701 45.7196 75.64 45.7709 75.6219 45.8268C75.6039 45.8827 75.5983 45.9419 75.6056 46.0002V46.6597H75.4258V45.9544C75.4258 45.6899 75.2917 45.5523 75.0731 45.5523C75.0144 45.5493 74.9558 45.5592 74.9013 45.5812C74.8469 45.6033 74.7979 45.6371 74.7579 45.6801C74.7179 45.7231 74.6878 45.7744 74.6697 45.8303C74.6517 45.8862 74.6461 45.9454 74.6534 46.0037V46.6632H74.4841V45.4077H74.6464V45.637C74.6953 45.5599 74.7639 45.4974 74.8452 45.4559C74.9264 45.4143 75.0173 45.3953 75.1084 45.4007C75.2008 45.3929 75.2933 45.4142 75.373 45.4616C75.4527 45.5091 75.5155 45.5802 75.5527 45.6652C75.6041 45.5804 75.6774 45.511 75.7649 45.4645C75.8525 45.4179 75.951 45.3959 76.05 45.4007C76.1191 45.3966 76.1883 45.4077 76.2527 45.4333C76.3171 45.4588 76.375 45.4983 76.4225 45.5487C76.4699 45.5992 76.5057 45.6595 76.5273 45.7253C76.5488 45.7912 76.5556 45.8609 76.5472 45.9297Z" fill="#263238"/>
<path d="M78.1025 46.0813H77.0445C77.0535 46.2042 77.1109 46.3186 77.2042 46.3992C77.2974 46.4799 77.4188 46.5203 77.5418 46.5115C77.614 46.5135 77.6859 46.4997 77.7523 46.4711C77.8186 46.4425 77.878 46.3997 77.9262 46.3458L78.0214 46.4551C77.9314 46.5496 77.8155 46.6154 77.6882 46.6443C77.561 46.6732 77.428 46.664 77.306 46.6177C77.184 46.5713 77.0784 46.49 77.0024 46.384C76.9264 46.2779 76.8834 46.1518 76.8787 46.0213C76.8744 45.9386 76.8871 45.8559 76.9161 45.7783C76.9451 45.7007 76.9898 45.6299 77.0474 45.5703C77.1049 45.5108 77.1742 45.4637 77.2507 45.4321C77.3273 45.4005 77.4096 45.385 77.4924 45.3865C77.5749 45.3849 77.6569 45.4004 77.7331 45.4321C77.8093 45.4638 77.8781 45.511 77.9352 45.5707C77.9922 45.6303 78.0362 45.7012 78.0644 45.7788C78.0926 45.8564 78.1044 45.939 78.099 46.0213C78.099 46.0213 78.1025 46.0637 78.1025 46.0813ZM77.0445 45.9543H77.9332C77.9332 45.8365 77.8864 45.7235 77.8031 45.6401C77.7197 45.5568 77.6067 45.51 77.4889 45.51C77.371 45.51 77.258 45.5568 77.1746 45.6401C77.0913 45.7235 77.0445 45.8365 77.0445 45.9543Z" fill="#263238"/>
<path d="M80.557 46.0248C80.557 46.4304 80.4054 46.6667 80.1585 46.6667C80.1237 46.6686 80.0889 46.6634 80.0562 46.6513C80.0235 46.6392 79.9936 46.6205 79.9685 46.5963C79.9433 46.5722 79.9234 46.5431 79.91 46.5109C79.8966 46.4787 79.89 46.4441 79.8905 46.4093C79.8414 46.4908 79.7713 46.5577 79.6876 46.603C79.6039 46.6483 79.5095 46.6703 79.4144 46.6667C79.2516 46.6667 79.0956 46.6021 78.9805 46.487C78.8654 46.3719 78.8008 46.2158 78.8008 46.0531C78.8008 45.8903 78.8654 45.7342 78.9805 45.6191C79.0956 45.5041 79.2516 45.4394 79.4144 45.4394C79.5083 45.4354 79.6016 45.4565 79.6847 45.5005C79.7677 45.5445 79.8376 45.6099 79.887 45.6898V45.4535H80.0421V46.3564C80.0421 46.4904 80.1092 46.5397 80.1903 46.5397C80.3349 46.5397 80.4301 46.3564 80.4301 46.0354C80.4339 45.908 80.4109 45.7812 80.3626 45.6633C80.3143 45.5454 80.2417 45.4389 80.1496 45.3508C80.0575 45.2627 79.9479 45.1949 79.8279 45.1518C79.708 45.1088 79.5803 45.0914 79.4532 45.1009C79.3272 45.1009 79.2025 45.1257 79.0861 45.1739C78.9697 45.2221 78.864 45.2927 78.7749 45.3818C78.6858 45.4709 78.6152 45.5766 78.5669 45.693C78.5187 45.8094 78.4939 45.9341 78.4939 46.0601C78.4939 46.1861 78.5187 46.3108 78.5669 46.4272C78.6152 46.5436 78.6858 46.6493 78.7749 46.7384C78.864 46.8275 78.9697 46.8981 79.0861 46.9464C79.2025 46.9946 79.3272 47.0194 79.4532 47.0194C79.612 47.019 79.7687 46.9828 79.9117 46.9136L79.9505 47.03C79.795 47.1031 79.625 47.1405 79.4532 47.1393C79.167 47.1393 78.8925 47.0256 78.6901 46.8232C78.4877 46.6208 78.374 46.3463 78.374 46.0601C78.374 45.7739 78.4877 45.4994 78.6901 45.297C78.8925 45.0946 79.167 44.9809 79.4532 44.9809C79.5957 44.9707 79.7388 44.9901 79.8734 45.0381C80.008 45.0862 80.1311 45.1617 80.235 45.2599C80.3388 45.358 80.421 45.4768 80.4765 45.6085C80.5319 45.7402 80.5594 45.882 80.557 46.0248ZM79.887 46.0495C79.8925 45.9867 79.8849 45.9233 79.8647 45.8635C79.8444 45.8038 79.812 45.7488 79.7693 45.7023C79.7267 45.6557 79.6749 45.6186 79.6171 45.5931C79.5593 45.5677 79.4969 45.5546 79.4338 45.5546C79.3707 45.5546 79.3082 45.5677 79.2505 45.5931C79.1927 45.6186 79.1409 45.6557 79.0983 45.7023C79.0556 45.7488 79.0232 45.8038 79.0029 45.8635C78.9827 45.9233 78.9751 45.9867 78.9806 46.0495C78.9751 46.1124 78.9827 46.1757 79.0029 46.2355C79.0232 46.2953 79.0556 46.3502 79.0983 46.3968C79.1409 46.4433 79.1927 46.4805 79.2505 46.5059C79.3082 46.5314 79.3707 46.5445 79.4338 46.5445C79.4969 46.5445 79.5593 46.5314 79.6171 46.5059C79.6749 46.4805 79.7267 46.4433 79.7693 46.3968C79.812 46.3502 79.8444 46.2953 79.8647 46.2355C79.8849 46.1757 79.8925 46.1124 79.887 46.0495Z" fill="#263238"/>
<path d="M82.003 46.0813H80.945C80.9486 46.1425 80.9643 46.2023 80.991 46.2575C81.0178 46.3126 81.0552 46.3619 81.1011 46.4025C81.147 46.4431 81.2004 46.4743 81.2584 46.4942C81.3163 46.5142 81.3776 46.5224 81.4388 46.5186C81.511 46.5206 81.5829 46.5068 81.6493 46.4782C81.7156 46.4495 81.775 46.4068 81.8232 46.3529L81.9184 46.4622C81.8284 46.5567 81.7125 46.6225 81.5852 46.6514C81.458 46.6803 81.325 46.671 81.203 46.6247C81.081 46.5784 80.9754 46.4971 80.8994 46.3911C80.8234 46.285 80.7804 46.1588 80.7757 46.0284C80.7714 45.9457 80.7841 45.863 80.8131 45.7854C80.8421 45.7078 80.8868 45.637 80.9444 45.5774C81.0019 45.5179 81.0712 45.4708 81.1477 45.4392C81.2243 45.4076 81.3066 45.392 81.3894 45.3936C81.4719 45.392 81.5539 45.4075 81.6301 45.4392C81.7063 45.4709 81.7751 45.5181 81.8322 45.5777C81.8892 45.6374 81.9332 45.7083 81.9614 45.7859C81.9896 45.8635 82.0014 45.946 81.996 46.0284C81.996 46.0284 82.003 46.0637 82.003 46.0813ZM80.945 45.9544H81.8338C81.8338 45.8365 81.7869 45.7235 81.7036 45.6401C81.6203 45.5568 81.5072 45.51 81.3894 45.51C81.2715 45.51 81.1585 45.5568 81.0752 45.6401C80.9918 45.7235 80.945 45.8365 80.945 45.9544Z" fill="#263238"/>
<path d="M84.4223 45.9296V46.6561H84.2424V45.9508C84.2424 45.6863 84.1084 45.5488 83.8898 45.5488C83.8311 45.5457 83.7725 45.5556 83.718 45.5777C83.6635 45.5997 83.6146 45.6335 83.5746 45.6765C83.5346 45.7195 83.5045 45.7708 83.4864 45.8267C83.4684 45.8827 83.4628 45.9419 83.4701 46.0002V46.6597H83.3008V45.9543C83.3008 45.6898 83.1668 45.5523 82.9481 45.5523C82.8895 45.5492 82.8308 45.5591 82.7764 45.5812C82.7219 45.6033 82.673 45.637 82.633 45.68C82.5929 45.7231 82.5629 45.7744 82.5448 45.8303C82.5268 45.8862 82.5212 45.9454 82.5285 46.0037V46.6632H82.3592V45.4077H82.5214V45.6369C82.5698 45.5602 82.6378 45.4978 82.7184 45.4562C82.799 45.4147 82.8893 45.3955 82.9799 45.4006C83.0726 45.3937 83.1653 45.4153 83.2454 45.4626C83.3254 45.5099 83.3891 45.5806 83.4278 45.6651C83.478 45.5801 83.5506 45.5104 83.6376 45.4638C83.7247 45.4172 83.8229 45.3953 83.9215 45.4006C83.9909 45.396 84.0606 45.4067 84.1254 45.432C84.1902 45.4574 84.2486 45.4967 84.2964 45.5473C84.3443 45.5978 84.3804 45.6583 84.4021 45.7244C84.4239 45.7905 84.4308 45.8606 84.4223 45.9296Z" fill="#263238"/>
<path d="M85.826 45.8803V46.6561H85.6532V46.4622C85.606 46.5313 85.5413 46.5867 85.4657 46.6226C85.3901 46.6586 85.3063 46.6738 85.2229 46.6667C84.9372 46.6667 84.7644 46.5186 84.7644 46.3141C84.7644 46.1095 84.8879 45.9614 85.2476 45.9614H85.6532V45.8873C85.6532 45.6722 85.5332 45.5558 85.3005 45.5558C85.1485 45.5535 85.0007 45.6061 84.8843 45.7039L84.8068 45.577C84.9521 45.4624 85.1331 45.4025 85.3181 45.4077C85.384 45.398 85.4512 45.4032 85.5148 45.423C85.5784 45.4428 85.6368 45.4766 85.6855 45.522C85.7343 45.5674 85.7722 45.6231 85.7965 45.6852C85.8208 45.7472 85.8309 45.8138 85.826 45.8803ZM85.6567 46.2788V46.0742H85.2652C85.0219 46.0742 84.9408 46.1695 84.9408 46.2999C84.9408 46.4304 85.0571 46.5362 85.2582 46.5362C85.3427 46.5404 85.4264 46.5177 85.4974 46.4715C85.5683 46.4253 85.6228 46.3578 85.6532 46.2788H85.6567Z" fill="#263238"/>
<path d="M86.2491 45.0056C86.2491 44.9812 86.2564 44.9574 86.2699 44.9371C86.2835 44.9168 86.3028 44.9009 86.3253 44.8916C86.3479 44.8823 86.3727 44.8798 86.3967 44.8846C86.4206 44.8893 86.4426 44.9011 86.4599 44.9184C86.4771 44.9356 86.4889 44.9576 86.4936 44.9816C86.4984 45.0055 86.496 45.0303 86.4866 45.0529C86.4773 45.0754 86.4614 45.0947 86.4412 45.1083C86.4209 45.1218 86.397 45.1291 86.3726 45.1291C86.3398 45.1291 86.3084 45.1161 86.2853 45.0929C86.2621 45.0698 86.2491 45.0384 86.2491 45.0056ZM86.2844 45.4006H86.4537V46.6561H86.2844V45.4006Z" fill="#263238"/>
<path d="M86.9263 44.8857H87.0956V46.6491H86.9263V44.8857Z" fill="#263238"/>
<path d="M87.4588 46.5363C87.4583 46.5194 87.4613 46.5027 87.4675 46.4871C87.4737 46.4715 87.483 46.4573 87.4949 46.4454C87.5068 46.4335 87.521 46.4242 87.5366 46.418C87.5522 46.4118 87.569 46.4088 87.5858 46.4093C87.6195 46.4093 87.6518 46.4227 87.6756 46.4465C87.6994 46.4703 87.7127 46.5026 87.7127 46.5363C87.7128 46.5703 87.6995 46.6029 87.6758 46.6273C87.6521 46.6517 87.6198 46.6658 87.5858 46.6667C87.5688 46.6667 87.552 46.6633 87.5364 46.6567C87.5207 46.6501 87.5066 46.6405 87.4947 46.6283C87.4829 46.6162 87.4736 46.6017 87.4675 46.5859C87.4613 46.5701 87.4584 46.5532 87.4588 46.5363Z" fill="#263238"/>
<path d="M87.9102 46.0284C87.9077 45.9434 87.9227 45.8589 87.9544 45.78C87.9861 45.7011 88.0337 45.6297 88.0943 45.5701C88.1549 45.5105 88.2272 45.4641 88.3065 45.4337C88.3859 45.4033 88.4707 45.3897 88.5556 45.3936C88.6524 45.3872 88.7491 45.4067 88.8359 45.4501C88.9227 45.4935 88.9963 45.5592 89.0493 45.6404L88.9224 45.7251C88.8827 45.6684 88.8299 45.6221 88.7685 45.5902C88.7071 45.5583 88.6389 45.5416 88.5697 45.5417C88.4473 45.5521 88.3333 45.6081 88.2502 45.6985C88.1671 45.789 88.121 45.9073 88.121 46.0301C88.121 46.153 88.1671 46.2713 88.2502 46.3618C88.3333 46.4522 88.4473 46.5082 88.5697 46.5186C88.639 46.5192 88.7074 46.5029 88.7689 46.4709C88.8304 46.4389 88.8831 46.3923 88.9224 46.3352L89.0493 46.4198C88.9958 46.5006 88.9221 46.5659 88.8354 46.6092C88.7488 46.6525 88.6523 46.6723 88.5556 46.6667C88.4704 46.6707 88.3853 46.6569 88.3057 46.6263C88.226 46.5957 88.1536 46.549 88.093 46.489C88.0323 46.429 87.9848 46.3571 87.9533 46.2778C87.9219 46.1986 87.9072 46.1136 87.9102 46.0284Z" fill="#263238"/>
<path d="M89.2327 46.0284C89.2327 45.9022 89.2702 45.7787 89.3403 45.6738C89.4105 45.5688 89.5101 45.487 89.6268 45.4387C89.7434 45.3904 89.8718 45.3777 89.9956 45.4023C90.1194 45.427 90.2332 45.4878 90.3224 45.577C90.4117 45.6663 90.4725 45.78 90.4971 45.9039C90.5218 46.0277 90.5091 46.156 90.4608 46.2727C90.4125 46.3893 90.3307 46.489 90.2257 46.5592C90.1207 46.6293 89.9973 46.6667 89.8711 46.6667C89.7864 46.6697 89.7021 46.6552 89.6233 46.6242C89.5446 46.5931 89.473 46.5462 89.4131 46.4863C89.3533 46.4265 89.3063 46.3549 89.2753 46.2761C89.2443 46.1974 89.2298 46.113 89.2327 46.0284ZM90.3366 46.0284C90.3337 45.9356 90.3034 45.8456 90.2494 45.7701C90.1953 45.6945 90.1201 45.6367 90.0332 45.6039C89.9462 45.5712 89.8515 45.565 89.7611 45.5861C89.6706 45.6072 89.5884 45.6547 89.525 45.7226C89.4616 45.7905 89.4198 45.8757 89.4048 45.9674C89.3899 46.059 89.4025 46.1531 89.4411 46.2376C89.4796 46.3221 89.5425 46.3933 89.6215 46.442C89.7006 46.4908 89.7923 46.515 89.8852 46.5116C89.9469 46.5107 90.0079 46.4974 90.0643 46.4724C90.1208 46.4474 90.1716 46.4113 90.2138 46.3661C90.2559 46.321 90.2886 46.2678 90.3097 46.2098C90.3308 46.1518 90.3399 46.0901 90.3366 46.0284Z" fill="#263238"/>
<path d="M92.9216 45.9296V46.6561H92.7524V45.9508C92.7524 45.6863 92.6183 45.5488 92.3997 45.5488C92.341 45.5457 92.2824 45.5556 92.2279 45.5777C92.1735 45.5997 92.1245 45.6335 92.0845 45.6765C92.0445 45.7195 92.0144 45.7708 91.9963 45.8267C91.9783 45.8827 91.9727 45.9419 91.98 46.0002V46.6597H91.8107V45.9543C91.8107 45.6898 91.6767 45.5523 91.4581 45.5523C91.3994 45.5492 91.3407 45.5591 91.2863 45.5812C91.2318 45.6033 91.1829 45.637 91.1429 45.68C91.1029 45.7231 91.0728 45.7744 91.0547 45.8303C91.0367 45.8862 91.0311 45.9454 91.0384 46.0037V46.6632H90.8691V45.4077H91.0313V45.6369C91.0797 45.5602 91.1477 45.4978 91.2283 45.4562C91.309 45.4147 91.3992 45.3955 91.4898 45.4006C91.5825 45.3937 91.6752 45.4153 91.7553 45.4626C91.8354 45.5099 91.899 45.5806 91.9377 45.6651C91.9882 45.5804 92.0608 45.5109 92.1478 45.4643C92.2348 45.4177 92.3329 45.3957 92.4314 45.4006C92.5 45.3976 92.5684 45.4095 92.6319 45.4355C92.6954 45.4616 92.7525 45.5012 92.7991 45.5515C92.8458 45.6019 92.8809 45.6618 92.9021 45.7271C92.9232 45.7924 92.9299 45.8615 92.9216 45.9296Z" fill="#263238"/>
<path d="M64.9832 56.5838L65.2794 56.753L65.2265 56.8518L64.9268 56.679V57.0317H64.8174V56.679L64.5177 56.8518L64.4612 56.753L64.761 56.5838L64.4612 56.418L64.5177 56.3157L64.8174 56.4921V56.1394H64.9268V56.4921L65.2265 56.3157L65.2794 56.418L64.9832 56.5838Z" fill="#263238"/>
<path d="M65.953 56.5838L66.2493 56.753L66.1928 56.8518L65.8966 56.679V57.0317H65.7838V56.679L65.4875 56.8518L65.4276 56.753L65.7273 56.5838L65.4276 56.418L65.4875 56.3157L65.7838 56.4921V56.1394H65.9037V56.4921L66.1999 56.3157L66.2563 56.418L65.953 56.5838Z" fill="#263238"/>
<path d="M66.9194 56.5838L67.2156 56.753L67.1592 56.8518L66.8629 56.679V57.0317H66.7536V56.679L66.4574 56.8518L66.4009 56.753L66.6972 56.5838L66.4009 56.418L66.4574 56.3157L66.7536 56.4921V56.1394H66.8629V56.4921L67.1592 56.3157L67.2156 56.418L66.9194 56.5838Z" fill="#263238"/>
<path d="M67.8857 56.5838L68.1819 56.753L68.129 56.8518L67.8293 56.679V57.0317H67.7199V56.679L67.4202 56.8518L67.3637 56.753L67.6635 56.5838L67.3637 56.418L67.4202 56.3157L67.7199 56.4921V56.1394H67.8293V56.4921L68.129 56.3157L68.1819 56.418L67.8857 56.5838Z" fill="#263238"/>
<path d="M68.8555 56.5838L69.1517 56.753L69.0953 56.8518L68.7991 56.679V57.0317H68.6862V56.679L68.39 56.8518L68.33 56.753L68.6298 56.5838L68.33 56.418L68.39 56.3157L68.6862 56.4921V56.1394H68.7991V56.4921L69.0953 56.3157L69.1517 56.418L68.8555 56.5838Z" fill="#263238"/>
<path d="M69.8218 56.5838L70.1181 56.753L70.0616 56.8518L69.7654 56.679V57.0317H69.6561V56.679L69.3598 56.8518L69.3034 56.753L69.5996 56.5838L69.3034 56.418L69.3598 56.3157L69.6561 56.4921V56.1394H69.783V56.4921L70.0793 56.3157L70.1357 56.418L69.8218 56.5838Z" fill="#263238"/>
<path d="M70.7882 56.5838L71.0844 56.753L71.0315 56.8518L70.7317 56.679V57.0317H70.6224V56.679L70.3226 56.8518L70.2662 56.753L70.566 56.5838L70.2662 56.418L70.3226 56.3157L70.6224 56.4921V56.1394H70.7317V56.4921L71.0315 56.3157L71.0844 56.418L70.7882 56.5838Z" fill="#263238"/>
<path d="M71.758 56.5838L72.0542 56.753L71.9978 56.8518L71.698 56.679V57.0317H71.5887V56.679L71.2924 56.8518L71.2325 56.753L71.5323 56.5838L71.2325 56.418L71.2924 56.3157L71.5887 56.4921V56.1394H71.698V56.4921L71.9978 56.3157L72.0542 56.418L71.758 56.5838Z" fill="#263238"/>
<path d="M72.7243 56.5838L73.0205 56.753L72.9641 56.8518L72.6679 56.679V57.0317H72.5585V56.679L72.2623 56.8518L72.2059 56.753L72.5021 56.5838L72.2059 56.418L72.2623 56.3157L72.5585 56.4921V56.1394H72.6679V56.4921L72.9641 56.3157L73.0205 56.418L72.7243 56.5838Z" fill="#263238"/>
<path d="M73.6906 56.5838L73.9869 56.753L73.934 56.8518L73.6342 56.679V57.0317H73.5249V56.679L73.2251 56.8518L73.1687 56.753L73.4649 56.5838L73.1687 56.418L73.2251 56.3157L73.5249 56.4921V56.1394H73.6342V56.4921L73.934 56.3157L73.9869 56.418L73.6906 56.5838Z" fill="#263238"/>
<path d="M74.6604 56.5838L74.9531 56.753L74.9002 56.8518L74.6005 56.679V57.0317H74.4911V56.679L74.1949 56.8518L74.1349 56.753L74.4347 56.5838L74.1349 56.418L74.1949 56.3157L74.4911 56.4921V56.1394H74.6005V56.4921L74.9002 56.3157L74.9531 56.418L74.6604 56.5838Z" fill="#263238"/>
<path d="M64.8245 51.8016C64.8245 52.1542 64.567 52.3729 64.1438 52.3729H63.6959V52.8984H63.5161V51.2373H64.1403C64.567 51.2373 64.8245 51.4489 64.8245 51.8016ZM64.6482 51.8016C64.6482 51.5335 64.4718 51.3819 64.1368 51.3819H63.6959V52.2177H64.1403C64.4718 52.2248 64.6482 52.0731 64.6482 51.8016Z" fill="#263238"/>
<path d="M66.1047 52.1296V52.9054H65.9425V52.7115C65.8947 52.7809 65.8294 52.8364 65.7532 52.8724C65.677 52.9083 65.5926 52.9234 65.5087 52.916C65.2266 52.916 65.0537 52.7714 65.0537 52.5634C65.0537 52.3553 65.1772 52.2107 65.5369 52.2107H65.9354V52.1366C65.9354 51.9215 65.812 51.8051 65.5827 51.8051C65.4307 51.8028 65.283 51.8554 65.1666 51.9532L65.089 51.8263C65.2344 51.7117 65.4154 51.6518 65.6004 51.657C65.666 51.6479 65.7328 51.6536 65.796 51.6736C65.8591 51.6937 65.917 51.7276 65.9654 51.7729C66.0137 51.8182 66.0513 51.8737 66.0754 51.9355C66.0995 51.9972 66.1095 52.0635 66.1047 52.1296ZM65.9354 52.5281V52.3235H65.551C65.3077 52.3235 65.2301 52.4188 65.2301 52.5492C65.2301 52.6797 65.3465 52.7855 65.5475 52.7855C65.6309 52.7882 65.713 52.7648 65.7825 52.7187C65.852 52.6726 65.9055 52.6059 65.9354 52.5281Z" fill="#263238"/>
<path d="M66.3903 52.7644L66.4644 52.6304C66.5955 52.7225 66.752 52.7718 66.9123 52.7714C67.1486 52.7714 67.2473 52.6903 67.2473 52.5634C67.2473 52.2389 66.4362 52.4964 66.4362 51.9991C66.4362 51.7946 66.6125 51.6464 66.9299 51.6464C67.0858 51.6444 67.2394 51.6846 67.3743 51.7628L67.3002 51.8968C67.1901 51.8253 67.0611 51.7885 66.9299 51.791C66.7042 51.791 66.6054 51.8792 66.6054 51.9991C66.6054 52.3518 67.4166 52.0837 67.4166 52.5634C67.4166 52.782 67.2261 52.916 66.8982 52.916C66.7169 52.9219 66.5387 52.8687 66.3903 52.7644Z" fill="#263238"/>
<path d="M67.5542 52.7644L67.6318 52.6304C67.7614 52.7229 67.9169 52.7722 68.0761 52.7714C68.3159 52.7714 68.4288 52.6903 68.4288 52.5633C68.4288 52.2389 67.6177 52.4963 67.6177 51.9991C67.6177 51.7945 67.794 51.6464 68.1149 51.6464C68.2698 51.644 68.4223 51.6842 68.5558 51.7628L68.4817 51.8968C68.3767 51.8284 68.2543 51.7917 68.129 51.791C67.8998 51.791 67.801 51.8792 67.801 51.9991C67.801 52.3517 68.6122 52.0837 68.6122 52.5633C68.6122 52.782 68.4217 52.916 68.0973 52.916C67.9042 52.9296 67.7123 52.876 67.5542 52.7644Z" fill="#263238"/>
<path d="M70.7105 51.6534L70.2344 52.9054H70.0757L69.6807 51.8792L69.2858 52.9054H69.1235L68.6545 51.6534H68.8167L69.2082 52.7115L69.6102 51.6534H69.7583L70.1568 52.7115L70.5554 51.6534H70.7105Z" fill="#263238"/>
<path d="M70.8023 52.2777C70.8023 52.1514 70.8397 52.028 70.9098 51.923C70.98 51.8181 71.0797 51.7362 71.1963 51.6879C71.3129 51.6396 71.4413 51.627 71.5651 51.6516C71.6889 51.6762 71.8027 51.737 71.892 51.8263C71.9812 51.9156 72.042 52.0293 72.0667 52.1531C72.0913 52.277 72.0786 52.4053 72.0303 52.522C71.982 52.6386 71.9002 52.7383 71.7952 52.8084C71.6903 52.8786 71.5668 52.916 71.4406 52.916C71.356 52.919 71.2716 52.9045 71.1929 52.8734C71.1141 52.8424 71.0425 52.7955 70.9826 52.7356C70.9228 52.6757 70.8759 52.6042 70.8448 52.5254C70.8138 52.4466 70.7993 52.3623 70.8023 52.2777ZM71.9061 52.2777C71.9061 52.1542 71.8571 52.0358 71.7698 51.9485C71.6825 51.8612 71.5641 51.8121 71.4406 51.8121C71.3171 51.8121 71.1987 51.8612 71.1114 51.9485C71.0241 52.0358 70.9751 52.1542 70.9751 52.2777C70.9751 52.4011 71.0241 52.5195 71.1114 52.6069C71.1987 52.6942 71.3171 52.7432 71.4406 52.7432C71.5641 52.7432 71.6825 52.6942 71.7698 52.6069C71.8571 52.5195 71.9061 52.4011 71.9061 52.2777Z" fill="#263238"/>
<path d="M73.0558 51.6429V51.8016H73.0135C72.9539 51.7989 72.8945 51.8094 72.8395 51.8323C72.7845 51.8552 72.7352 51.89 72.6951 51.9341C72.6551 51.9782 72.6252 52.0306 72.6077 52.0875C72.5902 52.1445 72.5854 52.2046 72.5938 52.2636V52.9019H72.4245V51.65H72.6044V51.8933C72.6469 51.812 72.7123 51.7449 72.7925 51.7004C72.8728 51.6559 72.9643 51.6359 73.0558 51.6429Z" fill="#263238"/>
<path d="M74.4912 51.1386V52.9019H74.3289V52.6551C74.2787 52.7372 74.2074 52.8044 74.1224 52.8496C74.0375 52.8949 73.942 52.9166 73.8458 52.9125C73.6851 52.9006 73.5349 52.8283 73.4254 52.7102C73.3158 52.5922 73.2549 52.437 73.2549 52.276C73.2549 52.1149 73.3158 51.9597 73.4254 51.8417C73.5349 51.7236 73.6851 51.6514 73.8458 51.6394C73.9397 51.6358 74.033 51.6567 74.1164 51.7C74.1999 51.7432 74.2707 51.8074 74.3219 51.8863V51.1351L74.4912 51.1386ZM74.3254 52.2777C74.3206 52.1869 74.2892 52.0994 74.2352 52.0262C74.1812 51.9529 74.107 51.8971 74.0216 51.8656C73.9362 51.8341 73.8435 51.8284 73.7549 51.849C73.6662 51.8697 73.5856 51.9159 73.523 51.9818C73.4603 52.0478 73.4184 52.1307 73.4023 52.2203C73.3863 52.3099 73.3968 52.4022 73.4327 52.4858C73.4685 52.5694 73.5281 52.6407 73.604 52.6909C73.6799 52.741 73.7689 52.7678 73.8599 52.7679C73.9234 52.7691 73.9865 52.757 74.0452 52.7324C74.1038 52.7078 74.1567 52.6713 74.2005 52.6252C74.2443 52.5791 74.278 52.5244 74.2995 52.4646C74.321 52.4048 74.3298 52.3411 74.3254 52.2777Z" fill="#263238"/>
<path d="M76.9987 65.5557V67.2274H76.8364V65.7109H76.4414V65.5557H76.9987Z" fill="#263238"/>
<path d="M78.5363 67.0651V67.2203H77.3654V67.0969L78.0707 66.4162C78.2576 66.2328 78.2964 66.12 78.2964 66.0071C78.2964 65.8132 78.1589 65.6933 77.905 65.6933C77.8199 65.6878 77.7348 65.7018 77.6559 65.7342C77.5771 65.7666 77.5067 65.8165 77.45 65.8802L77.3266 65.7744C77.4018 65.6935 77.4938 65.6301 77.5962 65.5886C77.6986 65.5472 77.8088 65.5287 77.9191 65.5346C78.2718 65.5346 78.4728 65.7074 78.4728 65.986C78.4673 66.0877 78.4399 66.187 78.3924 66.2771C78.3449 66.3672 78.2785 66.4459 78.1977 66.5079L77.6299 67.0651H78.5363Z" fill="#263238"/>
<path d="M79.8552 66.7407C79.8552 67.0193 79.6507 67.2344 79.2486 67.2344C79.0288 67.2413 78.8144 67.1644 78.6491 67.0193L78.7302 66.8818C78.8713 67.0113 79.0572 67.0809 79.2486 67.0757C79.5273 67.0757 79.6789 66.9488 79.6789 66.7407C79.6789 66.5326 79.5378 66.4092 79.2275 66.4092H79.1076V66.2822L79.5696 65.7038H78.7161V65.5557H79.7741V65.6792L79.3051 66.2611C79.6754 66.2858 79.8552 66.4727 79.8552 66.7407Z" fill="#263238"/>
<path d="M81.5128 66.7795H81.1778V67.2203H81.0085V66.7795H80.0669V66.656L80.9521 65.5486H81.1425L80.289 66.6137H81.012V66.2258H81.1778V66.6137H81.5128V66.7795Z" fill="#263238"/>
<path d="M83.4278 66.7266C83.4278 67.0122 83.2303 67.2344 82.8212 67.2344C82.6014 67.2409 82.3872 67.1641 82.2217 67.0193L82.3063 66.8817C82.3743 66.9465 82.4546 66.997 82.5424 67.0303C82.6303 67.0636 82.7238 67.079 82.8177 67.0757C83.1034 67.0757 83.2515 66.9382 83.2515 66.723C83.2515 66.5079 83.1175 66.3704 82.6943 66.3704H82.3416L82.4298 65.531H83.3432V65.6862H82.5779L82.5214 66.2152H82.7366C83.2374 66.2328 83.4278 66.4338 83.4278 66.7266Z" fill="#263238"/>
<path d="M84.8984 66.7195C84.8978 66.7918 84.8821 66.8632 84.8524 66.9292C84.8227 66.9951 84.7797 67.0541 84.726 67.1025C84.6722 67.151 84.6091 67.1877 84.5404 67.2104C84.4717 67.2331 84.3991 67.2413 84.3271 67.2344C83.8828 67.2344 83.6429 66.9241 83.6429 66.3986C83.6429 65.8731 83.9533 65.5346 84.4047 65.5346C84.5433 65.5293 84.6809 65.5609 84.8032 65.6263L84.7327 65.7638C84.6342 65.7074 84.5216 65.6805 84.4082 65.6862C84.0556 65.6862 83.8158 65.9154 83.8158 66.3704C83.8158 66.4092 83.8158 66.455 83.8158 66.5044C83.8644 66.4126 83.9386 66.3368 84.0293 66.2861C84.12 66.2355 84.2234 66.2121 84.3271 66.2187C84.3984 66.2098 84.4707 66.216 84.5393 66.237C84.608 66.258 84.6714 66.2934 84.7254 66.3407C84.7794 66.388 84.8227 66.4463 84.8525 66.5116C84.8824 66.5769 84.898 66.6477 84.8984 66.7195ZM84.7292 66.7195C84.7292 66.4974 84.5669 66.3669 84.3095 66.3669C84.2579 66.3605 84.2055 66.3647 84.1555 66.3792C84.1056 66.3937 84.0591 66.4181 84.0189 66.4511C83.9786 66.4841 83.9455 66.5249 83.9215 66.571C83.8975 66.6171 83.8831 66.6677 83.8792 66.7195C83.8792 66.9029 84.0309 67.0722 84.3201 67.0722C84.3703 67.0803 84.4217 67.0775 84.4707 67.0639C84.5197 67.0503 84.5652 67.0263 84.6041 66.9935C84.643 66.9606 84.6743 66.9198 84.6959 66.8737C84.7174 66.8277 84.7288 66.7775 84.7292 66.7266V66.7195Z" fill="#263238"/>
<path d="M86.2527 65.5557V65.6792L85.5473 67.2274H85.3604L86.0481 65.7109H85.1911V66.0213H85.0219V65.5557H86.2527Z" fill="#263238"/>
<path d="M87.7163 66.7548C87.7163 67.051 87.4659 67.2344 87.0674 67.2344C86.6688 67.2344 86.4255 67.051 86.4255 66.7548C86.4244 66.6598 86.4556 66.5673 86.5139 66.4924C86.5722 66.4175 86.6542 66.3645 86.7464 66.3422C86.6695 66.3215 86.6018 66.2754 86.5544 66.2113C86.507 66.1473 86.4827 66.0691 86.4855 65.9895C86.4855 65.7179 86.7147 65.5486 87.0674 65.5486C87.42 65.5486 87.6563 65.7179 87.6563 65.9895C87.6551 66.0692 87.6284 66.1463 87.5802 66.2098C87.5319 66.2732 87.4647 66.3196 87.3883 66.3422C87.4816 66.3637 87.5648 66.4162 87.6244 66.4912C87.6839 66.5661 87.7163 66.659 87.7163 66.7548ZM87.5399 66.7548C87.5399 66.5502 87.3636 66.4197 87.0674 66.4197C86.7711 66.4197 86.5983 66.5502 86.5983 66.7548C86.5983 66.9593 86.7711 67.1074 87.0674 67.1074C87.3636 67.1074 87.5399 66.9664 87.5399 66.7512V66.7548ZM87.0638 66.2822C87.3248 66.2822 87.48 66.1658 87.48 65.9824C87.48 65.799 87.3142 65.6827 87.0638 65.6827C86.8134 65.6827 86.6512 65.7955 86.6512 65.9824C86.6512 66.1693 86.8064 66.2822 87.0638 66.2822Z" fill="#263238"/>
<path d="M89.7829 66.3703C89.7829 66.9381 89.4726 67.2344 89.0176 67.2344C88.8802 67.2392 88.7439 67.2076 88.6227 67.1427L88.6932 67.0051C88.7917 67.0615 88.9043 67.0885 89.0176 67.0827C89.3703 67.0827 89.6066 66.85 89.6066 66.3985C89.6098 66.3539 89.6098 66.3091 89.6066 66.2645C89.5592 66.3566 89.4858 66.4328 89.3955 66.4836C89.3053 66.5344 89.2021 66.5575 89.0987 66.5502C89.0281 66.5581 88.9565 66.5511 88.8887 66.5296C88.8209 66.508 88.7584 66.4725 88.7052 66.4253C88.652 66.3781 88.6093 66.3203 88.5799 66.2555C88.5505 66.1907 88.535 66.1205 88.5345 66.0494C88.5351 65.9771 88.5508 65.9057 88.5805 65.8398C88.6102 65.7738 88.6533 65.7148 88.707 65.6664C88.7607 65.618 88.8239 65.5813 88.8925 65.5586C88.9612 65.5359 89.0338 65.5277 89.1058 65.5345C89.5325 65.5345 89.7829 65.8449 89.7829 66.3703ZM89.5466 66.0388C89.5466 65.8554 89.395 65.6862 89.1058 65.6862C89.055 65.6779 89.003 65.6809 88.9535 65.6949C88.9039 65.7089 88.8581 65.7336 88.8191 65.7672C88.7801 65.8008 88.7489 65.8425 88.7278 65.8894C88.7067 65.9364 88.696 65.9874 88.6967 66.0388C88.6967 66.261 88.8589 66.3915 89.1164 66.3915C89.2182 66.3993 89.319 66.3667 89.3969 66.3006C89.4748 66.2346 89.5236 66.1405 89.5325 66.0388H89.5466Z" fill="#263238"/>
<path d="M90.4883 65.5557V67.2274H90.3155V65.7109H89.9205V65.5557H90.4883Z" fill="#263238"/>
<path d="M90.8832 66.3845C90.8832 65.8519 91.1653 65.5345 91.5498 65.5345C91.9342 65.5345 92.2163 65.8519 92.2163 66.3845C92.2163 66.917 91.9377 67.2344 91.5498 67.2344C91.1618 67.2344 90.8832 66.917 90.8832 66.3845ZM92.04 66.3845C92.04 65.9401 91.8425 65.6791 91.5498 65.6791C91.257 65.6791 91.0595 65.926 91.0595 66.3845C91.0595 66.8429 91.2606 67.0898 91.5498 67.0898C91.8389 67.0898 92.04 66.8288 92.04 66.3845Z" fill="#263238"/>
<path d="M92.9217 65.5557V67.2274H92.7489V65.7109H92.3539V65.5557H92.9217Z" fill="#263238"/>
<path d="M94.4064 65.5557V67.2274H94.2336V65.7109H93.8386V65.5557H94.4064Z" fill="#263238"/>
<path d="M95.2634 65.5557V67.2274H95.0941V65.7109H94.6991V65.5557H95.2634Z" fill="#263238"/>
<path d="M96.801 67.0651V67.2203H95.6302V67.0968L96.3355 66.4162C96.5224 66.2328 96.5612 66.1199 96.5612 66.0071C96.5612 65.8131 96.4237 65.6932 96.1698 65.6932C96.0847 65.6878 95.9995 65.7017 95.9207 65.7341C95.8419 65.7665 95.7714 65.8165 95.7148 65.8801L95.5914 65.7743C95.6669 65.6938 95.7589 65.6307 95.8612 65.5893C95.9635 65.5479 96.0736 65.5292 96.1839 65.5345C96.5365 65.5345 96.7375 65.7073 96.7375 65.9859C96.7321 66.0876 96.7047 66.187 96.6572 66.2771C96.6097 66.3672 96.5433 66.4459 96.4625 66.5079L95.8806 67.0651H96.801Z" fill="#263238"/>
<path d="M97.4781 65.5557V67.2274H97.2912V65.7109H96.8997V65.5557H97.4781Z" fill="#263238"/>
<path d="M69.3563 65.1678V64.9138C69.3563 64.796 69.3095 64.683 69.2262 64.5996C69.1428 64.5163 69.0298 64.4695 68.9119 64.4695H64.4084C64.2905 64.4695 64.1775 64.5163 64.0941 64.5996C64.0108 64.683 63.964 64.796 63.964 64.9138V65.1678H69.3563Z" fill="#263238"/>
<path d="M63.964 65.5169V67.3861C63.964 67.5039 64.0108 67.6169 64.0941 67.7003C64.1775 67.7836 64.2905 67.8304 64.4084 67.8304H68.9119C69.0298 67.8304 69.1428 67.7836 69.2262 67.7003C69.3095 67.6169 69.3563 67.5039 69.3563 67.3861V65.5169H63.964Z" fill="#263238"/>
<path d="M64.031 75.3599C64.031 74.8274 64.3096 74.5135 64.6976 74.5135C65.0855 74.5135 65.3641 74.8274 65.3641 75.3599C65.3641 75.8924 65.082 76.2098 64.6976 76.2098C64.3131 76.2098 64.031 75.8924 64.031 75.3599ZM65.1878 75.3599C65.1878 74.9155 64.9867 74.6546 64.6976 74.6546C64.4084 74.6546 64.2073 74.9014 64.2073 75.3599C64.2073 75.8184 64.4048 76.0652 64.6976 76.0652C64.9903 76.0652 65.1983 75.8078 65.1983 75.3599H65.1878Z" fill="#263238"/>
<path d="M66.8911 75.7302C66.8911 76.0264 66.6407 76.2098 66.2422 76.2098C65.8437 76.2098 65.6004 76.0264 65.6004 75.7302C65.5988 75.6355 65.6299 75.5432 65.6883 75.4687C65.7467 75.3942 65.829 75.3421 65.9213 75.3211C65.8465 75.2968 65.7811 75.2498 65.7343 75.1866C65.6875 75.1234 65.6616 75.0471 65.6603 74.9684C65.6603 74.6969 65.8896 74.5276 66.2422 74.5276C66.5949 74.5276 66.8312 74.6969 66.8312 74.9684C66.8291 75.0474 66.8025 75.1237 66.7551 75.1869C66.7077 75.2501 66.6419 75.297 66.5667 75.3211C66.6593 75.342 66.742 75.394 66.801 75.4684C66.8601 75.5428 66.8919 75.6352 66.8911 75.7302ZM66.7148 75.7302C66.7148 75.5256 66.5385 75.3987 66.2422 75.3987C65.946 75.3987 65.7732 75.5256 65.7732 75.7302C65.7732 75.9347 65.9495 76.0829 66.2422 76.0829C66.5349 76.0829 66.7148 75.9347 66.7148 75.7267V75.7302ZM66.2563 75.2576C66.5173 75.2576 66.6725 75.1412 66.6725 74.9614C66.6725 74.7815 66.5067 74.6581 66.2563 74.6581C66.0059 74.6581 65.8437 74.7709 65.8437 74.9578C65.8437 75.1448 65.9848 75.2576 66.2563 75.2576Z" fill="#263238"/>
<path d="M67.734 74.189H67.8892L67.0992 76.432H66.9617L67.734 74.189Z" fill="#263238"/>
<path d="M69.0777 76.0405V76.1957H67.9068V76.0723L68.6122 75.3952C68.7991 75.2082 68.8344 75.0954 68.8344 74.9825C68.8344 74.7886 68.7003 74.6687 68.4464 74.6687C68.3608 74.6632 68.2751 74.6771 68.1957 74.7095C68.1163 74.7419 68.0453 74.7918 67.9879 74.8556L67.868 74.7498C67.9433 74.6691 68.0354 74.6061 68.1378 74.5653C68.2403 74.5244 68.3505 74.5067 68.4605 74.5135C68.8132 74.5135 69.0107 74.6828 69.0107 74.9614C69.0071 75.0631 68.9809 75.1627 68.9339 75.253C68.8869 75.3433 68.8204 75.422 68.7391 75.4833L68.1713 76.0405H69.0777Z" fill="#263238"/>
<path d="M70.4143 75.702C70.4143 75.9876 70.2168 76.2098 69.8077 76.2098C69.5879 76.2164 69.3737 76.1395 69.2082 75.9947L69.2928 75.8571C69.3608 75.9219 69.4411 75.9724 69.5289 76.0057C69.6167 76.039 69.7103 76.0545 69.8042 76.0511C70.0898 76.0511 70.238 75.9136 70.238 75.6984C70.238 75.4833 70.1075 75.3458 69.6807 75.3458H69.3281L69.4127 74.5099H70.3261V74.6616H69.5608L69.5044 75.1941H69.7195C70.2239 75.2118 70.4143 75.4093 70.4143 75.702Z" fill="#263238"/>
<path d="M64.8104 73.4519V73.5472H64.0768V72.5103H64.7822V72.6091H64.1826V72.9617H64.7187V73.057H64.1826V73.4414L64.8104 73.4519Z" fill="#263238"/>
<path d="M65.7027 73.5472L65.3712 73.0887L65.0185 73.5472H64.8915L65.2865 73.0146L64.9339 72.5103H65.0573L65.3712 72.9335L65.6815 72.5103H65.7979L65.4452 73.0111L65.8402 73.5472H65.7027Z" fill="#263238"/>
<path d="M66.803 72.8665C66.803 73.0852 66.6407 73.2192 66.3798 73.2192H66.1011V73.5472H65.9918V72.5103H66.3798C66.6407 72.5103 66.803 72.6443 66.803 72.8665ZM66.6936 72.8665C66.6936 72.7008 66.5843 72.6055 66.3762 72.6055H66.1011V73.124H66.3762C66.5843 73.124 66.6936 73.0287 66.6936 72.8665Z" fill="#263238"/>
<path d="M67.4448 72.5103H67.8645C68.002 72.5103 68.1339 72.5649 68.2311 72.6622C68.3283 72.7594 68.3829 72.8912 68.3829 73.0287C68.3829 73.1662 68.3283 73.2981 68.2311 73.3953C68.1339 73.4925 68.002 73.5472 67.8645 73.5472H67.4448V72.5103ZM67.8574 73.4519C67.9697 73.4519 68.0773 73.4074 68.1567 73.328C68.2361 73.2486 68.2807 73.141 68.2807 73.0287C68.2807 72.9165 68.2361 72.8089 68.1567 72.7295C68.0773 72.6501 67.9697 72.6055 67.8574 72.6055H67.5542V73.4519H67.8574Z" fill="#263238"/>
<path d="M69.2329 73.064V73.5472H69.1306V73.4237C69.102 73.4678 69.0619 73.5032 69.0147 73.5262C68.9675 73.5492 68.9149 73.5588 68.8626 73.5542C68.6898 73.5542 68.5804 73.4625 68.5804 73.3285C68.5804 73.1945 68.658 73.1063 68.8802 73.1063H69.1271V73.0605C69.1301 73.0315 69.1265 73.0021 69.1164 72.9748C69.1063 72.9474 69.0901 72.9227 69.069 72.9026C69.0478 72.8825 69.0224 72.8675 68.9945 72.8588C68.9667 72.8501 68.9372 72.8479 68.9084 72.8524C68.8133 72.8508 68.7207 72.8833 68.6475 72.9441L68.6016 72.8665C68.6917 72.7951 68.8041 72.7577 68.919 72.7607C68.9607 72.7545 69.0033 72.7579 69.0435 72.7708C69.0837 72.7837 69.1204 72.8056 69.1507 72.835C69.1811 72.8643 69.2043 72.9002 69.2185 72.9399C69.2328 72.9796 69.2377 73.0221 69.2329 73.064ZM69.1271 73.3109V73.1839H68.8837C68.7321 73.1839 68.6827 73.2439 68.6827 73.325C68.6827 73.4061 68.7568 73.4696 68.8802 73.4696C68.9325 73.4733 68.9846 73.4602 69.029 73.4323C69.0734 73.4044 69.1077 73.3631 69.1271 73.3144V73.3109Z" fill="#263238"/>
<path d="M69.9276 73.4978C69.8827 73.5366 69.8247 73.5568 69.7654 73.5542C69.7348 73.5575 69.7039 73.5539 69.6748 73.5438C69.6458 73.5336 69.6193 73.5172 69.5974 73.4956C69.5755 73.474 69.5586 73.4478 69.548 73.4189C69.5374 73.39 69.5334 73.3592 69.5362 73.3285V72.8559H69.3986V72.7678H69.5362V72.6091H69.642V72.7783H69.8783V72.8665H69.642V73.3144C69.6392 73.333 69.6407 73.3519 69.6463 73.3698C69.652 73.3877 69.6616 73.404 69.6746 73.4176C69.6875 73.4312 69.7033 73.4417 69.7209 73.4483C69.7385 73.4548 69.7573 73.4573 69.776 73.4555C69.8181 73.4563 69.8592 73.4426 69.8924 73.4167L69.9276 73.4978Z" fill="#263238"/>
<path d="M70.7705 73.191H70.1357C70.1411 73.2671 70.1764 73.338 70.2339 73.3882C70.2914 73.4384 70.3663 73.4638 70.4425 73.459C70.4876 73.4609 70.5325 73.4526 70.574 73.4349C70.6154 73.4172 70.6525 73.3905 70.6823 73.3567L70.7423 73.4273C70.7038 73.469 70.6568 73.5019 70.6045 73.5238C70.5521 73.5457 70.4957 73.5561 70.439 73.5542C70.3855 73.5572 70.3321 73.549 70.282 73.5301C70.2319 73.5112 70.1863 73.4821 70.1481 73.4446C70.1099 73.4071 70.08 73.362 70.0603 73.3123C70.0405 73.2625 70.0314 73.2092 70.0334 73.1557C70.0305 73.1046 70.0381 73.0534 70.0558 73.0053C70.0736 72.9572 70.1009 72.9133 70.1363 72.8763C70.1717 72.8392 70.2143 72.8099 70.2615 72.79C70.3088 72.7701 70.3595 72.7601 70.4108 72.7607C70.4629 72.7566 70.5153 72.7642 70.5641 72.7829C70.6129 72.8016 70.657 72.8309 70.6931 72.8687C70.7292 72.9065 70.7565 72.9519 70.7729 73.0015C70.7894 73.0511 70.7946 73.1038 70.7881 73.1557L70.7705 73.191ZM70.118 73.1099H70.6717C70.664 73.0418 70.6316 72.979 70.5805 72.9334C70.5294 72.8878 70.4634 72.8625 70.3949 72.8625C70.3264 72.8625 70.2603 72.8878 70.2093 72.9334C70.1582 72.979 70.1257 73.0418 70.118 73.1099Z" fill="#263238"/>
<path d="M83.7276 74.5276V76.1957H83.5583V74.6792H83.1633V74.5276H83.7276Z" fill="#263238"/>
<path d="M85.2652 76.0405V76.1957H84.0944V76.0723L84.7997 75.3952C84.9866 75.2082 85.0254 75.0954 85.0254 74.9825C85.0254 74.7886 84.8879 74.6687 84.6339 74.6687C84.5489 74.6632 84.4637 74.6772 84.3849 74.7096C84.3061 74.742 84.2357 74.7919 84.179 74.8556L84.0556 74.7498C84.1311 74.6695 84.2233 74.6068 84.3256 74.566C84.428 74.5251 84.538 74.5072 84.6481 74.5135C85.0007 74.5135 85.2017 74.6828 85.2017 74.9614C85.1963 75.0631 85.1689 75.1624 85.1214 75.2525C85.0739 75.3426 85.0075 75.4213 84.9267 75.4833L84.3589 76.0405H85.2652Z" fill="#263238"/>
<path d="M86.5842 75.7161C86.5842 75.9947 86.3797 76.2098 85.9776 76.2098C85.7577 76.2167 85.5434 76.1398 85.3781 75.9947L85.4627 75.8572C85.5312 75.9223 85.612 75.9731 85.7005 76.0064C85.7889 76.0397 85.8832 76.0549 85.9776 76.0511C86.2562 76.0511 86.4079 75.9242 86.4079 75.7161C86.4079 75.508 86.2668 75.3846 85.9565 75.3846H85.8365V75.2576L86.2985 74.6792H85.4451V74.5276H86.5031V74.6475L86.0305 75.24C86.4044 75.2611 86.5842 75.4481 86.5842 75.7161Z" fill="#263238"/>
<path d="M83.2197 73.0288C83.2187 72.9578 83.2322 72.8874 83.2593 72.8218C83.2864 72.7562 83.3266 72.6969 83.3774 72.6474C83.4283 72.5979 83.4887 72.5592 83.5549 72.5339C83.6212 72.5085 83.6919 72.4969 83.7628 72.4998C83.8328 72.4975 83.9025 72.5097 83.9675 72.5359C84.0324 72.562 84.0913 72.6013 84.1402 72.6514L84.0732 72.7219C84.0331 72.6817 83.9852 72.6499 83.9324 72.6287C83.8797 72.6075 83.8232 72.5972 83.7664 72.5985C83.7068 72.5931 83.6468 72.6002 83.5901 72.6192C83.5335 72.6383 83.4814 72.669 83.4373 72.7093C83.3931 72.7496 83.3579 72.7987 83.3338 72.8534C83.3096 72.9081 83.2972 72.9672 83.2972 73.027C83.2972 73.0868 83.3096 73.1459 83.3338 73.2006C83.3579 73.2553 83.3931 73.3044 83.4373 73.3447C83.4814 73.385 83.5335 73.4157 83.5901 73.4348C83.6468 73.4538 83.7068 73.4609 83.7664 73.4555C83.8233 73.4576 83.88 73.4477 83.9329 73.4265C83.9858 73.4052 84.0336 73.373 84.0732 73.3321L84.1402 73.4026C84.0913 73.4537 84.0319 73.4937 83.9662 73.5198C83.9005 73.546 83.8299 73.5577 83.7593 73.5542C83.6889 73.5571 83.6186 73.5456 83.5527 73.5204C83.4869 73.4952 83.4269 73.4568 83.3764 73.4077C83.3259 73.3585 83.2859 73.2995 83.259 73.2344C83.2321 73.1692 83.2187 73.0993 83.2197 73.0288Z" fill="#263238"/>
<path d="M85.7872 72.5103L85.4345 73.5472H85.3181L85.0148 72.662L84.7115 73.5472H84.5951L84.2425 72.5103H84.3553L84.6551 73.4026L84.9654 72.5103H85.0677L85.371 73.4061L85.6743 72.5103H85.7872Z" fill="#263238"/>
<path d="M74.4771 85.1571H73.546L73.345 85.605H73.1616L73.9234 83.9368H74.0997L74.8615 85.605H74.6746L74.4771 85.1571ZM74.4101 85.016L74.0151 84.1202L73.613 85.016H74.4101Z" fill="#263238"/>
<path d="M74.9638 84.9772C74.9607 84.8919 74.9754 84.807 75.0069 84.7277C75.0384 84.6484 75.0859 84.5765 75.1465 84.5166C75.2072 84.4566 75.2796 84.4098 75.3592 84.3792C75.4388 84.3486 75.5239 84.3349 75.6092 84.3388C75.7058 84.3331 75.8021 84.3533 75.8883 84.3973C75.9745 84.4413 76.0474 84.5076 76.0994 84.5892L75.9759 84.6739C75.9364 84.6168 75.8837 84.57 75.8224 84.5374C75.761 84.5049 75.6927 84.4876 75.6233 84.487C75.4932 84.487 75.3686 84.5386 75.2766 84.6305C75.1847 84.7225 75.133 84.8472 75.133 84.9772C75.133 85.1072 75.1847 85.2319 75.2766 85.3238C75.3686 85.4157 75.4932 85.4674 75.6233 85.4674C75.6923 85.4668 75.7603 85.45 75.8216 85.4181C75.8829 85.3862 75.9358 85.3402 75.9759 85.284L76.0994 85.3686C76.0464 85.4491 75.9733 85.5142 75.8872 85.5576C75.8012 85.6009 75.7053 85.6209 75.6092 85.6155C75.5239 85.6195 75.4388 85.6057 75.3592 85.5751C75.2796 85.5445 75.2072 85.4978 75.1465 85.4378C75.0859 85.3778 75.0384 85.3059 75.0069 85.2266C74.9754 85.1473 74.9607 85.0624 74.9638 84.9772Z" fill="#263238"/>
<path d="M77.1044 85.5273C77.0301 85.5882 76.9359 85.6196 76.8399 85.6155C76.7928 85.6186 76.7456 85.6116 76.7014 85.595C76.6572 85.5784 76.617 85.5525 76.5836 85.5191C76.5502 85.4857 76.5244 85.4456 76.5077 85.4014C76.4911 85.3572 76.4841 85.31 76.4873 85.2628V84.494H76.2651V84.3494H76.4837V84.0743H76.653V84.3494H77.0374V84.494H76.653V85.2417C76.6486 85.2719 76.6511 85.3027 76.6603 85.3318C76.6696 85.3609 76.6854 85.3875 76.7064 85.4096C76.7275 85.4317 76.7533 85.4487 76.782 85.4593C76.8106 85.4699 76.8413 85.4739 76.8717 85.4709C76.9394 85.472 77.0055 85.4496 77.0586 85.4074L77.1044 85.5273Z" fill="#263238"/>
<path d="M77.376 83.9544C77.376 83.9217 77.389 83.8903 77.4122 83.8671C77.4353 83.844 77.4667 83.831 77.4994 83.831C77.5322 83.831 77.5636 83.844 77.5867 83.8671C77.6099 83.8903 77.6229 83.9217 77.6229 83.9544C77.6229 83.9872 77.6099 84.0186 77.5867 84.0417C77.5636 84.0649 77.5322 84.0779 77.4994 84.0779C77.4667 84.0779 77.4353 84.0649 77.4122 84.0417C77.389 84.0186 77.376 83.9872 77.376 83.9544ZM77.4148 84.3494H77.5841V85.6049H77.4148V84.3494Z" fill="#263238"/>
<path d="M77.9261 84.9772C77.9261 84.8511 77.9635 84.7278 78.0335 84.6229C78.1035 84.518 78.2029 84.4362 78.3194 84.3878C78.4358 84.3394 78.564 84.3265 78.6877 84.3509C78.8114 84.3752 78.9252 84.4357 79.0146 84.5246C79.104 84.6135 79.1651 84.7269 79.1901 84.8505C79.2151 84.9741 79.203 85.1023 79.1552 85.219C79.1074 85.3357 79.0262 85.4357 78.9217 85.5062C78.8172 85.5768 78.6941 85.6148 78.568 85.6155C78.4832 85.6185 78.3987 85.604 78.3198 85.573C78.2408 85.542 78.169 85.4951 78.1089 85.4353C78.0487 85.3755 78.0015 85.304 77.9701 85.2252C77.9386 85.1464 77.9237 85.062 77.9261 84.9772ZM79.03 84.9772C79.0252 84.8862 78.9937 84.7986 78.9396 84.7253C78.8854 84.652 78.8109 84.5962 78.7253 84.5648C78.6398 84.5334 78.5469 84.5279 78.4582 84.5488C78.3695 84.5698 78.2889 84.6163 78.2263 84.6826C78.1638 84.7489 78.1222 84.8322 78.1065 84.9219C78.0909 85.0117 78.1019 85.1041 78.1383 85.1877C78.1747 85.2713 78.2348 85.3423 78.3112 85.392C78.3876 85.4418 78.4769 85.468 78.568 85.4674C78.6313 85.468 78.694 85.4556 78.7522 85.4308C78.8104 85.406 78.8629 85.3694 78.9063 85.3234C78.9497 85.2774 78.9831 85.2228 79.0044 85.1632C79.0256 85.1037 79.0344 85.0403 79.03 84.9772Z" fill="#263238"/>
<path d="M80.7158 84.8785V85.605H80.5465V84.8996C80.5535 84.8475 80.5488 84.7944 80.5326 84.7443C80.5164 84.6942 80.4892 84.6484 80.4531 84.6102C80.4169 84.572 80.3726 84.5423 80.3235 84.5235C80.2743 84.5046 80.2216 84.4969 80.1692 84.5011C80.1094 84.4966 80.0493 84.5054 79.9933 84.5267C79.9372 84.548 79.8865 84.5813 79.8448 84.6244C79.8031 84.6675 79.7713 84.7192 79.7518 84.7759C79.7323 84.8326 79.7255 84.8929 79.7318 84.9525V85.612H79.5626V84.3565H79.7248V84.5998C79.7756 84.5209 79.8465 84.4568 79.9301 84.4141C80.0137 84.3714 80.1071 84.3515 80.2009 84.3565C80.2704 84.3517 80.34 84.3619 80.4052 84.3866C80.4703 84.4112 80.5293 84.4496 80.5783 84.4992C80.6272 84.5488 80.6648 84.6083 80.6885 84.6738C80.7122 84.7392 80.7215 84.8091 80.7158 84.8785Z" fill="#263238"/>
<path d="M81.9995 84.0885V84.7444H82.86V84.8961H81.9995V85.6014H81.8232V83.9333H82.9658V84.0849L81.9995 84.0885Z" fill="#263238"/>
<path d="M83.2338 83.9544C83.2338 83.9217 83.2468 83.8903 83.27 83.8671C83.2931 83.844 83.3245 83.831 83.3573 83.831C83.39 83.831 83.4214 83.844 83.4445 83.8671C83.4677 83.8903 83.4807 83.9217 83.4807 83.9544C83.4807 83.9872 83.4677 84.0186 83.4445 84.0417C83.4214 84.0649 83.39 84.0779 83.3573 84.0779C83.3245 84.0779 83.2931 84.0649 83.27 84.0417C83.2468 84.0186 83.2338 83.9872 83.2338 83.9544ZM83.2691 84.3494H83.4384V85.6049H83.2691V84.3494Z" fill="#263238"/>
<path d="M85.0713 84.3494V85.4533C85.0845 85.5383 85.0775 85.6252 85.0508 85.707C85.0241 85.7888 84.9785 85.8631 84.9177 85.9239C84.8568 85.9847 84.7825 86.0303 84.7007 86.057C84.619 86.0837 84.532 86.0907 84.447 86.0775C84.2353 86.0867 84.0274 86.0191 83.8616 85.8871L83.9462 85.7566C84.085 85.8712 84.2601 85.9325 84.44 85.9294C84.7574 85.9294 84.902 85.7813 84.902 85.4744V85.3052C84.8487 85.3842 84.7758 85.4481 84.6906 85.4907C84.6053 85.5334 84.5105 85.5533 84.4153 85.5485C84.3315 85.5549 84.2473 85.5439 84.168 85.5162C84.0886 85.4885 84.0159 85.4448 83.9542 85.3876C83.8926 85.3305 83.8434 85.2613 83.8098 85.1843C83.7762 85.1073 83.7588 85.0242 83.7588 84.9401C83.7588 84.8561 83.7762 84.773 83.8098 84.696C83.8434 84.619 83.8926 84.5497 83.9542 84.4926C84.0159 84.4355 84.0886 84.3917 84.168 84.3641C84.2473 84.3364 84.3315 84.3254 84.4153 84.3318C84.5121 84.3279 84.6083 84.3489 84.6947 84.3927C84.7812 84.4366 84.8549 84.5018 84.909 84.5822V84.3424L85.0713 84.3494ZM84.909 84.9454C84.9118 84.8507 84.8863 84.7573 84.8357 84.6772C84.7852 84.5971 84.7118 84.5338 84.6251 84.4956C84.5384 84.4574 84.4423 84.446 84.349 84.4627C84.2557 84.4795 84.1696 84.5237 84.1016 84.5896C84.0336 84.6556 83.9868 84.7404 83.9673 84.8331C83.9477 84.9258 83.9563 85.0223 83.9919 85.1101C84.0275 85.1979 84.0884 85.2731 84.167 85.3261C84.2456 85.3791 84.3382 85.4074 84.4329 85.4074C84.4947 85.4113 84.5565 85.4024 84.6147 85.3812C84.6728 85.36 84.7259 85.327 84.7706 85.2842C84.8154 85.2415 84.8508 85.19 84.8746 85.1329C84.8984 85.0758 84.9101 85.0143 84.909 84.9525V84.9454Z" fill="#263238"/>
<path d="M86.6759 84.3495V85.605H86.5137V85.3757C86.4669 85.4526 86.4003 85.5154 86.3209 85.5576C86.2414 85.5998 86.1521 85.6198 86.0623 85.6155C85.9902 85.6223 85.9175 85.6129 85.8495 85.588C85.7816 85.5631 85.72 85.5234 85.6693 85.4717C85.6186 85.42 85.5801 85.3577 85.5566 85.2892C85.5331 85.2207 85.5251 85.1479 85.5333 85.076V84.3495H85.7026V85.0548C85.695 85.1072 85.6993 85.1607 85.7152 85.2112C85.7311 85.2617 85.7582 85.308 85.7944 85.3467C85.8307 85.3853 85.8752 85.4153 85.9246 85.4343C85.974 85.4534 86.0271 85.4611 86.0799 85.4568C86.1392 85.4598 86.1984 85.4498 86.2534 85.4276C86.3084 85.4053 86.358 85.3714 86.3986 85.3281C86.4392 85.2848 86.4698 85.2333 86.4885 85.1769C86.5072 85.1206 86.5134 85.0609 86.5066 85.0019V84.3424L86.6759 84.3495Z" fill="#263238"/>
<path d="M87.7691 84.3389V84.5046H87.7268C87.6668 84.502 87.607 84.5125 87.5516 84.5356C87.4961 84.5587 87.4464 84.5937 87.406 84.6381C87.3656 84.6826 87.3355 84.7353 87.3178 84.7927C87.3001 84.8501 87.2953 84.9107 87.3036 84.9701V85.6085H87.1343V84.353H87.2966V84.5998C87.3404 84.5142 87.4088 84.4437 87.493 84.3972C87.5772 84.3507 87.6733 84.3304 87.7691 84.3389Z" fill="#263238"/>
<path d="M89.1798 85.0301H88.1218C88.1254 85.0913 88.1411 85.1511 88.1679 85.2062C88.1946 85.2614 88.232 85.3106 88.2779 85.3513C88.3238 85.3919 88.3772 85.4231 88.4352 85.443C88.4931 85.4629 88.5544 85.4712 88.6156 85.4674C88.6878 85.4694 88.7597 85.4556 88.8261 85.4269C88.8925 85.3983 88.9518 85.3556 89 85.3016L89.0952 85.411C89.0052 85.5055 88.8893 85.5713 88.7621 85.6002C88.6348 85.6291 88.5018 85.6198 88.3798 85.5735C88.2578 85.5272 88.1522 85.4459 88.0762 85.3398C88.0002 85.2338 87.9572 85.1076 87.9526 84.9772C87.9482 84.8943 87.9609 84.8114 87.9899 84.7336C88.0189 84.6559 88.0635 84.5849 88.121 84.525C88.1785 84.4652 88.2477 84.4178 88.3243 84.3858C88.4009 84.3538 88.4832 84.3378 88.5662 84.3389C88.6491 84.3372 88.7313 84.3528 88.8078 84.3847C88.8843 84.4166 88.9533 84.4641 89.0103 84.5242C89.0674 84.5843 89.1114 84.6556 89.1393 84.7336C89.1673 84.8116 89.1787 84.8945 89.1728 84.9772C89.1728 84.9772 89.1798 85.0089 89.1798 85.0301ZM88.1218 84.9031H89.0106C89.0106 84.7853 88.9637 84.6723 88.8804 84.5889C88.7971 84.5056 88.6841 84.4588 88.5662 84.4588C88.4484 84.4588 88.3353 84.5056 88.252 84.5889C88.1687 84.6723 88.1218 84.7853 88.1218 84.9031Z" fill="#263238"/>
<path d="M75.2247 92.2951V93.0286H74.5723V92.3233C73.9894 92.3052 73.4234 92.123 72.9394 91.7978L73.2921 91.0008C73.6688 91.2639 74.1076 91.4243 74.5652 91.4663V90.373C73.8352 90.1931 73.0241 89.9533 73.0241 89.0152C73.0241 88.3099 73.5284 87.7245 74.5652 87.6045V86.8781H75.2177V87.5834C75.6865 87.61 76.1422 87.7478 76.5472 87.9854L76.2192 88.7895C75.9119 88.607 75.5715 88.4872 75.2177 88.4369V89.5513C75.9442 89.7206 76.7447 89.9639 76.7447 90.8879C76.7518 91.5827 76.2545 92.1716 75.2247 92.2951ZM74.5723 89.4032V88.4792C74.2196 88.5568 74.0856 88.7472 74.0856 88.9623C74.0856 89.1775 74.2831 89.3115 74.5723 89.4032ZM75.6973 90.9796C75.6973 90.7504 75.5069 90.6269 75.2247 90.5282V91.431C75.5527 91.3605 75.6973 91.1912 75.6973 90.9796Z" fill="#263238"/>
<path d="M80.6135 91.3781V92.2457H77.1503V91.558L78.9137 89.8863C79.3228 89.4984 79.3933 89.2657 79.3933 89.0399C79.3933 88.6873 79.1429 88.4722 78.6597 88.4722C78.4762 88.465 78.2936 88.5031 78.1282 88.583C77.9628 88.663 77.8195 88.7823 77.7111 88.9306L76.9387 88.4334C77.1475 88.1514 77.4231 87.9257 77.7408 87.7768C78.0585 87.6278 78.4082 87.5601 78.7585 87.5799C79.7812 87.5799 80.4619 88.1054 80.4619 88.9377C80.4619 89.382 80.3349 89.7876 79.6931 90.3836L78.6351 91.3781H80.6135Z" fill="#263238"/>
<path d="M81.0402 89.9534C81.0402 88.4404 81.8796 87.5799 83.0046 87.5799C84.1296 87.5799 84.969 88.4404 84.969 89.9534C84.969 91.4663 84.1367 92.3233 83.0046 92.3233C81.8725 92.3233 81.0402 91.4663 81.0402 89.9534ZM83.9039 89.9534C83.9039 88.8953 83.5512 88.4792 83.0046 88.4792C82.458 88.4792 82.1159 88.9095 82.1159 89.9534C82.1159 90.9973 82.4685 91.424 83.0046 91.424C83.5406 91.424 83.8898 90.9937 83.8898 89.9534H83.9039Z" fill="#263238"/>
<path d="M85.4874 89.9534C85.4874 88.4404 86.3268 87.5799 87.4518 87.5799C88.5768 87.5799 89.4162 88.4404 89.4162 89.9534C89.4162 91.4663 88.5839 92.3233 87.4518 92.3233C86.3197 92.3233 85.4874 91.4663 85.4874 89.9534ZM88.3476 89.9534C88.3476 88.8953 87.9949 88.4792 87.4518 88.4792C86.9087 88.4792 86.5595 88.9095 86.5595 89.9534C86.5595 90.9973 86.9122 91.424 87.4518 91.424C87.9914 91.424 88.3476 90.9937 88.3476 89.9534Z" fill="#263238"/>
<path d="M88.5274 103.919H73.9057C72.9987 103.918 72.1292 103.557 71.4878 102.916C70.8465 102.275 70.4858 101.405 70.4848 100.498C70.4848 99.5905 70.8451 98.7201 71.4866 98.078C72.128 97.4359 72.9981 97.0747 73.9057 97.0737H88.5274C88.9769 97.0737 89.4221 97.1623 89.8373 97.3345C90.2526 97.5066 90.6299 97.7589 90.9476 98.0769C91.2653 98.395 91.5172 98.7725 91.6889 99.1879C91.8606 99.6034 91.9487 100.049 91.9483 100.498C91.9483 101.405 91.5879 102.276 90.9463 102.917C90.3048 103.559 89.4347 103.919 88.5274 103.919Z" fill="#263238"/>
<path d="M76.5261 100.117C76.5261 100.548 76.2157 100.805 75.7044 100.805H75.1612V101.44H74.9496V99.4296H75.7044C76.2157 99.4437 76.5261 99.7011 76.5261 100.117ZM76.3109 100.117C76.3109 99.7963 76.0994 99.613 75.6973 99.613H75.1612V100.618H75.6973C76.0994 100.632 76.3109 100.449 76.3109 100.117Z" fill="white"/>
<path d="M78.0672 100.516V101.454H77.8733V101.218C77.8165 101.302 77.7381 101.37 77.6464 101.414C77.5546 101.458 77.4527 101.477 77.3513 101.468C76.9986 101.468 76.8011 101.292 76.8011 101.027C76.8011 100.763 76.9493 100.6 77.3831 100.6H77.8627V100.509C77.8627 100.251 77.7181 100.11 77.436 100.11C77.2523 100.107 77.0736 100.17 76.9316 100.287L76.8399 100.135C77.0154 99.9967 77.2338 99.9243 77.4571 99.9303C77.5378 99.9187 77.6201 99.9255 77.6977 99.9504C77.7754 99.9753 77.8463 100.018 77.9051 100.074C77.964 100.131 78.0092 100.2 78.0372 100.276C78.0653 100.353 78.0756 100.435 78.0672 100.516ZM77.8627 100.999V100.752H77.3901C77.0974 100.752 77.0022 100.868 77.0022 101.024C77.0022 101.179 77.1432 101.309 77.3831 101.309C77.4857 101.316 77.5878 101.289 77.6741 101.233C77.7605 101.177 77.8266 101.095 77.8627 100.999Z" fill="white"/>
<path d="M79.8623 99.9409L79.1076 101.634C78.9806 101.93 78.8219 102.025 78.6068 102.025C78.4728 102.025 78.344 101.973 78.2471 101.881L78.3423 101.729C78.3778 101.766 78.4205 101.796 78.4678 101.816C78.5151 101.836 78.566 101.846 78.6174 101.845C78.7549 101.845 78.8466 101.782 78.9312 101.591L78.9983 101.443L78.3211 99.9339H78.5363L79.1041 101.221L79.6577 99.9409H79.8623Z" fill="white"/>
<path d="M81.5869 101.468V101.8H81.4423V101.472C81.1892 101.47 80.9452 101.377 80.7546 101.211L80.8392 101.045C81.0059 101.193 81.2191 101.279 81.4423 101.288V100.533C81.1249 100.456 80.804 100.357 80.804 99.9762C80.804 99.7012 81.0014 99.4613 81.4423 99.4296V99.0981H81.5869V99.412C81.7935 99.4155 81.995 99.4765 82.1688 99.5883L82.0982 99.7576C81.944 99.6612 81.7684 99.6042 81.5869 99.5918V100.354C81.9113 100.431 82.2534 100.523 82.2534 100.907C82.2534 101.2 82.0418 101.443 81.5869 101.468ZM81.4423 100.332V99.6271C81.146 99.6518 81.012 99.8034 81.012 99.9798C81.012 100.156 81.206 100.269 81.4423 100.332ZM82.0418 100.935C82.0418 100.706 81.8337 100.629 81.5869 100.583V101.288C81.9008 101.263 82.0418 101.119 82.0418 100.935Z" fill="white"/>
<path d="M83.911 101.271V101.454H82.5003V101.309L83.3361 100.488C83.5618 100.265 83.6042 100.135 83.6042 99.9904C83.6042 99.7576 83.4419 99.6165 83.1351 99.6165C83.0328 99.6114 82.9305 99.6286 82.8355 99.667C82.7405 99.7053 82.655 99.7639 82.5849 99.8387L82.4368 99.7118C82.527 99.6162 82.6366 99.5413 82.7583 99.492C82.8801 99.4427 83.011 99.4202 83.1422 99.4261C83.5477 99.4261 83.8087 99.6342 83.8087 99.9692C83.8036 100.092 83.7713 100.212 83.7139 100.321C83.6566 100.429 83.5757 100.524 83.4772 100.597L82.793 101.271H83.911Z" fill="white"/>
<path d="M84.1578 100.449C84.1578 99.8069 84.4929 99.426 84.9584 99.426C85.4239 99.426 85.7625 99.8069 85.7625 100.449C85.7625 101.091 85.4098 101.472 84.9584 101.472C84.507 101.472 84.1578 101.091 84.1578 100.449ZM85.5509 100.449C85.5509 99.9127 85.3111 99.6165 84.9584 99.6165C84.6057 99.6165 84.3659 99.9127 84.3659 100.449C84.3659 100.985 84.6092 101.281 84.9584 101.281C85.3075 101.281 85.5509 100.985 85.5509 100.449Z" fill="white"/>
<path d="M86.0587 100.449C86.0587 99.8069 86.4114 99.426 86.8628 99.426C87.3142 99.426 87.6669 99.8069 87.6669 100.449C87.6669 101.091 87.3142 101.472 86.8628 101.472C86.4114 101.472 86.0587 101.091 86.0587 100.449ZM87.4694 100.449C87.4694 99.9127 87.2296 99.6165 86.8804 99.6165C86.5313 99.6165 86.2879 99.9127 86.2879 100.449C86.2879 100.985 86.5278 101.281 86.8804 101.281C87.2331 101.281 87.4518 100.985 87.4518 100.449H87.4694Z" fill="white"/>
<path d="M59.0936 93.1486C59.6226 101.278 55.8561 110.331 55.8561 110.331L35.5106 104.603L31.9628 103.602C35.4895 98.7031 37.1682 89.0541 36.2477 81.246C36.1772 80.657 36.1348 80.1033 36.1031 79.5743C35.7504 73.1346 38.4272 71.2513 40.6878 68.4053C43.1565 65.323 48.6511 53.6849 48.6511 50.9305C48.6511 48.1762 55.5458 41.4331 54.0116 33.7802C54.0116 33.7802 56.0959 32.4859 58.1908 33.5475C59.143 34.0271 60.0917 34.9899 60.857 36.7744C62.652 40.9676 60.1305 52.8208 57.9862 55.7268L53.8565 72.8242C53.8565 72.8242 55.2495 75.2259 56.6179 79.5849C57.9781 83.9919 58.8092 88.5452 59.0936 93.1486Z" fill="white"/>
<path opacity="0.4" d="M36.1031 79.5743C37.2564 82.7307 38.4801 84.8643 38.3743 89.2868C38.2685 93.7093 35.9056 100.516 36.5792 104.053C36.1944 104.167 35.8352 104.353 35.5212 104.603L31.9734 103.602C35.5001 98.7031 37.1788 89.054 36.2583 81.2459C36.1772 80.657 36.1349 80.1033 36.1031 79.5743Z" fill="#92E3A9"/>
<path opacity="0.4" d="M57.9862 55.7268L53.8565 72.8242C53.8565 72.8242 55.2495 75.2259 56.6179 79.5849C53.8212 75.0778 51.4442 73.7306 51.4442 73.7306C53.3063 71.4982 54.7417 55.1696 54.7417 55.1696C54.7417 55.1696 60.5783 48.3102 60.0317 41.1333C59.8563 38.518 59.2336 35.9522 58.1908 33.5474C59.143 34.0271 60.0917 34.9898 60.857 36.7743C62.652 40.9676 60.1305 52.8208 57.9862 55.7268Z" fill="#92E3A9"/>
<path d="M31.9628 103.602C35.4895 98.7031 37.1682 89.054 36.2512 81.246C35.3343 73.4379 38.2403 71.4841 40.6913 68.4017C43.1424 65.3194 48.6511 53.6849 48.6511 50.927C48.6511 48.1691 55.5422 41.4367 54.0116 33.7802C54.0116 33.7802 58.4094 31.0541 60.857 36.7744C62.652 40.9711 60.1305 52.8208 57.9862 55.7303L53.86 72.8242C53.86 72.8242 58.2648 80.4242 59.0936 93.1485C59.6226 101.278 55.8561 110.334 55.8561 110.334" stroke="#263238" stroke-linecap="round" stroke-linejoin="round"/>
<path d="M45.5617 116.837C45.5617 116.837 50.1923 119.687 52.8937 124.194" stroke="#263238" stroke-linecap="round" stroke-linejoin="round"/>
<path d="M58.5681 122.23C58.5681 122.23 54.5794 122.797 50.9752 118.484C48.6652 115.723 41.6506 114.474 40.0424 107.252" stroke="#263238" stroke-linecap="round" stroke-linejoin="round"/>
<path opacity="0.2" d="M116.54 143.587C106.33 138.703 112.512 134.788 98.4657 128.726C84.4189 122.663 84.2778 117.483 85.9706 105.57C87.6634 93.6564 86.3233 80.985 90.4072 79.9093C94.4911 78.8337 87.212 62.4028 91.973 56.5944L115.404 102.173L116.54 143.587Z" fill="black" fill-opacity="0.7"/>
<path d="M154.582 143.111C154.103 141.739 153.616 140.24 153.239 138.879C152.752 137.116 152.371 135.705 151.475 134.065C151.334 133.804 151.183 133.529 151.013 133.233C150.058 131.53 148.749 129.198 147.984 126.335C147.469 124.406 147.984 119.655 148.464 115.049C148.816 111.741 149.137 108.62 149.042 106.85L149.014 106.222C148.774 101.591 148.273 91.9565 147.25 89.2938C146.245 86.7264 145.307 86.342 143.597 85.6578C143.42 85.5802 143.244 85.5097 143.039 85.4251C142.398 85.157 141.304 84.5928 140.045 83.9403C137.206 82.4697 133.673 80.6394 131.878 80.4136C130.198 80.2249 128.5 80.3035 126.845 80.6464C124.634 78.9501 120.871 76.767 119.749 76.7212C118.832 76.6754 116.829 77.2502 115.87 77.55L115.387 77.7051C114.779 77.234 114.135 76.8118 113.461 76.4426C113.415 76.4179 113.369 76.4003 113.331 76.3826C112.086 75.8713 110.206 75.8536 109.18 75.8818C108.869 75.8818 108.626 75.9136 108.517 75.9242C106.581 72.9441 104.676 69.9782 103.847 68.6768C102.119 65.9401 96.7693 54.6794 96.7164 54.57C96.7102 54.5555 96.7006 54.5428 96.6882 54.5329C96.6759 54.5231 96.6614 54.5164 96.6459 54.5136C96.6295 54.5113 96.6129 54.5113 96.5965 54.5136C96.1803 54.3937 93.1156 53.6143 91.8848 56.5838C90.5376 59.8178 92.4597 66.917 94.3359 69.495C95.2387 70.7364 97.7039 75.8007 100.204 81.0414C99.5624 81.6374 94.4276 86.3808 91.9342 87.266C89.8922 87.989 90.3719 98.4562 90.7563 106.86C90.9009 109.964 91.0208 112.634 90.9855 114.238C90.915 117.342 96.5612 121.616 102.035 125.749C106.972 129.495 112.093 133.363 112.692 136.174C112.858 136.964 113.331 137.606 113.895 138.329C114.837 139.528 116.05 140.942 116.565 143.619C116.716 144.423 118.007 145.474 119.033 147.192H156.078C155.767 146.356 155.182 144.832 154.582 143.111ZM103.209 87.3542C105.004 91.1136 106.115 93.3495 106.383 93.5999C106.651 93.8503 106.633 95.0424 106.626 96.2026C106.588 97.2184 106.623 98.2356 106.732 99.2462C106.295 99.6306 103.533 102.145 102.976 104.184L100.631 101.422L100.039 92.7571C100.391 92.3832 102.803 89.8334 103.209 87.3542Z" fill="white"/>
<path opacity="0.4" d="M143.953 111.512C144.824 119.641 144.835 124.049 145.812 126.402C147.462 130.373 149.892 131.177 149.892 131.177C149.084 129.638 148.442 128.017 147.977 126.342C147.466 124.413 147.977 119.662 148.457 115.056C148.809 111.748 149.134 108.624 149.042 106.853L149.01 106.225C148.77 101.598 148.27 91.9635 147.247 89.2973C146.245 86.7299 145.304 86.3455 143.593 85.6578C143.417 85.5837 143.241 85.5132 143.036 85.4286C142.394 85.1605 141.304 84.5963 140.042 83.9438C137.203 82.4732 133.669 80.6428 131.874 80.4171C130.195 80.2263 128.496 80.3048 126.841 80.6499C124.63 78.9535 120.867 76.7705 119.746 76.7247C118.829 76.6788 116.342 77.4018 115.376 77.7086C119.608 81.1613 125.702 85.4673 125.702 85.4673C130.523 86.4266 129.906 88.5179 131.856 89.6994C133.62 90.7574 135.306 87.661 136.794 87.3894C138.741 87.0367 140.952 89.0893 140.853 91.5791C140.55 98.4385 143.205 104.533 143.953 111.512Z" fill="#92E3A9"/>
<path opacity="0.4" d="M119.584 86.3208C119.584 86.3208 115.764 83.1468 113.941 82.0888C112.118 81.0308 111.825 77.3842 113.264 76.499C113.318 76.4662 113.38 76.4469 113.444 76.4426L113.313 76.3826C112.068 75.8713 110.188 75.8501 109.162 75.8818C111.278 79.8212 112.967 82.8435 113.422 83.5065C114.956 85.7213 119.584 86.3208 119.584 86.3208Z" fill="#92E3A9"/>
<path opacity="0.4" d="M113.789 135.68C113.951 134.838 112.562 132.369 111.952 131.367C110.566 129.082 94.4734 114.862 96.8046 111.068C99.1357 107.273 101.266 110.08 102.74 110.327C103.798 110.503 106.704 108.772 106.69 108.627C106.358 105.704 109.056 103.803 109.056 103.803C109.056 103.803 108.809 92.1646 108.189 92.3621C107.568 92.5596 100.141 74.8873 100.141 74.8873C100.141 74.8873 92.2904 64.4483 92.7348 59.5779C93.1791 54.7076 96.5859 54.6229 96.5859 54.6229V54.4924C96.1698 54.3725 93.1051 53.5931 91.8743 56.5626C90.5271 59.7966 92.4491 66.8958 94.3253 69.4738C95.2281 70.7152 97.6933 75.7796 100.194 81.0202C99.5519 81.6162 94.417 86.3596 91.9236 87.2448C89.8817 87.9678 90.3613 98.435 90.7457 106.839C90.8903 109.943 91.0102 112.612 90.975 114.217C90.9044 117.32 96.5507 121.595 102.024 125.728C106.961 129.473 112.082 133.342 112.682 136.153C112.848 136.943 113.32 137.585 113.884 138.308C113.772 137.437 113.74 136.557 113.789 135.68ZM103.209 87.3647C105.004 91.1242 106.115 93.3601 106.383 93.6105C106.651 93.8609 106.633 95.0529 106.626 96.2132C106.588 97.2289 106.623 98.2461 106.732 99.2567C106.295 99.6412 103.534 102.156 102.976 104.194L100.631 101.433L100.039 92.7676C100.391 92.3832 102.803 89.8334 103.209 87.3542V87.3647Z" fill="#92E3A9"/>
<path d="M117.393 86.275C115.817 85.7791 114.433 84.8085 113.429 83.4959C111.818 81.3376 105.487 71.5052 103.735 68.7332C101.982 65.9612 96.586 54.6229 96.586 54.6229C96.586 54.6229 93.2709 53.512 91.9801 56.6084C90.6893 59.7049 92.4562 66.7018 94.4206 69.3962C96.3849 72.0906 105.72 92.8381 106.461 93.5082C107.201 94.1783 106.09 99.7152 107.575 101.055" stroke="#263238" stroke-linecap="round" stroke-linejoin="round"/>
<path d="M106.863 99.2956C106.863 99.2956 103.442 102.276 103.04 104.452L100.501 101.464L99.901 92.7112C99.901 92.7112 102.966 89.643 103.135 86.9133" stroke="#263238" stroke-linecap="round" stroke-linejoin="round"/>
<path d="M100.335 81.0308C100.335 81.0308 94.6533 86.3914 91.9519 87.3471C89.2504 88.3029 91.2218 108.387 91.0878 114.203C90.9538 120.018 111.525 130.151 112.788 136.104C113.288 138.474 115.362 138.957 116.628 143.51" stroke="#263238" stroke-linecap="round" stroke-linejoin="round"/>
<path d="M108.422 76.0405C108.422 76.0405 111.514 75.7619 113.257 76.4884C114.999 77.2149 122.073 83.2914 123.78 84.4517C125.487 85.612 128.055 86.0528 128.541 87.3048" stroke="#263238" stroke-linecap="round" stroke-linejoin="round"/>
<path d="M115.337 77.8321C115.337 77.8321 118.511 76.774 119.725 76.834C120.938 76.894 125.501 79.5848 127.547 81.3834C129.114 82.774 130.919 83.8707 132.876 84.6209" stroke="#263238" stroke-linecap="round" stroke-linejoin="round"/>
<path d="M126.803 80.7733C128.459 80.4167 130.163 80.3345 131.846 80.53C134.427 80.8826 140.909 84.6915 142.976 85.552C145.043 86.4125 146.03 86.5712 147.116 89.3502C148.203 92.1293 148.7 102.695 148.919 106.871C149.137 111.046 146.961 123.005 147.861 126.37C148.76 129.734 150.382 132.33 151.366 134.129" stroke="#263238" stroke-linecap="round" stroke-linejoin="round"/>
<path d="M99.901 92.7112C99.901 92.7112 99.4073 90.648 98.7019 90.3835" stroke="#263238" stroke-linecap="round" stroke-linejoin="round"/>
<path d="M100.501 101.464C100.738 102.667 101.06 103.851 101.463 105.009C101.971 106.261 101.181 108.073 101.181 108.073" stroke="#263238" stroke-linecap="round" stroke-linejoin="round"/>
<path d="M103.04 104.452C102.959 106.455 104.951 108.796 105.434 108.465" stroke="#263238" stroke-linecap="round" stroke-linejoin="round"/>
<path d="M113.186 92.7112C113.186 92.7112 115.327 89.248 117.379 89.0787C119.432 88.9094 121.802 91.8224 123.068 91.5474C124.334 91.2723 125.928 89.4102 128.058 89.0787C130.188 88.7472 131.186 89.7629 132.876 89.8475C134.565 89.9321 134.738 87.6751 136.755 87.3788C138.772 87.0826 139.46 88.0841 140.814 88.3451C142.168 88.6061 142.507 87.5375 143.604 86.9344" stroke="#263238" stroke-linecap="round" stroke-linejoin="round"/>
</svg>
