<svg width="159" height="160" viewBox="0 0 159 160" fill="none" xmlns="http://www.w3.org/2000/svg">
<path d="M133.316 119.117C130.061 120.723 126.301 120.971 122.864 119.805C119.426 118.64 116.592 116.156 114.985 112.902C114.668 112.255 114.401 111.585 114.187 110.897C114.187 110.897 114.187 110.897 114.187 110.879C113.227 107.77 113.407 104.42 114.693 101.432C115.98 98.443 118.29 96.0106 121.208 94.571L127.262 106.844L134.064 94.9613C136.221 96.192 138.002 97.9862 139.217 100.152C140.432 102.317 141.034 104.772 140.961 107.254C140.887 109.736 140.14 112.151 138.799 114.241C137.458 116.33 135.574 118.016 133.348 119.117H133.316Z" stroke="#263238" stroke-linecap="round" stroke-linejoin="round"/>
<path d="M121.365 88.2591C123.375 87.2677 125.597 86.7848 127.837 86.8528C130.077 86.9209 132.265 87.5378 134.211 88.6494L127.409 100.528L121.365 88.2591Z" stroke="#263238" stroke-linecap="round" stroke-linejoin="round"/>
<path d="M121.365 88.2592V91.2307L127.419 103.5L134.211 91.6209V88.6494L127.419 100.532L121.365 88.2592Z" stroke="#263238" stroke-linecap="round" stroke-linejoin="round"/>
<path d="M46.0204 81.2778H8.87247C7.96568 81.2778 7.09602 81.638 6.45482 82.2792C5.81362 82.9204 5.4534 83.79 5.4534 84.6968V98.7347C5.4534 99.6419 5.81351 100.512 6.4546 101.154C7.0957 101.795 7.96535 102.156 8.87247 102.157H46.0204C46.9282 102.157 47.7988 101.797 48.4406 101.155C49.0825 100.513 49.4431 99.6425 49.4431 98.7347V84.6968C49.4421 83.7897 49.0811 82.9201 48.4394 82.279C47.7976 81.6379 46.9276 81.2778 46.0204 81.2778ZM23.8233 99.2718C23.8233 99.3594 23.7887 99.4436 23.7271 99.5059C23.6654 99.5683 23.5816 99.6038 23.4939 99.6047H20.3899C20.3462 99.6047 20.3029 99.5961 20.2625 99.5794C20.2221 99.5626 20.1854 99.5381 20.1545 99.5072C20.1236 99.4763 20.099 99.4396 20.0823 99.3992C20.0656 99.3588 20.057 99.3155 20.057 99.2718V92.047C20.0579 91.9593 20.0934 91.8755 20.1557 91.8138C20.2181 91.7522 20.3022 91.7176 20.3899 91.7176H23.4796C23.567 91.7176 23.6507 91.7523 23.7125 91.814C23.7743 91.8758 23.809 91.9596 23.809 92.047L23.8233 99.2718ZM29.992 99.6047H26.9023C26.814 99.6047 26.7293 99.5696 26.6668 99.5072C26.6044 99.4448 26.5693 99.3601 26.5693 99.2718V89.5552C26.5703 89.4675 26.6057 89.3837 26.6681 89.322C26.7304 89.2604 26.8146 89.2258 26.9023 89.2258H29.992C30.0352 89.2258 30.0781 89.2343 30.118 89.2508C30.158 89.2674 30.1943 89.2917 30.2249 89.3222C30.2555 89.3528 30.2797 89.3891 30.2963 89.4291C30.3128 89.4691 30.3213 89.5119 30.3213 89.5552V99.2718C30.3214 99.3164 30.3124 99.3606 30.295 99.4017C30.2776 99.4428 30.2521 99.48 30.2201 99.5111C30.188 99.5421 30.15 99.5664 30.1084 99.5825C30.0667 99.5986 30.0223 99.6062 29.9776 99.6047H29.992ZM36.4363 99.2718C36.4363 99.3594 36.4017 99.4436 36.34 99.5059C36.2784 99.5683 36.1946 99.6038 36.1069 99.6047H33.0136C32.926 99.6038 32.8422 99.5683 32.7805 99.5059C32.7188 99.4436 32.6843 99.3594 32.6843 99.2718V98.1082C32.6843 98.0208 32.719 97.9371 32.7807 97.8753C32.8425 97.8135 32.9263 97.7788 33.0136 97.7788H36.1069C36.1943 97.7788 36.2781 97.8135 36.3398 97.8753C36.4016 97.9371 36.4363 98.0208 36.4363 98.1082V99.2718ZM42.5477 99.2718C42.5477 99.3594 42.5131 99.4436 42.4514 99.5059C42.3897 99.5683 42.306 99.6038 42.2183 99.6047H39.1143C39.026 99.6047 38.9413 99.5696 38.8788 99.5072C38.8164 99.4448 38.7813 99.3601 38.7813 99.2718V88.6243L35.6415 96.268C35.6175 96.3243 35.5785 96.373 35.5287 96.4086C35.4789 96.4442 35.4203 96.4653 35.3592 96.4698C35.2982 96.4742 35.2371 96.4617 35.1827 96.4337C35.1283 96.4057 35.0826 96.3632 35.0508 96.311L29.48 86.9488C29.4574 86.9102 29.427 86.8767 29.3909 86.8503C29.3547 86.8239 29.3135 86.8053 29.2699 86.7956C29.2262 86.7858 29.181 86.7852 29.1371 86.7937C29.0932 86.8022 29.0515 86.8196 29.0146 86.8449L23.5047 90.5612C23.4514 90.5957 23.3892 90.6141 23.3257 90.6141C23.2621 90.6141 23.2 90.5957 23.1467 90.5612L17.1928 87.2817V99.2753C17.1928 99.363 17.1582 99.4472 17.0966 99.5095C17.0349 99.5719 16.9511 99.6074 16.8634 99.6083H13.7809C13.7372 99.6083 13.6939 99.5997 13.6535 99.583C13.6131 99.5662 13.5764 99.5417 13.5455 99.5108C13.5145 99.4799 13.49 99.4432 13.4733 99.4028C13.4566 99.3624 13.4479 99.3191 13.4479 99.2753V84.4534C13.4489 84.3657 13.4844 84.2819 13.5467 84.2203C13.6091 84.1586 13.6932 84.124 13.7809 84.124H16.8706C16.958 84.124 17.0417 84.1587 17.1035 84.2205C17.1653 84.2823 17.2 84.366 17.2 84.4534V86.4798L23.1252 89.7413C23.1785 89.7758 23.2407 89.7942 23.3042 89.7942C23.3677 89.7942 23.4299 89.7758 23.4832 89.7413L29.2115 85.889C29.2487 85.8637 29.2906 85.8462 29.3348 85.8376C29.379 85.8291 29.4245 85.8297 29.4685 85.8394C29.5124 85.8492 29.5539 85.8678 29.5904 85.8942C29.6268 85.9206 29.6575 85.9542 29.6805 85.9929L34.9613 94.8252C34.9931 94.8774 35.0388 94.9199 35.0932 94.9479C35.1476 94.976 35.2087 94.9884 35.2697 94.984C35.3308 94.9796 35.3894 94.9584 35.4392 94.9228C35.489 94.8872 35.528 94.8385 35.552 94.7822L38.7956 86.8843V84.4498C38.7966 84.3621 38.8321 84.2784 38.8944 84.2167C38.9568 84.155 39.0409 84.1204 39.1286 84.1204H39.9341L40.2921 83.2862C40.3088 83.2463 40.3332 83.21 40.364 83.1795C40.3947 83.1489 40.4311 83.1247 40.4712 83.1083C40.5112 83.0918 40.5541 83.0834 40.5974 83.0836C40.6407 83.0837 40.6836 83.0923 40.7236 83.109C40.7635 83.1257 40.7998 83.1501 40.8303 83.1808C40.8609 83.2115 40.8851 83.248 40.9015 83.288C40.918 83.3281 40.9264 83.371 40.9263 83.4143C40.9261 83.4576 40.9175 83.5005 40.9008 83.5404L40.6645 84.1204H42.2326C42.32 84.1204 42.4037 84.1551 42.4655 84.2169C42.5273 84.2787 42.562 84.3625 42.562 84.4498L42.5477 99.2718Z" stroke="#263238" stroke-linecap="round" stroke-linejoin="round"/>
<path d="M23.4796 91.7176H20.3864C20.2044 91.7176 20.057 91.8651 20.057 92.047V99.2753C20.057 99.4573 20.2044 99.6047 20.3864 99.6047H23.4796C23.6615 99.6047 23.809 99.4573 23.809 99.2753V92.047C23.809 91.8651 23.6615 91.7176 23.4796 91.7176Z" stroke="#263238" stroke-linecap="round" stroke-linejoin="round"/>
<path d="M29.9776 89.2258H26.8844C26.7025 89.2258 26.555 89.3733 26.555 89.5552V99.2754C26.555 99.4573 26.7025 99.6048 26.8844 99.6048H29.9776C30.1596 99.6048 30.307 99.4573 30.307 99.2754V89.5552C30.307 89.3733 30.1596 89.2258 29.9776 89.2258Z" stroke="#263238" stroke-linecap="round" stroke-linejoin="round"/>
<path d="M36.0926 97.7789H32.9993C32.8174 97.7789 32.67 97.9263 32.67 98.1082V99.2754C32.67 99.4573 32.8174 99.6048 32.9993 99.6048H36.0926C36.2745 99.6048 36.422 99.4573 36.422 99.2754V98.1082C36.422 97.9263 36.2745 97.7789 36.0926 97.7789Z" stroke="#263238" stroke-linecap="round" stroke-linejoin="round"/>
<path d="M13.5768 84.9332V84.8938C13.5962 84.8526 13.6237 84.8158 13.6579 84.7856C13.692 84.7555 13.7319 84.7327 13.7752 84.7186C13.8185 84.7045 13.8642 84.6994 13.9095 84.7037C13.9548 84.708 13.9988 84.7215 14.0387 84.7434L17.1857 86.4762V84.4499C17.1857 84.4066 17.1771 84.3638 17.1606 84.3238C17.144 84.2839 17.1198 84.2475 17.0892 84.2169C17.0586 84.1864 17.0223 84.1621 16.9823 84.1455C16.9424 84.129 16.8995 84.1205 16.8563 84.1205H13.7809C13.6932 84.1205 13.6091 84.1551 13.5467 84.2167C13.4844 84.2784 13.4489 84.3622 13.448 84.4499V99.2718C13.448 99.3155 13.4566 99.3588 13.4733 99.3992C13.49 99.4396 13.5146 99.4763 13.5455 99.5072C13.5764 99.5382 13.6131 99.5627 13.6535 99.5794C13.6939 99.5962 13.7372 99.6048 13.7809 99.6048H16.8706C16.9583 99.6038 17.0421 99.5683 17.1037 99.506C17.1654 99.4436 17.2 99.3595 17.2 99.2718V87.2782L13.7165 85.3592C13.6437 85.319 13.5889 85.2526 13.563 85.1736C13.5371 85.0946 13.542 85.0087 13.5768 84.9332Z" stroke="#263238" stroke-linecap="round" stroke-linejoin="round"/>
<path d="M42.204 84.1169H40.6359L38.7813 88.6207V99.2682C38.7813 99.3565 38.8164 99.4412 38.8789 99.5036C38.9413 99.5661 39.026 99.6012 39.1143 99.6012H42.204C42.2917 99.6002 42.3754 99.5647 42.4371 99.5024C42.4988 99.44 42.5334 99.3559 42.5334 99.2682V84.4463C42.5334 84.3589 42.4987 84.2751 42.4369 84.2134C42.3751 84.1516 42.2913 84.1169 42.204 84.1169Z" stroke="#263238" stroke-linecap="round" stroke-linejoin="round"/>
<path d="M39.1143 84.1169C39.0266 84.1169 38.9424 84.1515 38.8801 84.2131C38.8178 84.2748 38.7823 84.3586 38.7813 84.4463V86.8808L39.9198 84.1169H39.1143Z" stroke="#263238" stroke-linecap="round" stroke-linejoin="round"/>
<path d="M29.9776 89.2258H26.8844C26.7025 89.2258 26.555 89.3733 26.555 89.5552V99.2754C26.555 99.4573 26.7025 99.6048 26.8844 99.6048H29.9776C30.1596 99.6048 30.307 99.4573 30.307 99.2754V89.5552C30.307 89.3733 30.1596 89.2258 29.9776 89.2258Z" stroke="#263238" stroke-linecap="round" stroke-linejoin="round"/>
<path d="M23.4796 91.7176H20.3864C20.2044 91.7176 20.057 91.8651 20.057 92.047V99.2753C20.057 99.4573 20.2044 99.6047 20.3864 99.6047H23.4796C23.6615 99.6047 23.809 99.4573 23.809 99.2753V92.047C23.809 91.8651 23.6615 91.7176 23.4796 91.7176Z" stroke="#263238" stroke-linecap="round" stroke-linejoin="round"/>
<path d="M36.0926 97.7789H32.9993C32.8174 97.7789 32.67 97.9263 32.67 98.1082V99.2754C32.67 99.4573 32.8174 99.6048 32.9993 99.6048H36.0926C36.2745 99.6048 36.422 99.4573 36.422 99.2754V98.1082C36.422 97.9263 36.2745 97.7789 36.0926 97.7789Z" stroke="#263238" stroke-linecap="round" stroke-linejoin="round"/>
<path d="M103.439 94.1414L97.8257 99.7623C101.057 103.55 103.009 108.261 103.404 113.224H111.337C110.921 106.157 108.139 99.4357 103.439 94.1414Z" fill="#92E3A9"/>
<path opacity="0.2" d="M103.439 94.1414L97.8257 99.7623C101.057 103.55 103.009 108.261 103.404 113.224H111.337C110.921 106.157 108.139 99.4357 103.439 94.1414Z" fill="white"/>
<path d="M61.6587 130.512C58.0097 126.221 56.0061 120.771 56.0061 115.137C56.0061 109.504 58.0097 104.054 61.6587 99.7623L56.0485 94.1414C50.921 99.9307 48.09 107.397 48.09 115.13C48.09 122.864 50.921 130.33 56.0485 136.119L61.6587 130.512Z" fill="#92E3A9"/>
<g opacity="0.4">
<path d="M61.6587 130.512C58.0097 126.221 56.0061 120.771 56.0061 115.137C56.0061 109.504 58.0097 104.054 61.6587 99.7623L56.0485 94.1414C50.921 99.9307 48.09 107.397 48.09 115.13C48.09 122.864 50.921 130.33 56.0485 136.119L61.6587 130.512Z" fill="white"/>
</g>
<path d="M64.3653 97.0521C68.6581 93.4035 74.1083 91.4003 79.7422 91.4003C85.376 91.4003 90.8263 93.4035 95.1191 97.0521L100.729 91.4419C94.9407 86.3156 87.4761 83.4854 79.744 83.4854C72.0119 83.4854 64.5472 86.3156 58.7587 91.4419L64.3653 97.0521Z" fill="#92E3A9"/>
<path opacity="0.2" d="M64.3653 97.0521C68.6581 93.4035 74.1083 91.4003 79.7422 91.4003C85.376 91.4003 90.8263 93.4035 95.1191 97.0521L100.729 91.4419C94.9407 86.3156 87.4761 83.4854 79.744 83.4854C72.0119 83.4854 64.5472 86.3156 58.7587 91.4419L64.3653 97.0521Z" fill="black"/>
<path d="M111.337 117.055H103.404C103.053 121.408 101.507 125.581 98.9364 129.113C96.3659 132.644 92.8705 135.398 88.8353 137.07C84.8 138.742 80.3815 139.268 76.0665 138.59C71.7514 137.912 67.7073 136.056 64.3796 133.226L58.7659 138.836C63.2081 142.77 68.6665 145.375 74.5182 146.355C80.3699 147.335 86.3793 146.651 91.8607 144.38C97.3421 142.109 102.075 138.342 105.518 133.511C108.962 128.679 110.979 122.977 111.337 117.055Z" fill="#92E3A9"/>
<path d="M128.891 76.8562H37.1094C36.1276 76.8562 35.186 76.4662 34.4917 75.772C33.7975 75.0777 33.4075 74.1361 33.4075 73.1543V13.6231C33.4075 13.1371 33.5032 12.6559 33.6893 12.207C33.8754 11.758 34.1482 11.3502 34.492 11.0067C34.8358 10.6632 35.2439 10.3909 35.693 10.2052C36.1421 10.0196 36.6234 9.92427 37.1094 9.92475H128.891C129.377 9.92427 129.858 10.0196 130.307 10.2052C130.756 10.3909 131.165 10.6632 131.508 11.0067C131.852 11.3502 132.125 11.758 132.311 12.207C132.497 12.6559 132.593 13.1371 132.593 13.6231V73.1543C132.593 74.1361 132.203 75.0777 131.509 75.772C130.814 76.4662 129.873 76.8562 128.891 76.8562Z" fill="#263238"/>
<path d="M128.891 74.7153H37.1094C36.1276 74.7153 35.186 74.3253 34.4917 73.6311C33.7975 72.9368 33.4075 71.9952 33.4075 71.0134V11.4821C33.4084 10.501 33.7989 9.56028 34.493 8.86681C35.1871 8.17334 36.1282 7.78381 37.1094 7.78381H128.891C129.872 7.78381 130.813 8.17334 131.507 8.86681C132.201 9.56028 132.592 10.501 132.593 11.4821V71.0134C132.593 71.9952 132.203 72.9368 131.509 73.6311C130.814 74.3253 129.873 74.7153 128.891 74.7153Z" fill="#92E3A9"/>
<path d="M132.743 13.4334V11.2852C132.743 10.7993 132.647 10.3181 132.461 9.86913C132.275 9.42019 132.003 9.01233 131.659 8.66886C131.315 8.3254 130.907 8.05305 130.458 7.86741C130.009 7.68176 129.527 7.58645 129.041 7.58692H37.249C36.763 7.58645 36.2817 7.68176 35.8326 7.86741C35.3835 8.05305 34.9754 8.3254 34.6316 8.66886C34.2878 9.01233 34.015 9.42019 33.829 9.86913C33.6429 10.3181 33.5471 10.7993 33.5471 11.2852V70.8237V72.9718C33.5471 73.9536 33.9371 74.8952 34.6314 75.5894C35.3256 76.2837 36.2672 76.6737 37.249 76.6737H129.041C130.023 76.6737 130.965 76.2837 131.659 75.5894C132.353 74.8952 132.743 73.9536 132.743 72.9718V13.4334Z" stroke="#263238" stroke-miterlimit="10"/>
<path d="M39.3076 13.6912V68.425H126.306V13.6912H39.3076ZM125.339 24.4317H115.548V14.6614H125.339V24.4317ZM61.7768 36.164H71.5686V45.9558H61.7768V36.164ZM60.8138 45.9558H51.0256V36.164H60.8138V45.9558ZM93.0784 35.2152H83.2937V25.4019H93.082L93.0784 35.2152ZM94.0343 25.4019H103.823V35.1937H94.0343V25.4019ZM83.2937 36.1425H93.0855V45.9343H83.2937V36.1425ZM82.3307 45.9343H72.5317V36.164H82.3235L82.3307 45.9343ZM82.3307 35.1937H72.5317V25.4019H82.3235L82.3307 35.1937ZM71.5901 35.1937H61.7768V25.4019H71.5686L71.5901 35.1937ZM71.5901 46.9117V56.6999H61.7768V46.9188L71.5901 46.9117ZM72.5532 46.9117H82.345V56.6999H72.5317L72.5532 46.9117ZM83.2937 46.9117H93.0855V56.6999H83.2937V46.9117ZM94.0343 46.9117H103.823V56.6999H94.0343V46.9117ZM94.0343 45.9486V36.164H103.823V45.9558L94.0343 45.9486ZM104.775 36.1568H114.585V45.9486H104.793L104.775 36.1568ZM104.775 35.1937V25.4019H114.585V35.1937H104.775ZM104.775 24.4532V14.6614H114.585V24.446L104.775 24.4532ZM103.812 24.4532H94.0343V14.6614H103.823L103.812 24.4532ZM93.0712 24.4532H83.2937V14.6614H93.082L93.0712 24.4532ZM82.3307 24.4532H72.5317V14.6614H82.3235L82.3307 24.4532ZM71.5901 24.4532H61.7768V14.6614H71.5686L71.5901 24.4532ZM60.8496 24.4532H51.0256V14.6614H60.8138L60.8496 24.4532ZM60.8496 25.4163V35.2081H51.0256V25.4019L60.8496 25.4163ZM50.109 35.2081H40.2707V25.4019H50.0625L50.109 35.2081ZM50.109 36.1711V45.9629H40.2707V36.164L50.109 36.1711ZM50.109 46.9117V56.6999H40.2707V46.9188L50.109 46.9117ZM51.0721 46.9117H60.8603V56.6999H51.0256L51.0721 46.9117ZM60.8603 57.6522V67.444H51.0256V57.6701L60.8603 57.6522ZM61.8234 57.6522H71.6152V67.444H61.7768L61.8234 57.6522ZM72.5639 57.6522H82.3557V67.444H72.5317L72.5639 57.6522ZM83.3045 57.6522H93.0963V67.444H83.2937L83.3045 57.6522ZM94.045 57.6522H103.833V67.444H94.0343L94.045 57.6522ZM104.786 57.6522H114.585V67.444H104.793L104.786 57.6522ZM104.786 56.6891V46.9188H114.585V56.707L104.786 56.6891ZM115.526 46.9009H125.318V56.6891H115.548L115.526 46.9009ZM115.526 45.9379V36.164H125.318V45.9558L115.526 45.9379ZM115.526 35.1973V25.4019H125.318V35.1937L115.526 35.1973ZM50.0625 14.6614V24.446H40.2707V14.6614H50.0625ZM40.2707 57.6701H50.0625V67.4619H40.2707V57.6701ZM115.548 67.4619V57.6701H125.339V67.4619H115.548Z" fill="white"/>
<path opacity="0.8" d="M39.3076 13.6912V68.425H126.306V13.6912H39.3076ZM125.339 24.4317H115.548V14.6614H125.339V24.4317ZM61.7768 36.164H71.5686V45.9558H61.7768V36.164ZM60.8138 45.9558H51.0256V36.164H60.8138V45.9558ZM93.0784 35.2152H83.2937V25.4019H93.082L93.0784 35.2152ZM94.0343 25.4019H103.823V35.1937H94.0343V25.4019ZM83.2937 36.1425H93.0855V45.9343H83.2937V36.1425ZM82.3307 45.9343H72.5317V36.164H82.3235L82.3307 45.9343ZM82.3307 35.1937H72.5317V25.4019H82.3235L82.3307 35.1937ZM71.5901 35.1937H61.7768V25.4019H71.5686L71.5901 35.1937ZM71.5901 46.9117V56.6999H61.7768V46.9188L71.5901 46.9117ZM72.5532 46.9117H82.345V56.6999H72.5317L72.5532 46.9117ZM83.2937 46.9117H93.0855V56.6999H83.2937V46.9117ZM94.0343 46.9117H103.823V56.6999H94.0343V46.9117ZM94.0343 45.9486V36.164H103.823V45.9558L94.0343 45.9486ZM104.775 36.1568H114.585V45.9486H104.793L104.775 36.1568ZM104.775 35.1937V25.4019H114.585V35.1937H104.775ZM104.775 24.4532V14.6614H114.585V24.446L104.775 24.4532ZM103.812 24.4532H94.0343V14.6614H103.823L103.812 24.4532ZM93.0712 24.4532H83.2937V14.6614H93.082L93.0712 24.4532ZM82.3307 24.4532H72.5317V14.6614H82.3235L82.3307 24.4532ZM71.5901 24.4532H61.7768V14.6614H71.5686L71.5901 24.4532ZM60.8496 24.4532H51.0256V14.6614H60.8138L60.8496 24.4532ZM60.8496 25.4163V35.2081H51.0256V25.4019L60.8496 25.4163ZM50.109 35.2081H40.2707V25.4019H50.0625L50.109 35.2081ZM50.109 36.1711V45.9629H40.2707V36.164L50.109 36.1711ZM50.109 46.9117V56.6999H40.2707V46.9188L50.109 46.9117ZM51.0721 46.9117H60.8603V56.6999H51.0256L51.0721 46.9117ZM60.8603 57.6522V67.444H51.0256V57.6701L60.8603 57.6522ZM61.8234 57.6522H71.6152V67.444H61.7768L61.8234 57.6522ZM72.5639 57.6522H82.3557V67.444H72.5317L72.5639 57.6522ZM83.3045 57.6522H93.0963V67.444H83.2937L83.3045 57.6522ZM94.045 57.6522H103.833V67.444H94.0343L94.045 57.6522ZM104.786 57.6522H114.585V67.444H104.793L104.786 57.6522ZM104.786 56.6891V46.9188H114.585V56.707L104.786 56.6891ZM115.526 46.9009H125.318V56.6891H115.548L115.526 46.9009ZM115.526 45.9379V36.164H125.318V45.9558L115.526 45.9379ZM115.526 35.1973V25.4019H125.318V35.1937L115.526 35.1973ZM50.0625 14.6614V24.446H40.2707V14.6614H50.0625ZM40.2707 57.6701H50.0625V67.4619H40.2707V57.6701ZM115.548 67.4619V57.6701H125.339V67.4619H115.548Z" fill="white"/>
<path d="M83.24 46.7756L82.4631 46.0953L83.24 45.4151L84.0169 46.0953L83.24 46.7756Z" fill="#263238"/>
<path d="M85.5672 44.7349L84.7903 44.0547L86.3441 42.6942L87.1174 43.3744L85.5672 44.7349ZM88.6712 42.014L87.8943 41.3302L89.4445 39.9697L90.2214 40.6499L88.6712 42.014ZM91.7716 39.2894L90.9947 38.6092L92.5485 37.2487L93.3182 37.9326L91.7716 39.2894ZM94.8756 36.5685L94.0987 35.8883L94.7825 35.2868L96.0392 34.7355L96.5297 35.5983L95.4341 36.078L94.8756 36.5685ZM98.4916 34.7355L98.0011 33.8762L99.9631 33.0134L100.454 33.8762L98.4916 34.7355ZM102.43 33.017L101.911 32.1542L103.873 31.2913L104.363 32.1542L102.43 33.017ZM106.368 31.2949L105.849 30.4321L107.041 29.9094L107.524 29.4869L108.301 30.1671L107.693 30.7006L106.368 31.2949ZM109.88 28.8067L109.103 28.1264L110.657 26.7624L111.43 27.4462L109.88 28.8067ZM112.984 26.0822L112.179 25.4019L113.725 24.0415L114.502 24.7217L112.984 26.0822ZM116.085 23.3612L115.308 22.681L116.862 21.3205L117.635 22.0008L116.085 23.3612ZM119.189 20.6403L118.38 19.9601L119.93 18.5996L120.707 19.2798L119.189 20.6403ZM122.289 17.9193L121.512 17.2355L123.066 15.8751L123.843 16.5553L122.289 17.9193Z" fill="#263238"/>
<path d="M126.302 17.7117H125.203V14.6543H121.723V13.6948H126.302V17.7117Z" fill="#263238"/>
<g opacity="0.5">
<path d="M112.053 39.3646L111.373 38.6844L112.716 37.3418L113.396 38.022L112.053 39.3646ZM114.738 36.6795L114.058 35.9992L115.401 34.6567L116.081 35.3369L114.738 36.6795ZM117.424 33.9943L116.743 33.3141L118.086 31.9715L118.766 32.6518L117.424 33.9943ZM120.109 31.3092L119.429 30.629L120.771 29.2864L121.451 29.9666L120.109 31.3092ZM122.794 28.6241L122.114 27.9438L123.456 26.6013L124.136 27.2815L122.794 28.6241Z" fill="black"/>
<path d="M109.887 41.5413H108.727V40.5783H109.49L110.031 40.0377L110.711 40.7179L109.887 41.5413Z" fill="black"/>
<path d="M93.7586 46.9188H92.8278V45.9557H93.3576L93.9842 45.3292L94.6644 46.0094L93.7586 46.9188ZM91.0162 46.9188H89.2046V45.9557H91.0162V46.9188ZM87.3931 46.9188H85.5779V45.9557H87.3931V46.9188ZM95.9461 44.7348L95.2659 44.0546L96.5404 42.7657L97.2207 43.446L95.9461 44.7348ZM98.5095 42.175L97.8293 41.4912L98.7351 40.5854H99.6623V41.5485H99.1361L98.5095 42.175ZM106.923 41.5413H105.111V40.5782H106.923V41.5413ZM103.3 41.5413H101.488V40.5782H103.3V41.5413Z" fill="black"/>
<path d="M83.7663 45.9557H82.8033V46.9188H83.7663V45.9557Z" fill="black"/>
<path d="M126.302 28.4629H125.339V25.4091H122.282L122.286 24.446H126.302V28.4629Z" fill="black"/>
<g opacity="0.2">
<path d="M112.053 39.3646L111.373 38.6844L112.716 37.3418L113.396 38.022L112.053 39.3646ZM114.738 36.6795L114.058 35.9992L115.401 34.6567L116.081 35.3369L114.738 36.6795ZM117.424 33.9943L116.743 33.3141L118.086 31.9715L118.766 32.6518L117.424 33.9943ZM120.109 31.3092L119.429 30.629L120.771 29.2864L121.451 29.9666L120.109 31.3092ZM122.794 28.6241L122.114 27.9438L123.456 26.6013L124.136 27.2815L122.794 28.6241Z" fill="black"/>
<path d="M109.887 41.5413H108.727V40.5783H109.49L110.031 40.0377L110.711 40.7179L109.887 41.5413Z" fill="black"/>
<path d="M93.7586 46.9188H92.8278V45.9557H93.3576L93.9842 45.3292L94.6644 46.0094L93.7586 46.9188ZM91.0162 46.9188H89.2046V45.9557H91.0162V46.9188ZM87.3931 46.9188H85.5779V45.9557H87.3931V46.9188ZM95.9461 44.7348L95.2659 44.0546L96.5404 42.7657L97.2207 43.446L95.9461 44.7348ZM98.5095 42.175L97.8293 41.4912L98.7351 40.5854H99.6623V41.5485H99.1361L98.5095 42.175ZM106.923 41.5413H105.111V40.5782H106.923V41.5413ZM103.3 41.5413H101.488V40.5782H103.3V41.5413Z" fill="black"/>
<path d="M83.7663 45.9557H82.8033V46.9188H83.7663V45.9557Z" fill="black"/>
<path d="M126.302 28.4629H125.339V25.4091H122.282L122.286 24.446H126.302V28.4629Z" fill="black"/>
</g>
</g>
<g opacity="0.3">
<path d="M83.1464 46.0982L82.4654 46.7792L83.1464 47.4602L83.8274 46.7792L83.1464 46.0982Z" fill="black"/>
<path d="M97.5393 52.2962H95.5379V51.3332H97.5357L97.5393 52.2962ZM93.5402 52.2962H91.5281V51.3332H93.5295L93.5402 52.2962ZM89.5411 52.2962H87.9802L87.3859 51.6983L88.0697 51.0181L88.3812 51.3332H89.5411V52.2962ZM99.7017 51.727L99.0215 51.0468L100.436 49.6326L101.116 50.3128L99.7017 51.727ZM85.9717 50.2949L84.5396 48.8843L85.2234 48.2005L86.6376 49.6147L85.9717 50.2949ZM102.53 48.9094L101.85 48.2291L103.264 46.7971L103.944 47.4809L102.53 48.9094ZM115.265 46.9295H113.31V45.9665H114.867L114.9 45.9307L114.932 45.9665H115.064V46.0989L115.58 46.6145L115.265 46.9295ZM111.327 46.9295H109.325V45.9665H111.327V46.9295ZM107.327 46.9295H105.312V45.9665H107.313L107.327 46.9295ZM116.994 45.2003L116.314 44.5165L117.728 43.1059L118.408 43.7861L116.994 45.2003ZM119.822 42.372L119.142 41.6917L120.556 40.2776L121.236 40.9578L119.822 42.372ZM122.651 39.5436L121.97 38.8634L123.402 37.4492L124.083 38.1295L122.651 39.5436Z" fill="black"/>
<path d="M126.302 39.2178H125.339V36.1639H122.282V35.2009H126.302V39.2178Z" fill="black"/>
<g opacity="0.3">
<path d="M83.1464 46.0982L82.4654 46.7792L83.1464 47.4602L83.8274 46.7792L83.1464 46.0982Z" fill="black"/>
<path d="M97.5393 52.2962H95.5379V51.3332H97.5357L97.5393 52.2962ZM93.5402 52.2962H91.5281V51.3332H93.5295L93.5402 52.2962ZM89.5411 52.2962H87.9802L87.3859 51.6983L88.0697 51.0181L88.3812 51.3332H89.5411V52.2962ZM99.7017 51.727L99.0215 51.0468L100.436 49.6326L101.116 50.3128L99.7017 51.727ZM85.9717 50.2949L84.5396 48.8843L85.2234 48.2005L86.6376 49.6147L85.9717 50.2949ZM102.53 48.9094L101.85 48.2291L103.264 46.7971L103.944 47.4809L102.53 48.9094ZM115.265 46.9295H113.31V45.9665H114.867L114.9 45.9307L114.932 45.9665H115.064V46.0989L115.58 46.6145L115.265 46.9295ZM111.327 46.9295H109.325V45.9665H111.327V46.9295ZM107.327 46.9295H105.312V45.9665H107.313L107.327 46.9295ZM116.994 45.2003L116.314 44.5165L117.728 43.1059L118.408 43.7861L116.994 45.2003ZM119.822 42.372L119.142 41.6917L120.556 40.2776L121.236 40.9578L119.822 42.372ZM122.651 39.5436L121.97 38.8634L123.402 37.4492L124.083 38.1295L122.651 39.5436Z" fill="black"/>
<path d="M126.302 39.2178H125.339V36.1639H122.282V35.2009H126.302V39.2178Z" fill="black"/>
</g>
</g>
<path d="M45.4655 68.4249H39.7909V67.4618H44.8676L50.1484 56.9039L55.7192 51.3331H66.474L71.8515 45.9557H82.8032V46.9188H72.2489L66.8714 52.2962H56.1201L50.9396 57.4767L45.4655 68.4249Z" fill="#92E3A9"/>
<g opacity="0.3">
<path d="M45.4655 68.4249H39.7909V67.4618H44.8676L50.1484 56.9039L55.7192 51.3331H66.474L71.8515 45.9557H82.8032V46.9188H72.2489L66.8714 52.2962H56.1201L50.9396 57.4767L45.4655 68.4249Z" fill="#263238"/>
</g>
<path d="M59.686 59.5819H53.9756C53.0364 59.5819 52.275 60.3433 52.275 61.2825V66.9929C52.275 67.9321 53.0364 68.6935 53.9756 68.6935H59.686C60.6252 68.6935 61.3866 67.9321 61.3866 66.9929V61.2825C61.3866 60.3433 60.6252 59.5819 59.686 59.5819Z" fill="#92E3A9"/>
<path opacity="0.3" d="M59.686 59.5819H53.9756C53.0364 59.5819 52.275 60.3433 52.275 61.2825V66.9929C52.275 67.9321 53.0364 68.6935 53.9756 68.6935H59.686C60.6252 68.6935 61.3866 67.9321 61.3866 66.9929V61.2825C61.3866 60.3433 60.6252 59.5819 59.686 59.5819Z" fill="black"/>
<path d="M59.686 58.9446H53.9756C53.0364 58.9446 52.275 59.706 52.275 60.6452V66.3556C52.275 67.2948 53.0364 68.0562 53.9756 68.0562H59.686C60.6252 68.0562 61.3866 67.2948 61.3866 66.3556V60.6452C61.3866 59.706 60.6252 58.9446 59.686 58.9446Z" fill="#92E3A9"/>
<path opacity="0.8" d="M59.686 58.9446H53.9756C53.0364 58.9446 52.275 59.706 52.275 60.6452V66.3556C52.275 67.2948 53.0364 68.0562 53.9756 68.0562H59.686C60.6252 68.0562 61.3866 67.2948 61.3866 66.3556V60.6452C61.3866 59.706 60.6252 58.9446 59.686 58.9446Z" fill="white"/>
<path d="M54.416 62.131C54.3932 61.8013 54.5013 61.4759 54.7167 61.2252C54.9558 61.0196 55.2606 60.9065 55.576 60.9065C55.8913 60.9065 56.1962 61.0196 56.4352 61.2252C56.6507 61.4759 56.7587 61.8013 56.7359 62.131V64.6372C56.7437 64.8725 56.6933 65.1062 56.5892 65.3174C56.5943 65.336 56.6034 65.3532 56.6157 65.368C56.6281 65.3829 56.6434 65.3949 56.6608 65.4033C56.7073 65.4167 56.7556 65.4227 56.804 65.4212H56.872V66.1014H56.7682C56.6236 66.1074 56.4798 66.0779 56.3493 66.0155C56.2442 65.962 56.1599 65.8751 56.1094 65.7685C56.0281 65.7979 55.9442 65.8195 55.8588 65.8329C55.7656 65.8508 55.6708 65.8592 55.576 65.858C55.4186 65.8691 55.2607 65.8468 55.1126 65.7925C54.9645 65.7382 54.8296 65.6531 54.7167 65.5429C54.5019 65.2919 54.394 64.9668 54.416 64.6372V62.131ZM55.1786 64.7052C55.1676 64.8338 55.206 64.9618 55.286 65.0632C55.366 65.1325 55.4683 65.1706 55.5742 65.1706C55.68 65.1706 55.7823 65.1325 55.8624 65.0632C55.9423 64.9618 55.9807 64.8338 55.9698 64.7052V62.0809C55.9797 61.9524 55.9414 61.8247 55.8624 61.7229C55.7823 61.6536 55.68 61.6155 55.5742 61.6155C55.4683 61.6155 55.366 61.6536 55.286 61.7229C55.207 61.8247 55.1687 61.9524 55.1786 62.0809V64.7052Z" fill="black"/>
<path d="M57.699 61.5618C57.82 61.5647 57.9408 61.549 58.057 61.5152C58.143 61.4879 58.2223 61.4428 58.2897 61.3827C58.348 61.3268 58.3964 61.2615 58.4329 61.1894C58.4721 61.1132 58.5056 61.0343 58.5332 60.9531H59.0451V65.8222H58.2826V62.1167H57.6918L57.699 61.5618Z" fill="black"/>
<path d="M92.0043 59.9399H86.2939C85.3547 59.9399 84.5934 60.7013 84.5934 61.6405V67.3509C84.5934 68.2901 85.3547 69.0515 86.2939 69.0515H92.0043C92.9435 69.0515 93.7049 68.2901 93.7049 67.3509V61.6405C93.7049 60.7013 92.9435 59.9399 92.0043 59.9399Z" fill="#92E3A9"/>
<path opacity="0.3" d="M92.0043 59.9399H86.2939C85.3547 59.9399 84.5934 60.7013 84.5934 61.6405V67.3509C84.5934 68.2901 85.3547 69.0515 86.2939 69.0515H92.0043C92.9435 69.0515 93.7049 68.2901 93.7049 67.3509V61.6405C93.7049 60.7013 92.9435 59.9399 92.0043 59.9399Z" fill="black"/>
<path d="M92.0043 59.3027H86.2939C85.3547 59.3027 84.5934 60.0641 84.5934 61.0033V66.7136C84.5934 67.6529 85.3547 68.4142 86.2939 68.4142H92.0043C92.9435 68.4142 93.7049 67.6529 93.7049 66.7136V61.0033C93.7049 60.0641 92.9435 59.3027 92.0043 59.3027Z" fill="#92E3A9"/>
<path opacity="0.8" d="M92.0043 59.3027H86.2939C85.3547 59.3027 84.5934 60.0641 84.5934 61.0033V66.7136C84.5934 67.6529 85.3547 68.4142 86.2939 68.4142H92.0043C92.9435 68.4142 93.7049 67.6529 93.7049 66.7136V61.0033C93.7049 60.0641 92.9435 59.3027 92.0043 59.3027Z" fill="white"/>
<path d="M86.8345 62.5535C86.8115 62.2244 86.9182 61.8993 87.1317 61.6477C87.3726 61.4445 87.6776 61.3331 87.9927 61.3331C88.3079 61.3331 88.6129 61.4445 88.8537 61.6477C89.0659 61.9 89.1724 62.2246 89.1509 62.5535V65.0596C89.1586 65.295 89.1082 65.5286 89.0041 65.7399C89.0099 65.7591 89.0195 65.777 89.0324 65.7924C89.0454 65.8078 89.0613 65.8204 89.0793 65.8294C89.1256 65.8367 89.1727 65.8367 89.2189 65.8294H89.2905V66.5096H89.1867C89.0422 66.5155 88.8984 66.486 88.7678 66.4237C88.6621 66.371 88.5775 66.2839 88.5279 66.1767C88.4461 66.2052 88.3624 66.2279 88.2773 66.2447C88.1827 66.2607 88.0869 66.2691 87.9909 66.2697C87.8334 66.2797 87.6755 66.2565 87.5275 66.2016C87.3795 66.1467 87.2446 66.0614 87.1317 65.9511C86.9175 65.6999 86.8108 65.3746 86.8345 65.0453V62.5535ZM87.5899 65.142C87.58 65.2705 87.6183 65.3981 87.6973 65.5C87.7774 65.5693 87.8797 65.6074 87.9856 65.6074C88.0914 65.6074 88.1937 65.5693 88.2738 65.5C88.3528 65.3981 88.3911 65.2705 88.3812 65.142V62.5177C88.3921 62.3891 88.3537 62.2611 88.2738 62.1597C88.1937 62.0904 88.0914 62.0523 87.9856 62.0523C87.8797 62.0523 87.7774 62.0904 87.6973 62.1597C87.6174 62.2611 87.579 62.3891 87.5899 62.5177V65.142Z" fill="black"/>
<path d="M91.1701 62.5821C91.1879 62.4272 91.1498 62.2711 91.0627 62.1418C91.0265 62.1025 90.9821 62.0719 90.9325 62.0521C90.8829 62.0322 90.8296 62.0237 90.7763 62.0272C90.7232 62.0244 90.6701 62.0325 90.6202 62.051C90.5704 62.0694 90.5248 62.0979 90.4863 62.1346C90.4064 62.236 90.368 62.364 90.3789 62.4926V63.0153H89.6629V62.5428C89.6399 62.2154 89.7423 61.8916 89.9493 61.637C90.1858 61.4333 90.4875 61.3214 90.7996 61.3214C91.1117 61.3214 91.4134 61.4333 91.6499 61.637C91.8569 61.8916 91.9593 62.2154 91.9363 62.5428C91.9406 62.7866 91.9005 63.0292 91.8181 63.2588C91.7399 63.4634 91.6377 63.6581 91.5138 63.8388C91.3976 64.0096 91.2683 64.1712 91.1272 64.3221C90.9875 64.4689 90.8622 64.6085 90.7512 64.7374C90.636 64.8596 90.5362 64.9955 90.4541 65.142C90.3896 65.2677 90.3682 65.4111 90.3932 65.5501H91.8253V66.2447H89.6199V65.6468C89.6151 65.4338 89.6528 65.222 89.7309 65.0238C89.8025 64.8468 89.8963 64.6795 90.0102 64.5262C90.1209 64.3783 90.2405 64.2372 90.3682 64.1037C90.495 63.9706 90.6145 63.8308 90.7262 63.6848C90.8407 63.5345 90.9346 63.3695 91.0054 63.1943C91.1015 63.0036 91.1575 62.7953 91.1701 62.5821Z" fill="black"/>
<path d="M124.434 59.5819H118.723C117.784 59.5819 117.023 60.3433 117.023 61.2825V66.9929C117.023 67.9321 117.784 68.6935 118.723 68.6935H124.434C125.373 68.6935 126.134 67.9321 126.134 66.9929V61.2825C126.134 60.3433 125.373 59.5819 124.434 59.5819Z" fill="#92E3A9"/>
<path opacity="0.3" d="M124.434 59.5819H118.723C117.784 59.5819 117.023 60.3433 117.023 61.2825V66.9929C117.023 67.9321 117.784 68.6935 118.723 68.6935H124.434C125.373 68.6935 126.134 67.9321 126.134 66.9929V61.2825C126.134 60.3433 125.373 59.5819 124.434 59.5819Z" fill="black"/>
<path d="M124.434 58.9446H118.723C117.784 58.9446 117.023 59.706 117.023 60.6452V66.3556C117.023 67.2948 117.784 68.0562 118.723 68.0562H124.434C125.373 68.0562 126.134 67.2948 126.134 66.3556V60.6452C126.134 59.706 125.373 58.9446 124.434 58.9446Z" fill="#92E3A9"/>
<path opacity="0.8" d="M124.434 58.9446H118.723C117.784 58.9446 117.023 59.706 117.023 60.6452V66.3556C117.023 67.2948 117.784 68.0562 118.723 68.0562H124.434C125.373 68.0562 126.134 67.2948 126.134 66.3556V60.6452C126.134 59.706 125.373 58.9446 124.434 58.9446Z" fill="white"/>
<path d="M119.267 62.1954C119.246 61.8665 119.352 61.5419 119.565 61.2896C119.805 61.0864 120.11 60.975 120.426 60.975C120.741 60.975 121.046 61.0864 121.287 61.2896C121.499 61.5419 121.605 61.8665 121.584 62.1954V64.7015C121.594 64.9371 121.543 65.1713 121.437 65.3818C121.45 65.42 121.477 65.4519 121.512 65.4713C121.56 65.4788 121.608 65.4788 121.655 65.4713H121.723V66.1515H121.62C121.475 66.1574 121.331 66.1279 121.201 66.0656C121.095 66.0129 121.01 65.9258 120.961 65.8186C120.879 65.8471 120.795 65.8699 120.71 65.8866C120.616 65.9026 120.52 65.911 120.424 65.9116C120.266 65.9216 120.108 65.8984 119.96 65.8435C119.812 65.7887 119.677 65.7033 119.565 65.593C119.352 65.3411 119.245 65.0163 119.267 64.6872V62.1954ZM120.03 64.7696C120.02 64.8981 120.058 65.0257 120.137 65.1276C120.217 65.1969 120.32 65.235 120.426 65.235C120.531 65.235 120.634 65.1969 120.714 65.1276C120.793 65.0257 120.831 64.8981 120.821 64.7696V62.1453C120.832 62.0166 120.794 61.8887 120.714 61.7873C120.634 61.718 120.531 61.6799 120.426 61.6799C120.32 61.6799 120.217 61.718 120.137 61.7873C120.057 61.8887 120.019 62.0166 120.03 62.1453V64.7696Z" fill="black"/>
<path d="M123.549 62.2241C123.567 62.0692 123.529 61.913 123.442 61.7837C123.405 61.744 123.36 61.713 123.31 61.6932C123.26 61.6734 123.206 61.6651 123.152 61.6691C123.099 61.6668 123.047 61.6752 122.998 61.6936C122.949 61.7121 122.904 61.7403 122.865 61.7766C122.786 61.8779 122.747 62.0059 122.758 62.1346V62.4496H122.042V62.1847C122.02 61.8569 122.124 61.533 122.332 61.2789C122.568 61.0755 122.869 60.9637 123.181 60.9637C123.492 60.9637 123.793 61.0755 124.029 61.2789C124.237 61.533 124.341 61.8569 124.319 62.1847V62.31C124.319 62.8255 124.14 63.1621 123.786 63.3089C123.966 63.3804 124.113 63.5171 124.197 63.6919C124.284 63.8928 124.326 64.1104 124.319 64.3292V64.7087C124.342 65.0366 124.238 65.3608 124.029 65.6145C123.794 65.82 123.493 65.9332 123.181 65.9332C122.868 65.9332 122.567 65.82 122.332 65.6145C122.123 65.3608 122.019 65.0366 122.042 64.7087V64.3185H122.758V64.7839C122.748 64.9124 122.786 65.0401 122.865 65.1419C122.904 65.1782 122.949 65.2064 122.998 65.2249C123.047 65.2433 123.099 65.2516 123.152 65.2493C123.205 65.2514 123.258 65.2427 123.308 65.2236C123.358 65.2045 123.404 65.1755 123.442 65.1383C123.528 65.0101 123.566 64.8553 123.549 64.7016V64.3185C123.565 64.1498 123.523 63.9808 123.431 63.8387C123.379 63.7885 123.316 63.7507 123.247 63.7284C123.178 63.706 123.105 63.6997 123.034 63.7098H122.776V62.9938H123.077C123.199 62.9997 123.319 62.9602 123.413 62.8828C123.459 62.8269 123.494 62.7623 123.515 62.6928C123.536 62.6234 123.543 62.5504 123.535 62.4783L123.549 62.2241Z" fill="black"/>
<path d="M92.5306 110.152L93.1356 115.379C93.1356 129.449 92.6416 130.495 91.4637 135.381C91.052 137.086 90.5472 138.983 89.96 140.684C89.7742 141.225 89.6411 141.782 89.5626 142.348V142.374C89.4929 142.833 89.457 143.298 89.4552 143.763C89.4446 145.566 89.1696 147.359 88.6389 149.083C88.0124 151.231 87.2069 153.673 86.3082 156.261C77.8351 158.578 69.0338 159.459 60.2696 158.867L68.6472 143.408C69.5187 141.801 69.8167 139.945 69.4921 138.145C68.4181 132.199 67.0576 123.205 66.7998 114.419C66.3988 100.725 67.3118 103.203 67.7235 96.7441C67.7712 95.9688 67.9761 95.2113 68.3256 94.5177C68.6752 93.8241 69.1622 93.2088 69.757 92.7093L70.2583 92.294L75.335 81.7682C75.6642 81.0854 76.1333 80.4793 76.7117 79.9892C77.2901 79.4991 77.965 79.136 78.6927 78.9234C79.4203 78.7108 80.1846 78.6534 80.9358 78.7549C81.6871 78.8564 82.4087 79.1146 83.0538 79.5127L88.1198 82.6382C88.2299 82.7061 88.3232 82.7981 88.3927 82.9072C88.4621 83.0163 88.5059 83.1398 88.5208 83.2683L89.201 89.0861C89.201 89.0861 92.8886 94.6354 93.1392 96.7835C93.218 97.4995 92.459 99.5295 92.459 99.5295L92.5306 110.152Z" fill="white"/>
<mask id="mask0_14_400" style="mask-type:luminance" maskUnits="userSpaceOnUse" x="60" y="78" width="34" height="82">
<path d="M92.5306 110.152L93.1356 115.379C93.1356 129.449 92.6416 130.495 91.4637 135.381C91.052 137.086 90.5472 138.983 89.96 140.684C89.7742 141.225 89.6411 141.782 89.5626 142.348V142.374C89.4929 142.833 89.457 143.298 89.4552 143.763C89.4446 145.566 89.1696 147.359 88.6389 149.083C88.0124 151.231 87.2069 153.673 86.3082 156.261C77.8351 158.578 69.0338 159.459 60.2696 158.867L68.6472 143.408C69.5187 141.801 69.8167 139.945 69.4921 138.145C68.4181 132.199 67.0576 123.205 66.7998 114.419C66.3988 100.725 67.3118 103.203 67.7235 96.7441C67.7712 95.9688 67.9761 95.2113 68.3256 94.5177C68.6752 93.8241 69.1622 93.2088 69.757 92.7093L70.2583 92.294L75.335 81.7682C75.6642 81.0854 76.1333 80.4793 76.7117 79.9892C77.2901 79.4991 77.965 79.136 78.6927 78.9234C79.4203 78.7108 80.1846 78.6534 80.9358 78.7549C81.6871 78.8564 82.4087 79.1146 83.0538 79.5127L88.1198 82.6382C88.2299 82.7061 88.3232 82.7981 88.3927 82.9072C88.4621 83.0163 88.5059 83.1398 88.5208 83.2683L89.201 89.0861C89.201 89.0861 92.8886 94.6354 93.1392 96.7835C93.218 97.4995 92.459 99.5295 92.459 99.5295L92.5306 110.152Z" fill="white"/>
</mask>
<g mask="url(#mask0_14_400)">
<path d="M68.1603 144.418C76.2873 137.182 74.3254 129.406 71.1497 124.87C68.6078 121.243 70.1437 116.761 70.1115 112.719C70.0504 109.767 69.7499 106.825 69.2129 103.922C68.9622 102.469 68.6758 101.019 68.3858 99.5724C68.2713 99.0104 68.282 98.459 68.1818 97.9112C68.0815 97.3635 67.7235 96.8766 67.7951 96.3181C67.7951 96.3181 66.7211 104.71 66.7211 105.433C66.6924 107.223 66.7211 109.529 66.7211 111.326C66.7533 115.132 66.9752 117.713 67.2151 121.508C67.6483 128.332 69.1878 135.779 69.6317 138.954C69.843 140.455 68.751 143.107 68.1603 144.418Z" fill="#92E3A9"/>
<g opacity="0.2">
<path d="M68.1603 144.418C76.2873 137.182 74.3254 129.406 71.1497 124.87C68.6078 121.243 70.1437 116.761 70.1115 112.719C70.0504 109.767 69.7499 106.825 69.2129 103.922C68.9622 102.469 68.6758 101.019 68.3858 99.5724C68.2713 99.0104 68.282 98.459 68.1818 97.9112C68.0815 97.3635 67.7235 96.8766 67.7951 96.3181C67.7951 96.3181 66.7211 104.71 66.7211 105.433C66.6924 107.223 66.7211 109.529 66.7211 111.326C66.7533 115.132 66.9752 117.713 67.2151 121.508C67.6483 128.332 69.1878 135.779 69.6317 138.954C69.843 140.455 68.751 143.107 68.1603 144.418Z" fill="white"/>
</g>
<path d="M80.9165 82.3053C80.5298 81.4138 79.0942 81.5284 78.4963 82.3053C77.8984 83.0822 77.8912 84.1276 77.9234 85.0978C77.9557 86.068 77.9771 87.1242 77.4043 87.9118C77.0463 88.3952 76.5057 88.7281 76.2193 89.2544C75.1846 91.1805 78.3208 93.7475 76.9353 95.4481C76.2909 96.2429 74.8731 96.3611 74.6261 97.3564C74.3468 98.459 75.7503 99.1214 76.6059 99.8625C78.038 101.105 77.9879 103.643 76.5272 104.843C78.797 105.863 79.2374 109.701 78.8507 114.667C80.3794 112.518 80.7589 106.196 80.5907 103.568C80.4224 100.94 79.7995 98.3552 79.5739 95.7309C79.2266 91.603 79.8749 87.4519 81.4642 83.6264L80.9165 82.3053Z" fill="#92E3A9"/>
<g opacity="0.2">
<path d="M80.9165 82.3053C80.5298 81.4138 79.0942 81.5284 78.4963 82.3053C77.8984 83.0822 77.8912 84.1276 77.9234 85.0978C77.9557 86.068 77.9771 87.1242 77.4043 87.9118C77.0463 88.3952 76.5057 88.7281 76.2193 89.2544C75.1846 91.1805 78.3208 93.7475 76.9353 95.4481C76.2909 96.2429 74.8731 96.3611 74.6261 97.3564C74.3468 98.459 75.7503 99.1214 76.6059 99.8625C78.038 101.105 77.9879 103.643 76.5272 104.843C78.797 105.863 79.2374 109.701 78.8507 114.667C80.3794 112.518 80.7589 106.196 80.5907 103.568C80.4224 100.94 79.7995 98.3552 79.5739 95.7309C79.2266 91.603 79.8749 87.4519 81.4642 83.6264L80.9165 82.3053Z" fill="white"/>
</g>
<path d="M89.0399 101.824C88.8752 102.898 89.2261 104.001 89.5733 105.047C90.6617 108.312 91.7477 111.578 92.8313 114.846C92.8886 110.689 93.0067 106.529 93.0067 102.376C93.0067 101.266 93.329 99.3004 91.9005 98.9817C90.583 98.6882 89.1974 100.808 89.0399 101.824Z" fill="#92E3A9"/>
<path opacity="0.2" d="M89.0399 101.824C88.8752 102.898 89.2261 104.001 89.5733 105.047C90.6617 108.312 91.7477 111.578 92.8313 114.846C92.8886 110.689 93.0067 106.529 93.0067 102.376C93.0067 101.266 93.329 99.3004 91.9005 98.9817C90.583 98.6882 89.1974 100.808 89.0399 101.824Z" fill="white"/>
</g>
<path d="M108.935 42.9626C108.935 43.224 108.935 43.4853 108.935 43.7503C108.937 46.0056 108.632 48.2506 108.029 50.4237C107.451 52.524 106.596 54.5382 105.487 56.4134H105.57C105.315 56.8502 105.047 57.2762 104.768 57.6951H104.682C101.271 62.755 96.128 66.3939 90.2214 67.9272L89.7309 68.0454L89.4517 68.1098C87.6506 68.5168 85.8097 68.721 83.9632 68.7185C82.6698 68.7195 81.3783 68.6201 80.1002 68.4213C79.294 68.2973 78.4946 68.1324 77.7051 67.9272C77.1 67.7697 76.5057 67.5943 75.915 67.3938V67.4475C75.4567 67.2948 75.0056 67.1265 74.5617 66.9427C70.4107 65.2437 66.7926 62.4603 64.0861 58.8837C63.7603 58.4612 63.4559 58.028 63.166 57.5841C62.9726 57.2941 62.7865 56.997 62.6074 56.6962C62.321 56.2236 62.0489 55.7439 61.7947 55.2641C61.6623 55.01 61.537 54.7558 61.4152 54.498C61.3472 54.3655 61.2864 54.2295 61.2255 54.0934C61.136 53.8965 61.0501 53.6996 60.9641 53.4991C59.6829 50.4376 59.0245 47.1514 59.0273 43.8326C59.0273 43.3529 59.0273 42.8767 59.0666 42.4005C59.0989 41.8564 59.1454 41.3265 59.2134 40.7787C59.6185 37.4703 60.6826 34.2767 62.3429 31.3865C64.0032 28.4964 66.226 25.9684 68.8799 23.9519C70.5607 22.6704 72.3963 21.6058 74.3433 20.7834C74.8839 20.5579 75.4352 20.3466 75.9937 20.1605C81.3439 18.355 87.1471 18.4092 92.4626 20.3144C93.002 20.5077 93.5342 20.7202 94.0593 20.9517C94.9093 21.3237 95.7376 21.7432 96.5404 22.2083H96.5834C96.8268 22.3479 97.0703 22.4947 97.2994 22.6523C97.5285 22.8098 97.7827 22.9602 98.0154 23.1213L98.062 23.2C98.5656 23.5437 99.0561 23.9017 99.5334 24.2741C101.159 25.5681 102.619 27.058 103.88 28.7099C104.123 29.0286 104.356 29.3544 104.596 29.6837L104.714 29.8592C104.907 30.1492 105.101 30.4356 105.283 30.7327C105.509 31.0908 105.727 31.4738 105.935 31.8533L105.953 31.8891C106.022 32.0052 106.085 32.1247 106.142 32.2472C106.175 32.3116 106.207 32.3796 106.243 32.4441C106.343 32.641 106.44 32.8415 106.533 33.042C106.534 33.0515 106.534 33.0611 106.533 33.0706V33.0921L106.554 33.135L106.572 33.1708L106.597 33.2281C106.598 33.2376 106.598 33.2473 106.597 33.2568L106.701 33.4823C107.707 35.6804 108.384 38.0147 108.709 40.41L108.774 41.169C108.799 41.4232 108.82 41.6809 108.842 41.9351C108.863 42.1893 108.871 42.4005 108.881 42.6512C108.881 42.6726 108.881 42.6941 108.881 42.7156C108.931 42.7872 108.935 42.8767 108.935 42.9626Z" fill="#263238"/>
<path d="M108.935 42.9626C108.935 43.224 108.935 43.4853 108.935 43.7503C108.937 46.0056 108.632 48.2506 108.029 50.4237C107.451 52.524 106.596 54.5382 105.487 56.4134H105.57C105.315 56.8502 105.047 57.2762 104.768 57.6951H104.682C101.271 62.755 96.128 66.3939 90.2214 67.9272L89.7309 68.0454L89.4517 68.1098C87.6506 68.5168 85.8097 68.721 83.9632 68.7185C82.6698 68.7195 81.3783 68.6201 80.1002 68.4213C79.294 68.2973 78.4946 68.1324 77.7051 67.9272C77.1 67.7697 76.5057 67.5943 75.915 67.3938V67.4475C75.4567 67.2948 75.0056 67.1265 74.5617 66.9427C70.4107 65.2437 66.7926 62.4603 64.0861 58.8837C63.7603 58.4612 63.4559 58.028 63.166 57.5841C62.9726 57.2941 62.7865 56.997 62.6074 56.6962C62.321 56.2236 62.0489 55.7439 61.7947 55.2641C61.6623 55.01 61.537 54.7558 61.4152 54.498C61.3472 54.3655 61.2864 54.2295 61.2255 54.0934C61.136 53.8965 61.0501 53.6996 60.9641 53.4991C59.6829 50.4376 59.0245 47.1514 59.0273 43.8326C59.0273 43.3529 59.0273 42.8767 59.0666 42.4005C59.0989 41.8564 59.1454 41.3265 59.2134 40.7787C59.6185 37.4703 60.6826 34.2767 62.3429 31.3865C64.0032 28.4964 66.226 25.9684 68.8799 23.9519C70.5607 22.6704 72.3963 21.6058 74.3433 20.7834C74.8839 20.5579 75.4352 20.3466 75.9937 20.1605C81.3439 18.355 87.1471 18.4092 92.4626 20.3144C93.002 20.5077 93.5342 20.7202 94.0593 20.9517C94.9093 21.3237 95.7376 21.7432 96.5404 22.2083H96.5834C96.8268 22.3479 97.0703 22.4947 97.2994 22.6523C97.5285 22.8098 97.7827 22.9602 98.0154 23.1213L98.062 23.2C98.5656 23.5437 99.0561 23.9017 99.5334 24.2741C101.159 25.5681 102.619 27.058 103.88 28.7099C104.123 29.0286 104.356 29.3544 104.596 29.6837L104.714 29.8592C104.907 30.1492 105.101 30.4356 105.283 30.7327C105.509 31.0908 105.727 31.4738 105.935 31.8533L105.953 31.8891L106.536 33.042C106.538 33.0515 106.538 33.0611 106.536 33.0706V33.0921L106.558 33.135L106.576 33.1708L106.601 33.2281C106.602 33.2376 106.602 33.2473 106.601 33.2568L106.705 33.4823C107.71 35.6804 108.387 38.0147 108.713 40.41L108.777 41.169C108.803 41.4232 108.824 41.6809 108.845 41.9351C108.867 42.1893 108.874 42.4005 108.885 42.6512C108.885 42.6726 108.885 42.6941 108.885 42.7156C108.931 42.7872 108.935 42.8767 108.935 42.9626Z" fill="#92E3A9"/>
<path d="M87.7797 40.8146H87.2749H86.2366H83.129H79.9964H77.0069H76.8494C76.8494 41.0186 76.8494 41.2263 76.8494 41.4304C76.8494 41.6631 76.8494 41.8958 76.8494 42.1249L76.9461 42.218C76.9138 42.2538 76.8816 42.2824 76.8494 42.3147V42.4543C77.8948 42.4543 78.9438 42.4543 79.9856 42.4543H80.2541H83.1183L86.2151 42.4292L89.2762 42.3934L92.2943 42.3505C92.3122 41.8099 92.3301 41.2764 92.3444 40.7251H92.7526L87.7797 40.8146ZM108.928 42.7013C108.928 42.8016 108.91 42.9018 108.903 43.0021C108.702 45.5655 108.416 48.0609 108.044 50.4238C108.647 48.2507 108.951 46.0056 108.949 43.7503C108.949 43.4854 108.949 43.224 108.949 42.9627C108.935 42.8768 108.931 42.7873 108.928 42.7013ZM87.7797 40.8146H87.2749H86.2366H83.129H79.9964H77.0069H76.8494C76.8494 41.0186 76.8494 41.2263 76.8494 41.4304C76.8494 41.6631 76.8494 41.8958 76.8494 42.1249L76.9461 42.218C76.9138 42.2538 76.8816 42.2824 76.8494 42.3147V42.4543C77.8948 42.4543 78.9438 42.4543 79.9856 42.4543H80.2541H83.1183L86.2151 42.4292L89.2762 42.3934L92.2943 42.3505C92.3122 41.8099 92.3301 41.2764 92.3444 40.7251H92.7526L87.7797 40.8146ZM87.7797 40.8146H87.2749H86.2366H83.129H79.9964H77.0069H76.8494C76.8494 41.0186 76.8494 41.2263 76.8494 41.4304C76.8494 41.6631 76.8494 41.8958 76.8494 42.1249L76.9461 42.218C76.9138 42.2538 76.8816 42.2824 76.8494 42.3147V42.4543C77.8948 42.4543 78.9438 42.4543 79.9856 42.4543H80.2541H83.1183L86.2151 42.4292L89.2762 42.3934L92.2943 42.3505C92.3122 41.8099 92.3301 41.2764 92.3444 40.7251H92.7526L87.7797 40.8146ZM87.7797 40.8146H87.2749H86.2366H83.129H79.9964H77.0069H76.8494C76.8494 41.0186 76.8494 41.2263 76.8494 41.4304C76.8494 41.6631 76.8494 41.8958 76.8494 42.1249L76.9461 42.218C76.9138 42.2538 76.8816 42.2824 76.8494 42.3147V42.4543C77.8948 42.4543 78.9438 42.4543 79.9856 42.4543H80.2541H83.1183L86.2151 42.4292L89.2762 42.3934L92.2943 42.3505C92.3122 41.8099 92.3301 41.2764 92.3444 40.7251H92.7526L87.7797 40.8146ZM87.7797 40.8146H87.2749H86.2366H83.129H79.9964H77.0069H76.8494C76.8494 41.0186 76.8494 41.2263 76.8494 41.4304C76.8494 41.6631 76.8494 41.8958 76.8494 42.1249L76.9461 42.218C76.9138 42.2538 76.8816 42.2824 76.8494 42.3147V42.4543C77.8948 42.4543 78.9438 42.4543 79.9856 42.4543H80.2541H83.1183L86.2151 42.4292L89.2762 42.3934L92.2943 42.3505C92.3122 41.8099 92.3301 41.2764 92.3444 40.7251H92.7526L87.7797 40.8146ZM87.7797 40.8146H87.2749H86.2366H83.129H79.9964H77.0069H76.8494C76.8494 41.0186 76.8494 41.2263 76.8494 41.4304C76.8494 41.6631 76.8494 41.8958 76.8494 42.1249L76.9461 42.218C76.9138 42.2538 76.8816 42.2824 76.8494 42.3147V42.4543C77.8948 42.4543 78.9438 42.4543 79.9856 42.4543H80.2541H83.1183L86.2151 42.4292L89.2762 42.3934L92.2943 42.3505C92.3122 41.8099 92.3301 41.2764 92.3444 40.7251H92.7526L87.7797 40.8146ZM87.7797 40.8146H87.2749H86.2366H83.129H79.9964H77.0069H76.8494C76.8494 41.0186 76.8494 41.2263 76.8494 41.4304C76.8494 41.6631 76.8494 41.8958 76.8494 42.1249L76.9461 42.218C76.9138 42.2538 76.8816 42.2824 76.8494 42.3147V42.4543C77.8948 42.4543 78.9438 42.4543 79.9856 42.4543H80.2541H83.1183L86.2151 42.4292L89.2762 42.3934L92.2943 42.3505C92.3122 41.8099 92.3301 41.2764 92.3444 40.7251H92.7526L87.7797 40.8146ZM87.7797 40.8146H87.2749H86.2366H83.129H79.9964H77.0069H76.8494C76.8494 41.0186 76.8494 41.2263 76.8494 41.4304C76.8494 41.6631 76.8494 41.8958 76.8494 42.1249L76.9461 42.218C76.9138 42.2538 76.8816 42.2824 76.8494 42.3147V42.4543C77.8948 42.4543 78.9438 42.4543 79.9856 42.4543H80.2541H83.1183L86.2151 42.4292L89.2762 42.3934L92.2943 42.3505C92.3122 41.8099 92.3301 41.2764 92.3444 40.7251H92.7526L87.7797 40.8146ZM87.7797 40.8146H87.2749H86.2366H83.129H79.9964H77.0069H76.8494C76.8494 41.0186 76.8494 41.2263 76.8494 41.4304C76.8494 41.6631 76.8494 41.8958 76.8494 42.1249L76.9461 42.218L76.8458 42.3147V42.4579C77.8912 42.4579 78.9402 42.4579 79.982 42.4579H80.2506H83.1147L86.2116 42.4328L89.2726 42.397L92.2907 42.354C92.3086 41.8134 92.3265 41.28 92.3408 40.7286H92.749L87.7797 40.8146ZM87.7797 40.8146H87.2749H86.2366H83.129H79.9964H77.0069H76.8494C76.8494 41.0186 76.8494 41.2263 76.8494 41.4304C76.8494 41.6631 76.8494 41.8958 76.8494 42.1249L76.9461 42.218L76.8458 42.3147V42.4579C77.8912 42.4579 78.9402 42.4579 79.982 42.4579H80.2506H83.1147L86.2116 42.4328L89.2726 42.397L92.2907 42.354C92.3086 41.8134 92.3265 41.28 92.3408 40.7286H92.749L87.7797 40.8146ZM92.3337 40.7644H92.7418L87.7797 40.8217H87.2749H86.2366H83.129H79.9964H77.0069H76.8494C76.8494 41.0258 76.8494 41.2334 76.8494 41.4375C76.8494 41.6702 76.8494 41.9029 76.8494 42.1321L76.9461 42.2252L76.8458 42.3218V42.465H76.0116V43.1417C76.0116 48.4654 76.0116 53.5063 75.983 57.7524C81.2459 57.7524 86.5051 57.6271 91.5245 57.3944C91.7823 55.4217 92.0079 53.2808 92.1905 51.0181C92.2299 50.524 92.2692 50.0264 92.305 49.5216C92.4733 47.2124 92.6022 44.7993 92.6917 42.329H92.2835C92.3014 41.8492 92.3194 41.3086 92.3337 40.7644ZM92.7633 27.3996C92.7633 27.1562 92.7633 26.9127 92.7454 26.6836C92.7168 25.81 92.6881 24.9472 92.6523 24.0915C87.282 23.977 81.654 23.9161 76.008 23.9125C76.008 29.1217 76.008 34.6531 76.008 40.0233V40.8898H76.1584C76.2252 40.8933 76.2921 40.8933 76.3589 40.8898H76.5164H79.5059H82.6385H85.7461H86.7844H87.2892L92.2513 40.8325C92.8707 36.3465 92.8779 31.7997 92.7633 27.3996ZM87.7797 40.8146H87.2749H86.2366H83.129H79.9964H77.0069H76.8494C76.8494 41.0186 76.8494 41.2263 76.8494 41.4304C76.8494 41.6631 76.8494 41.8958 76.8494 42.1249L76.9461 42.218L76.8458 42.3147V42.4579C77.8912 42.4579 78.9402 42.4579 79.982 42.4579H80.2506H83.1147L86.2116 42.4328L89.2726 42.397L92.2907 42.354C92.3086 41.8134 92.3265 41.28 92.3408 40.7286H92.749L87.7797 40.8146ZM87.7797 40.8146H87.2749H86.2366H83.129H79.9964H77.0069H76.8494C76.8494 41.0186 76.8494 41.2263 76.8494 41.4304C76.8494 41.6631 76.8494 41.8958 76.8494 42.1249L76.9461 42.218L76.8458 42.3147V42.4579C77.8912 42.4579 78.9402 42.4579 79.982 42.4579H80.2506H83.1147L86.2116 42.4328L89.2726 42.397L92.2907 42.354C92.3086 41.8134 92.3265 41.28 92.3408 40.7286H92.749L87.7797 40.8146ZM87.7797 40.8146H87.2749H86.2366H83.129H79.9964H77.0069H76.8494C76.8494 41.0186 76.8494 41.2263 76.8494 41.4304C76.8494 41.6631 76.8494 41.8958 76.8494 42.1249L76.9461 42.218L76.8458 42.3147V42.4579C77.8912 42.4579 78.9402 42.4579 79.982 42.4579H80.2506H83.1147L86.2116 42.4328L89.2726 42.397L92.2907 42.354C92.3086 41.8134 92.3265 41.28 92.3408 40.7286H92.749L87.7797 40.8146ZM87.7797 40.8146H87.2749H86.2366H83.129H79.9964H77.0069H76.8494C76.8494 41.0186 76.8494 41.2263 76.8494 41.4304C76.8494 41.6631 76.8494 41.8958 76.8494 42.1249L76.9461 42.218C76.9138 42.2538 76.8816 42.2824 76.8494 42.3147V42.4543C77.8948 42.4543 78.9438 42.4543 79.9856 42.4543H80.2541H83.1183L86.2151 42.4292L89.2762 42.3934L92.2943 42.3505C92.3122 41.8099 92.3301 41.2764 92.3444 40.7251H92.7526L87.7797 40.8146ZM87.7797 40.8146H87.2749H86.2366H83.129H79.9964H77.0069H76.8494C76.8494 41.0186 76.8494 41.2263 76.8494 41.4304C76.8494 41.6631 76.8494 41.8958 76.8494 42.1249L76.9461 42.218C76.9138 42.2538 76.8816 42.2824 76.8494 42.3147V42.4543C77.8948 42.4543 78.9438 42.4543 79.9856 42.4543H80.2541H83.1183L86.2151 42.4292L89.2762 42.3934L92.2943 42.3505C92.3122 41.8099 92.3301 41.2764 92.3444 40.7251H92.7526L87.7797 40.8146ZM87.7797 40.8146H87.2749H86.2366H83.129H79.9964H77.0069H76.8494C76.8494 41.0186 76.8494 41.2263 76.8494 41.4304C76.8494 41.6631 76.8494 41.8958 76.8494 42.1249L76.9461 42.218C76.9138 42.2538 76.8816 42.2824 76.8494 42.3147V42.4543C77.8948 42.4543 78.9438 42.4543 79.9856 42.4543H80.2541H83.1183L86.2151 42.4292L89.2762 42.3934L92.2943 42.3505C92.3122 41.8099 92.3301 41.2764 92.3444 40.7251H92.7526L87.7797 40.8146ZM87.7797 40.8146H87.2749H86.2366H83.129H79.9964H77.0069H76.8494C76.8494 41.0186 76.8494 41.2263 76.8494 41.4304C76.8494 41.6631 76.8494 41.8958 76.8494 42.1249L76.9461 42.218C76.9138 42.2538 76.8816 42.2824 76.8494 42.3147V42.4543C77.8948 42.4543 78.9438 42.4543 79.9856 42.4543H80.2541H83.1183L86.2151 42.4292L89.2762 42.3934L92.2943 42.3505C92.3122 41.8099 92.3301 41.2764 92.3444 40.7251H92.7526L87.7797 40.8146ZM87.7797 40.8146H87.2749H86.2366H83.129H79.9964H77.0069H76.8494C76.8494 41.0186 76.8494 41.2263 76.8494 41.4304C76.8494 41.6631 76.8494 41.8958 76.8494 42.1249L76.9461 42.218C76.9138 42.2538 76.8816 42.2824 76.8494 42.3147V42.4543C77.8948 42.4543 78.9438 42.4543 79.9856 42.4543H80.2541H83.1183L86.2151 42.4292L89.2762 42.3934L92.2943 42.3505C92.3122 41.8099 92.3301 41.2764 92.3444 40.7251H92.7526L87.7797 40.8146ZM87.7797 40.8146H87.2749H86.2366H83.129H79.9964H77.0069H76.8494C76.8494 41.0186 76.8494 41.2263 76.8494 41.4304C76.8494 41.6631 76.8494 41.8958 76.8494 42.1249L76.9461 42.218C76.9138 42.2538 76.8816 42.2824 76.8494 42.3147V42.4543C77.8948 42.4543 78.9438 42.4543 79.9856 42.4543H80.2541H83.1183L86.2151 42.4292L89.2762 42.3934L92.2943 42.3505C92.3122 41.8099 92.3301 41.2764 92.3444 40.7251H92.7526L87.7797 40.8146ZM87.7797 40.8146H87.2749H86.2366H83.129H79.9964H77.0069H76.8494C76.8494 41.0186 76.8494 41.2263 76.8494 41.4304C76.8494 41.6631 76.8494 41.8958 76.8494 42.1249L76.9461 42.218C76.9138 42.2538 76.8816 42.2824 76.8494 42.3147V42.4543C77.8948 42.4543 78.9438 42.4543 79.9856 42.4543H80.2541H83.1183L86.2151 42.4292L89.2762 42.3934L92.2943 42.3505C92.3122 41.8099 92.3301 41.2764 92.3444 40.7251H92.7526L87.7797 40.8146ZM108.817 41.1726L108.752 40.4136H108.713C104.639 40.5496 100.074 40.657 95.2372 40.7322H94.3099C94.3099 40.4136 94.3314 40.0914 94.3386 39.7692C94.4818 34.5564 94.4388 29.1861 94.2097 24.113H94.8147L96.3005 24.1524L99.5227 24.2491C99.0453 23.8696 98.5548 23.5115 98.0512 23.175L98.0047 23.0962C97.7648 22.9351 97.5249 22.7776 97.2886 22.6272H97.217L95.6453 22.5771L94.1488 22.5377C94.1202 22.0043 94.0915 21.4637 94.0593 20.9517C93.5366 20.713 93.0044 20.5006 92.4626 20.3144C92.5055 21.0305 92.5449 21.7585 92.5807 22.4984C87.2427 22.3659 81.6289 22.2979 76.008 22.2943C76.008 21.5783 76.008 20.8622 76.008 20.1462C75.4495 20.3323 74.8982 20.5436 74.3576 20.7691C74.3576 21.2704 74.3576 21.7716 74.3576 22.28H71.3359C70.5001 22.7723 69.6944 23.3139 68.9229 23.9018C70.713 23.9018 72.5388 23.8803 74.354 23.8767C74.3361 29.3651 74.3325 35.2152 74.354 40.8396C69.3847 40.8396 64.4369 40.8038 59.6753 40.743H59.2349C59.1669 41.2764 59.1203 41.817 59.0881 42.3648C59.2993 42.3648 59.5141 42.3648 59.729 42.3648C62.432 42.4078 65.1995 42.44 68.0028 42.4579H68.9694H70.6091H72.2238H74.3433C74.3433 48.0322 74.3898 53.3201 74.4328 57.7417C70.6485 57.7417 66.8714 57.6557 63.1946 57.5233C63.4846 57.9672 63.7889 58.4004 64.1147 58.8229C67.5015 58.9446 70.9671 59.0091 74.4363 59.0198C74.4721 62.242 74.5187 64.9235 74.5724 66.8246V66.932C75.0163 67.1158 75.4674 67.284 75.9257 67.4368V67.3831C75.9472 65.4677 75.9615 62.5892 75.9722 59.0735C81.1742 59.0735 86.3727 58.9446 91.3384 58.7155C91.2119 59.5819 91.0758 60.4065 90.9302 61.1894C90.8873 61.44 90.8407 61.6834 90.7942 61.9233C90.2715 64.6085 89.645 66.7458 88.9182 68.1099C86.0326 68.2674 83.0789 68.3748 80.1074 68.4214C81.3854 68.6202 82.677 68.7195 83.9704 68.7185C85.8168 68.721 87.6577 68.5168 89.4588 68.1099L89.738 68.0454L90.2285 67.9273C91.2811 66.0298 92.1403 62.7575 92.7991 58.6367C96.9951 58.4076 101.005 58.0925 104.689 57.6951H104.775C105.054 57.2762 105.323 56.8502 105.577 56.4134H105.494C101.642 56.8251 97.4211 57.1295 92.9888 57.3765C93.6638 52.3887 94.088 47.3701 94.2598 42.3397C99.2005 42.2466 103.869 42.1178 108.047 41.9495H108.362L108.878 41.928C108.863 41.6738 108.842 41.416 108.817 41.1547V41.1726Z" fill="#92E3A9"/>
<path opacity="0.8" d="M87.7797 40.8146H87.2749H86.2366H83.129H79.9964H77.0069H76.8494C76.8494 41.0186 76.8494 41.2263 76.8494 41.4304C76.8494 41.6631 76.8494 41.8958 76.8494 42.1249L76.9461 42.218C76.9138 42.2538 76.8816 42.2824 76.8494 42.3147V42.4543C77.8948 42.4543 78.9438 42.4543 79.9856 42.4543H80.2541H83.1183L86.2151 42.4292L89.2762 42.3934L92.2943 42.3505C92.3122 41.8099 92.3301 41.2764 92.3444 40.7251H92.7526L87.7797 40.8146ZM108.935 42.9627C108.935 42.8768 108.935 42.7873 108.935 42.7013C108.935 42.8016 108.917 42.9018 108.91 43.0021C108.709 45.5655 108.423 48.0609 108.051 50.4238C108.654 48.2507 108.959 46.0056 108.956 43.7503C108.949 43.4854 108.946 43.224 108.935 42.9627ZM87.7797 40.8146H87.2749H86.2366H83.129H79.9964H77.0069H76.8494C76.8494 41.0186 76.8494 41.2263 76.8494 41.4304C76.8494 41.6631 76.8494 41.8958 76.8494 42.1249L76.9461 42.218C76.9138 42.2538 76.8816 42.2824 76.8494 42.3147V42.4543C77.8948 42.4543 78.9438 42.4543 79.9856 42.4543H80.2541H83.1183L86.2151 42.4292L89.2762 42.3934L92.2943 42.3505C92.3122 41.8099 92.3301 41.2764 92.3444 40.7251H92.7526L87.7797 40.8146ZM87.7797 40.8146H87.2749H86.2366H83.129H79.9964H77.0069H76.8494C76.8494 41.0186 76.8494 41.2263 76.8494 41.4304C76.8494 41.6631 76.8494 41.8958 76.8494 42.1249L76.9461 42.218C76.9138 42.2538 76.8816 42.2824 76.8494 42.3147V42.4543C77.8948 42.4543 78.9438 42.4543 79.9856 42.4543H80.2541H83.1183L86.2151 42.4292L89.2762 42.3934L92.2943 42.3505C92.3122 41.8099 92.3301 41.2764 92.3444 40.7251H92.7526L87.7797 40.8146ZM87.7797 40.8146H87.2749H86.2366H83.129H79.9964H77.0069H76.8494C76.8494 41.0186 76.8494 41.2263 76.8494 41.4304C76.8494 41.6631 76.8494 41.8958 76.8494 42.1249L76.9461 42.218C76.9138 42.2538 76.8816 42.2824 76.8494 42.3147V42.4543C77.8948 42.4543 78.9438 42.4543 79.9856 42.4543H80.2541H83.1183L86.2151 42.4292L89.2762 42.3934L92.2943 42.3505C92.3122 41.8099 92.3301 41.2764 92.3444 40.7251H92.7526L87.7797 40.8146ZM87.7797 40.8146H87.2749H86.2366H83.129H79.9964H77.0069H76.8494C76.8494 41.0186 76.8494 41.2263 76.8494 41.4304C76.8494 41.6631 76.8494 41.8958 76.8494 42.1249L76.9461 42.218C76.9138 42.2538 76.8816 42.2824 76.8494 42.3147V42.4543C77.8948 42.4543 78.9438 42.4543 79.9856 42.4543H80.2541H83.1183L86.2151 42.4292L89.2762 42.3934L92.2943 42.3505C92.3122 41.8099 92.3301 41.2764 92.3444 40.7251H92.7526L87.7797 40.8146ZM87.7797 40.8146H87.2749H86.2366H83.129H79.9964H77.0069H76.8494C76.8494 41.0186 76.8494 41.2263 76.8494 41.4304C76.8494 41.6631 76.8494 41.8958 76.8494 42.1249L76.9461 42.218C76.9138 42.2538 76.8816 42.2824 76.8494 42.3147V42.4543C77.8948 42.4543 78.9438 42.4543 79.9856 42.4543H80.2541H83.1183L86.2151 42.4292L89.2762 42.3934L92.2943 42.3505C92.3122 41.8099 92.3301 41.2764 92.3444 40.7251H92.7526L87.7797 40.8146ZM87.7797 40.8146H87.2749H86.2366H83.129H79.9964H77.0069H76.8494C76.8494 41.0186 76.8494 41.2263 76.8494 41.4304C76.8494 41.6631 76.8494 41.8958 76.8494 42.1249L76.9461 42.218C76.9138 42.2538 76.8816 42.2824 76.8494 42.3147V42.4543C77.8948 42.4543 78.9438 42.4543 79.9856 42.4543H80.2541H83.1183L86.2151 42.4292L89.2762 42.3934L92.2943 42.3505C92.3122 41.8099 92.3301 41.2764 92.3444 40.7251H92.7526L87.7797 40.8146ZM87.7797 40.8146H87.2749H86.2366H83.129H79.9964H77.0069H76.8494C76.8494 41.0186 76.8494 41.2263 76.8494 41.4304C76.8494 41.6631 76.8494 41.8958 76.8494 42.1249L76.9461 42.218C76.9138 42.2538 76.8816 42.2824 76.8494 42.3147V42.4543C77.8948 42.4543 78.9438 42.4543 79.9856 42.4543H80.2541H83.1183L86.2151 42.4292L89.2762 42.3934L92.2943 42.3505C92.3122 41.8099 92.3301 41.2764 92.3444 40.7251H92.7526L87.7797 40.8146ZM87.7797 40.8146H87.2749H86.2366H83.129H79.9964H77.0069H76.8494C76.8494 41.0186 76.8494 41.2263 76.8494 41.4304C76.8494 41.6631 76.8494 41.8958 76.8494 42.1249L76.9461 42.218L76.8458 42.3147V42.4579C77.8912 42.4579 78.9402 42.4579 79.982 42.4579H80.2506H83.1147L86.2116 42.4328L89.2726 42.397L92.2907 42.354C92.3086 41.8134 92.3265 41.28 92.3408 40.7286H92.749L87.7797 40.8146ZM87.7797 40.8146H87.2749H86.2366H83.129H79.9964H77.0069H76.8494C76.8494 41.0186 76.8494 41.2263 76.8494 41.4304C76.8494 41.6631 76.8494 41.8958 76.8494 42.1249L76.9461 42.218L76.8458 42.3147V42.4579C77.8912 42.4579 78.9402 42.4579 79.982 42.4579H80.2506H83.1147L86.2116 42.4328L89.2726 42.397L92.2907 42.354C92.3086 41.8134 92.3265 41.28 92.3408 40.7286H92.749L87.7797 40.8146ZM87.7797 40.8146H87.2749H86.2366H83.129H79.9964H77.0069H76.8494C76.8494 41.0186 76.8494 41.2263 76.8494 41.4304C76.8494 41.6631 76.8494 41.8958 76.8494 42.1249L76.9461 42.218L76.8458 42.3147V42.4579C77.8912 42.4579 78.9402 42.4579 79.982 42.4579H80.2506H83.1147L86.2116 42.4328L89.2726 42.397L92.2907 42.354C92.3086 41.8134 92.3265 41.28 92.3408 40.7286H92.749L87.7797 40.8146ZM87.7797 40.8146H87.2749H86.2366H83.129H79.9964H77.0069H76.8494C76.8494 41.0186 76.8494 41.2263 76.8494 41.4304C76.8494 41.6631 76.8494 41.8958 76.8494 42.1249L76.9461 42.218L76.8458 42.3147V42.4579C77.8912 42.4579 78.9402 42.4579 79.982 42.4579H80.2506H83.1147L86.2116 42.4328L89.2726 42.397L92.2907 42.354C92.3086 41.8134 92.3265 41.28 92.3408 40.7286H92.749L87.7797 40.8146ZM87.7797 40.8146H87.2749H86.2366H83.129H79.9964H77.0069H76.8494C76.8494 41.0186 76.8494 41.2263 76.8494 41.4304C76.8494 41.6631 76.8494 41.8958 76.8494 42.1249L76.9461 42.218L76.8458 42.3147V42.4579C77.8912 42.4579 78.9402 42.4579 79.982 42.4579H80.2506H83.1147L86.2116 42.4328L89.2726 42.397L92.2907 42.354C92.3086 41.8134 92.3265 41.28 92.3408 40.7286H92.749L87.7797 40.8146ZM87.7797 40.8146H87.2749H86.2366H83.129H79.9964H77.0069H76.8494C76.8494 41.0186 76.8494 41.2263 76.8494 41.4304C76.8494 41.6631 76.8494 41.8958 76.8494 42.1249L76.9461 42.218L76.8458 42.3147V42.4579C77.8912 42.4579 78.9402 42.4579 79.982 42.4579H80.2506H83.1147L86.2116 42.4328L89.2726 42.397L92.2907 42.354C92.3086 41.8134 92.3265 41.28 92.3408 40.7286H92.749L87.7797 40.8146ZM87.7797 40.8146H87.2749H86.2366H83.129H79.9964H77.0069H76.8494C76.8494 41.0186 76.8494 41.2263 76.8494 41.4304C76.8494 41.6631 76.8494 41.8958 76.8494 42.1249L76.9461 42.218C76.9138 42.2538 76.8816 42.2824 76.8494 42.3147V42.4543C77.8948 42.4543 78.9438 42.4543 79.9856 42.4543H80.2541H83.1183L86.2151 42.4292L89.2762 42.3934L92.2943 42.3505C92.3122 41.8099 92.3301 41.2764 92.3444 40.7251H92.7526L87.7797 40.8146ZM87.7797 40.8146H87.2749H86.2366H83.129H79.9964H77.0069H76.8494C76.8494 41.0186 76.8494 41.2263 76.8494 41.4304C76.8494 41.6631 76.8494 41.8958 76.8494 42.1249L76.9461 42.218C76.9138 42.2538 76.8816 42.2824 76.8494 42.3147V42.4543C77.8948 42.4543 78.9438 42.4543 79.9856 42.4543H80.2541H83.1183L86.2151 42.4292L89.2762 42.3934L92.2943 42.3505C92.3122 41.8099 92.3301 41.2764 92.3444 40.7251H92.7526L87.7797 40.8146ZM87.7797 40.8146H87.2749H86.2366H83.129H79.9964H77.0069H76.8494C76.8494 41.0186 76.8494 41.2263 76.8494 41.4304C76.8494 41.6631 76.8494 41.8958 76.8494 42.1249L76.9461 42.218C76.9138 42.2538 76.8816 42.2824 76.8494 42.3147V42.4543C77.8948 42.4543 78.9438 42.4543 79.9856 42.4543H80.2541H83.1183L86.2151 42.4292L89.2762 42.3934L92.2943 42.3505C92.3122 41.8099 92.3301 41.2764 92.3444 40.7251H92.7526L87.7797 40.8146ZM87.7797 40.8146H87.2749H86.2366H83.129H79.9964H77.0069H76.8494C76.8494 41.0186 76.8494 41.2263 76.8494 41.4304C76.8494 41.6631 76.8494 41.8958 76.8494 42.1249L76.9461 42.218C76.9138 42.2538 76.8816 42.2824 76.8494 42.3147V42.4543C77.8948 42.4543 78.9438 42.4543 79.9856 42.4543H80.2541H83.1183L86.2151 42.4292L89.2762 42.3934L92.2943 42.3505C92.3122 41.8099 92.3301 41.2764 92.3444 40.7251H92.7526L87.7797 40.8146ZM87.7797 40.8146H87.2749H86.2366H83.129H79.9964H77.0069H76.8494C76.8494 41.0186 76.8494 41.2263 76.8494 41.4304C76.8494 41.6631 76.8494 41.8958 76.8494 42.1249L76.9461 42.218C76.9138 42.2538 76.8816 42.2824 76.8494 42.3147V42.4543C77.8948 42.4543 78.9438 42.4543 79.9856 42.4543H80.2541H83.1183L86.2151 42.4292L89.2762 42.3934L92.2943 42.3505C92.3122 41.8099 92.3301 41.2764 92.3444 40.7251H92.7526L87.7797 40.8146ZM87.7797 40.8146H87.2749H86.2366H83.129H79.9964H77.0069H76.8494C76.8494 41.0186 76.8494 41.2263 76.8494 41.4304C76.8494 41.6631 76.8494 41.8958 76.8494 42.1249L76.9461 42.218C76.9138 42.2538 76.8816 42.2824 76.8494 42.3147V42.4543C77.8948 42.4543 78.9438 42.4543 79.9856 42.4543H80.2541H83.1183L86.2151 42.4292L89.2762 42.3934L92.2943 42.3505C92.3122 41.8099 92.3301 41.2764 92.3444 40.7251H92.7526L87.7797 40.8146ZM87.7797 40.8146H87.2749H86.2366H83.129H79.9964H77.0069H76.8494C76.8494 41.0186 76.8494 41.2263 76.8494 41.4304C76.8494 41.6631 76.8494 41.8958 76.8494 42.1249L76.9461 42.218C76.9138 42.2538 76.8816 42.2824 76.8494 42.3147V42.4543C77.8948 42.4543 78.9438 42.4543 79.9856 42.4543H80.2541H83.1183L86.2151 42.4292L89.2762 42.3934L92.2943 42.3505C92.3122 41.8099 92.3301 41.2764 92.3444 40.7251H92.7526L87.7797 40.8146ZM108.817 41.1726L108.752 40.4136H108.713C104.639 40.5496 100.074 40.657 95.2372 40.7322H94.3099C94.3099 40.4136 94.3314 40.0914 94.3386 39.7692C94.4818 34.5564 94.4388 29.1861 94.2097 24.113H94.8147L96.3005 24.1524L99.5227 24.2491C99.0453 23.8696 98.5548 23.5115 98.0512 23.175L98.0047 23.0962C97.7648 22.9351 97.5249 22.7776 97.2886 22.6272H97.217L95.6453 22.5771L94.1488 22.5377C94.1202 22.0043 94.0915 21.4637 94.0593 20.9517C93.5366 20.713 93.0044 20.5006 92.4626 20.3144C92.5055 21.0305 92.5449 21.7585 92.5807 22.4984C87.2427 22.3659 81.6289 22.2979 76.008 22.2943C76.008 21.5783 76.008 20.8622 76.008 20.1462C75.4495 20.3323 74.8982 20.5436 74.3576 20.7691C74.3576 21.2704 74.3576 21.7716 74.3576 22.28H71.3359C70.5001 22.7723 69.6944 23.3139 68.9229 23.9018C70.713 23.9018 72.5388 23.8803 74.354 23.8767C74.3361 29.3651 74.3325 35.2152 74.354 40.8396C69.3847 40.8396 64.4369 40.8038 59.6753 40.743H59.2349C59.1669 41.2764 59.1203 41.817 59.0881 42.3648C59.2993 42.3648 59.5141 42.3648 59.729 42.3648C62.432 42.4078 65.1995 42.44 68.0028 42.4579H68.9694H70.6091H72.2238H74.3433C74.3433 48.0322 74.3898 53.3201 74.4328 57.7417C70.6485 57.7417 66.8714 57.6557 63.1946 57.5233C63.4846 57.9672 63.7889 58.4004 64.1147 58.8229C67.5015 58.9446 70.9671 59.0091 74.4363 59.0198C74.4721 62.242 74.5187 64.9235 74.5724 66.8246V66.932C75.0163 67.1158 75.4674 67.284 75.9257 67.4368V67.3831C75.9472 65.4677 75.9615 62.5892 75.9722 59.0735C81.1742 59.0735 86.3727 58.9446 91.3384 58.7155C91.2119 59.5819 91.0758 60.4065 90.9302 61.1894C90.8873 61.44 90.8407 61.6834 90.7942 61.9233C90.2715 64.6085 89.645 66.7458 88.9182 68.1099C86.0326 68.2674 83.0789 68.3748 80.1074 68.4214C81.3854 68.6202 82.677 68.7195 83.9704 68.7185C85.8168 68.721 87.6577 68.5168 89.4588 68.1099L89.738 68.0454L90.2285 67.9273C91.2811 66.0298 92.1403 62.7575 92.7991 58.6367C96.9951 58.4076 101.005 58.0925 104.689 57.6951H104.775C105.054 57.2762 105.323 56.8502 105.577 56.4134H105.494C101.642 56.8251 97.4211 57.1295 92.9888 57.3765C93.6638 52.3887 94.088 47.3701 94.2598 42.3397C99.2005 42.2466 103.869 42.1178 108.047 41.9495H108.362L108.878 41.928C108.863 41.6738 108.842 41.416 108.817 41.1547V41.1726ZM92.305 49.586C92.2692 50.0908 92.2299 50.5885 92.1905 51.0825C92.0079 53.3452 91.7823 55.4862 91.5246 57.4588C86.5123 57.6951 81.2459 57.8169 75.983 57.8169C75.983 53.5708 76.0045 48.5299 76.0116 43.2061V42.5295H76.8494C77.8948 42.5295 78.9438 42.5295 79.9856 42.5295H80.2541H83.1183L86.2151 42.5044L89.2762 42.4686L92.2943 42.4257H92.7024C92.6022 44.853 92.4733 47.2661 92.305 49.5753V49.586ZM92.7418 40.768L87.7797 40.8253H87.2749H86.2366H83.129H79.9964H77.0069H76.8494C76.7826 40.8289 76.7157 40.8289 76.6489 40.8253H76.4914V39.9589C76.4914 34.5886 76.4914 29.068 76.4914 23.8481C82.1373 23.8481 87.7761 23.9125 93.1356 24.0271C93.1714 24.8828 93.2001 25.7456 93.2287 26.6191C93.2287 26.859 93.2287 27.1025 93.2466 27.3352C92.8779 31.7997 92.8707 36.3465 92.7418 40.7573V40.768Z" fill="white"/>
<path d="M92.6917 42.3826C92.6022 44.853 92.4733 47.266 92.305 49.5752C92.2692 50.08 92.2299 50.5777 92.1905 51.0717C92.0079 53.3344 91.7823 55.4754 91.5246 57.448C86.5123 57.6843 81.2459 57.8061 75.983 57.8061C75.983 53.56 76.0045 48.5191 76.0116 43.1953V42.5187H76.8494C77.8948 42.5187 78.9438 42.5187 79.9856 42.5187H80.2541H83.1183L86.2151 42.4936L89.2762 42.4578L92.2943 42.4149L92.6917 42.3826Z" fill="#92E3A9"/>
<path d="M92.7418 40.7573L87.7797 40.8146H87.2749H86.2366H83.129H79.9964H77.0069H76.8494C76.7826 40.8181 76.7157 40.8181 76.6489 40.8146H76.4914V39.9482C76.4914 34.5779 76.4914 29.0572 76.4914 23.8373C82.1373 23.8373 87.7761 23.9018 93.1356 24.0164C93.1714 24.872 93.2001 25.7348 93.2287 26.6084C93.2287 26.8483 93.2287 27.0917 93.2466 27.3244C92.8779 31.7997 92.8707 36.3465 92.7418 40.7573Z" fill="#92E3A9"/>
<path d="M75.9293 42.2789L74.5796 41.1117L75.9293 39.9374L77.279 41.1117L75.9293 42.2789Z" fill="#263238"/>
<path d="M98.0763 23.1821L98.0298 23.1034C97.7899 22.9423 97.55 22.7847 97.3137 22.6344C97.0774 22.484 96.8304 22.3301 96.5977 22.1904H96.5547L95.6812 22.5484L95.3733 22.6809L94.3171 23.6332L94.847 24.0987L95.6239 24.7861L96.3399 24.138L96.4903 24.002L98.1766 23.286L98.0763 23.1821ZM92.7454 26.6728L91.8432 25.8744C91.0126 26.6239 90.1665 27.3805 89.3049 28.1443L90.6331 29.3401L92.7633 27.4175L93.1607 27.0595L92.7454 26.6728ZM86.6985 30.4642L84.042 32.82L85.381 34.005C86.2736 33.2174 87.1579 32.4321 88.0339 31.6493L86.6985 30.4642ZM81.3497 35.1937L78.6395 37.5745L79.9856 38.7559L82.6923 36.3823L81.3497 35.1937Z" fill="#263238"/>
<g opacity="0.5">
<path d="M103.282 31.6349H101.875L100.479 33.1315L101.528 34.2771C101.85 33.9191 102.168 33.5611 102.484 33.2317H103.282C103.293 32.7018 103.289 32.1684 103.282 31.6349ZM98.4737 35.2939C97.7911 36.0099 97.0977 36.7391 96.3936 37.4814C96.7564 37.8633 97.1144 38.244 97.4677 38.6235C98.1694 37.8931 98.8604 37.1651 99.5406 36.4396C99.1826 36.0601 98.8317 35.677 98.4737 35.2939ZM79.9964 40.8611C79.9964 41.4124 79.9964 41.9638 79.9964 42.5115H80.2649H83.129C83.129 41.9674 83.129 41.416 83.1505 40.8647L79.9964 40.8611ZM87.7797 40.8145H87.2749H86.2366C86.2366 41.3659 86.2152 41.9101 86.2044 42.4543L89.2655 42.4185C89.2834 41.8778 89.2977 41.3444 89.3084 40.7859L87.7797 40.8145ZM95.2515 40.7214L94.3529 39.7727L94.2634 39.6796C93.9054 40.0376 93.5474 40.3957 93.2073 40.7537H92.7418H92.3337C92.3337 41.2979 92.3015 41.8277 92.2836 42.3791H92.6917L93.8051 42.3612L95.3375 40.811L95.2515 40.7214Z" fill="black"/>
<path d="M76.8494 42.5223H75.1775V40.8682H76.8494C76.8494 41.4232 76.8494 41.9709 76.8494 42.5223Z" fill="black"/>
<g opacity="0.2">
<path d="M103.282 31.6349H101.875L100.479 33.1315L101.528 34.2771C101.85 33.9191 102.168 33.5611 102.484 33.2317H103.282C103.293 32.7018 103.289 32.1684 103.282 31.6349ZM98.4737 35.2939C97.7911 36.0099 97.0977 36.7391 96.3936 37.4814C96.7564 37.8633 97.1144 38.244 97.4677 38.6235C98.1694 37.8931 98.8604 37.1651 99.5406 36.4396C99.1826 36.0601 98.8317 35.677 98.4737 35.2939ZM79.9964 40.8611C79.9964 41.4124 79.9964 41.9638 79.9964 42.5115H80.2649H83.129C83.129 41.9674 83.129 41.416 83.1505 40.8647L79.9964 40.8611ZM87.7797 40.8145H87.2749H86.2366C86.2366 41.3659 86.2152 41.9101 86.2044 42.4543L89.2655 42.4185C89.2834 41.8778 89.2977 41.3444 89.3084 40.7859L87.7797 40.8145ZM95.2515 40.7214L94.3529 39.7727L94.2634 39.6796C93.9054 40.0376 93.5474 40.3957 93.2073 40.7537H92.7418H92.3337C92.3337 41.2979 92.3015 41.8277 92.2836 42.3791H92.6917L93.8051 42.3612L95.3375 40.811L95.2515 40.7214Z" fill="black"/>
<path d="M76.8494 42.5223H75.1775V40.8682H76.8494C76.8494 41.4232 76.8494 41.9709 76.8494 42.5223Z" fill="black"/>
</g>
</g>
<g opacity="0.3">
<path d="M75.7753 43.4424L74.5939 42.2788L75.7753 41.1117L76.9568 42.2788L75.7753 43.4424Z" fill="black"/>
<path d="M108.928 42.7013C108.928 42.6798 108.928 42.6584 108.928 42.6369L108.355 41.9495C108.308 41.8922 108.262 41.8313 108.212 41.774L108.04 41.9638C107.399 42.6798 106.74 43.3959 106.074 44.1119C106.368 44.4699 106.654 44.7957 106.937 45.1358C107.6 44.4198 108.255 43.7038 108.888 42.9877C108.901 42.9764 108.912 42.9631 108.921 42.9483C108.935 42.8767 108.931 42.7872 108.928 42.7013ZM79.377 44.6704L78.1956 45.8161C78.9975 46.5966 79.7923 47.3675 80.58 48.1289L81.7614 47.0083C80.9738 46.2397 80.179 45.4604 79.377 44.6704ZM103.865 46.4354C103.111 47.2112 102.34 47.9809 101.553 48.7447C101.853 49.074 102.147 49.4034 102.437 49.7292C103.21 48.9702 103.973 48.2076 104.725 47.4415L103.865 46.4354ZM84.5898 49.7471L84.085 49.2566L82.9071 50.3557L83.863 51.2687L86.4443 51.2221C86.4694 50.7245 86.4944 50.2197 86.5195 49.7113L84.5898 49.7471ZM92.3051 49.5609C91.4816 49.5896 90.6475 49.6146 89.7989 49.6361C89.7667 50.1409 89.7345 50.6422 89.6987 51.1362C90.5317 51.1147 91.3575 51.0885 92.1762 51.0575L92.9137 51.0324C92.9567 50.5383 92.996 50.0407 93.0354 49.5395C92.8027 49.5609 92.5557 49.5717 92.3051 49.5753V49.5609ZM96.2146 49.4213C96.1717 49.9225 96.1251 50.4166 96.075 50.9035C97.1097 50.8605 98.1336 50.8104 99.1396 50.7567C99.1933 50.2698 99.247 49.7793 99.2972 49.2853C98.284 49.3497 97.2565 49.3891 96.2146 49.4356V49.4213Z" fill="black"/>
<g opacity="0.3">
<path d="M75.7753 43.4424L74.5939 42.2788L75.7753 41.1117L76.9568 42.2788L75.7753 43.4424Z" fill="black"/>
<path d="M108.928 42.7013C108.928 42.6798 108.928 42.6584 108.928 42.6369L108.355 41.9495C108.308 41.8922 108.262 41.8313 108.212 41.774L108.04 41.9638C107.399 42.6798 106.74 43.3959 106.074 44.1119C106.368 44.4699 106.654 44.7957 106.937 45.1358C107.6 44.4198 108.255 43.7038 108.888 42.9877C108.901 42.9764 108.912 42.9631 108.921 42.9483C108.935 42.8767 108.931 42.7872 108.928 42.7013ZM79.377 44.6704L78.1956 45.8161C78.9975 46.5966 79.7923 47.3675 80.58 48.1289L81.7614 47.0083C80.9738 46.2397 80.179 45.4604 79.377 44.6704ZM103.865 46.4354C103.111 47.2112 102.34 47.9809 101.553 48.7447C101.853 49.074 102.147 49.4034 102.437 49.7292C103.21 48.9702 103.973 48.2076 104.725 47.4415L103.865 46.4354ZM84.5898 49.7471L84.085 49.2566L82.9071 50.3557L83.863 51.2687L86.4443 51.2221C86.4694 50.7245 86.4944 50.2197 86.5195 49.7113L84.5898 49.7471ZM92.3051 49.5609C91.4816 49.5896 90.6475 49.6146 89.7989 49.6361C89.7667 50.1409 89.7345 50.6422 89.6987 51.1362C90.5317 51.1147 91.3575 51.0885 92.1762 51.0575L92.9137 51.0324C92.9567 50.5383 92.996 50.0407 93.0354 49.5395C92.8027 49.5609 92.5557 49.5717 92.3051 49.5753V49.5609ZM96.2146 49.4213C96.1717 49.9225 96.1251 50.4166 96.075 50.9035C97.1097 50.8605 98.1336 50.8104 99.1396 50.7567C99.1933 50.2698 99.247 49.7793 99.2972 49.2853C98.284 49.3497 97.2565 49.3891 96.2146 49.4356V49.4213Z" fill="black"/>
</g>
</g>
<path d="M91.4064 63.3052C91.3276 63.6453 91.2417 63.9675 91.1558 64.2826V64.3506L91.0699 64.6621C90.9625 65.0416 90.8551 65.4032 90.7405 65.7362C90.719 65.7863 90.7047 65.8364 90.6868 65.8865L90.6223 66.0727C90.6044 66.1336 90.5794 66.1944 90.5579 66.2553C90.53 66.3428 90.4978 66.4288 90.4612 66.5131C90.3109 66.9105 90.1569 67.2721 89.9958 67.5871C89.9314 67.7232 89.8634 67.852 89.7953 67.9773L89.7631 68.0239L89.4839 68.0883C87.6828 68.4953 85.8419 68.6995 83.9954 68.697C82.702 68.698 81.4105 68.5986 80.1324 68.3998C79.3262 68.2758 78.5268 68.1109 77.7373 67.9057C77.7373 67.784 77.7373 67.6587 77.7623 67.5262C77.7874 67.3938 77.7838 67.1897 77.7946 67.0107C77.8053 66.8317 77.816 66.6527 77.8268 66.4522C77.8375 66.2517 77.8483 66.0584 77.8554 65.8507C77.8554 65.7469 77.8554 65.6431 77.8554 65.5357C77.8805 64.9772 77.9055 64.3721 77.9306 63.7241C77.9592 62.7431 79.1622 61.8373 80.6157 61.8159C83.5479 61.7657 86.4514 61.6762 89.2941 61.5438C89.8229 61.5001 90.3519 61.6255 90.8049 61.9018C91.0467 62.0358 91.237 62.2465 91.3458 62.5006C91.4547 62.7546 91.476 63.0377 91.4064 63.3052Z" fill="#92E3A9"/>
<g opacity="0.3">
<path d="M91.4064 63.3052C91.3276 63.6453 91.2417 63.9675 91.1558 64.2826V64.3506L91.0699 64.6621C90.9625 65.0416 90.8551 65.4032 90.7405 65.7362C90.719 65.7863 90.7047 65.8364 90.6868 65.8865L90.6223 66.0727C90.6044 66.1336 90.5794 66.1944 90.5579 66.2553C90.53 66.3428 90.4978 66.4288 90.4612 66.5131C90.3109 66.9105 90.1569 67.2721 89.9958 67.5871C89.9314 67.7232 89.8634 67.852 89.7953 67.9773L89.7631 68.0239L89.4839 68.0883C87.6828 68.4953 85.8419 68.6995 83.9954 68.697C82.702 68.698 81.4105 68.5986 80.1324 68.3998C79.3262 68.2758 78.5268 68.1109 77.7373 67.9057C77.7373 67.784 77.7373 67.6587 77.7623 67.5262C77.7874 67.3938 77.7838 67.1897 77.7946 67.0107C77.8053 66.8317 77.816 66.6527 77.8268 66.4522C77.8375 66.2517 77.8483 66.0584 77.8554 65.8507C77.8554 65.7469 77.8554 65.6431 77.8554 65.5357C77.8805 64.9772 77.9055 64.3721 77.9306 63.7241C77.9592 62.7431 79.1622 61.8373 80.6157 61.8159C83.5479 61.7657 86.4514 61.6762 89.2941 61.5438C89.8229 61.5001 90.3519 61.6255 90.8049 61.9018C91.0467 62.0358 91.237 62.2465 91.3458 62.5006C91.4547 62.7546 91.476 63.0377 91.4064 63.3052Z" fill="black"/>
</g>
<path d="M91.5639 62.6358C91.5138 62.8649 91.4601 63.0905 91.4064 63.3088C91.3276 63.649 91.2417 63.9712 91.1558 64.2862V64.3543L91.0699 64.6657C90.9625 65.0452 90.8551 65.4068 90.7405 65.7398C90.7011 65.8543 90.6653 65.9653 90.6223 66.0763C90.5794 66.1873 90.5794 66.198 90.5579 66.2589C90.53 66.3464 90.4978 66.4324 90.4612 66.5167C90.3109 66.9141 90.1569 67.2757 89.9958 67.5907C89.8744 67.8017 89.6973 67.9751 89.4839 68.092C87.6828 68.4989 85.8419 68.7031 83.9954 68.7006C82.702 68.7016 81.4105 68.6023 80.1324 68.4034C79.3262 68.2795 78.5268 68.1146 77.7373 67.9094C77.7373 67.7876 77.7373 67.6623 77.7623 67.5299C77.7874 67.3974 77.7838 67.1933 77.7946 67.0143C77.8053 66.8353 77.816 66.6563 77.8268 66.4558C77.8375 66.2553 77.8483 66.062 77.8554 65.8544C77.8554 65.7505 77.8554 65.6467 77.8554 65.5393C77.8805 64.9808 77.9055 64.3757 77.9306 63.7277C77.9306 63.5058 77.9378 63.2802 77.9521 63.0511C77.9807 62.0307 79.1944 61.0927 80.6623 61.0712C83.6159 61.0211 86.5481 60.9316 89.4158 60.7991C89.9492 60.7552 90.4829 60.8804 90.941 61.1571C91.1914 61.3024 91.3877 61.5253 91.5001 61.7921C91.6125 62.0589 91.6349 62.3551 91.5639 62.6358Z" fill="#92E3A9"/>
<g opacity="0.8">
<path d="M91.5639 62.6358C91.5138 62.8649 91.4601 63.0905 91.4064 63.3088C91.3276 63.649 91.2417 63.9712 91.1558 64.2862V64.3543L91.0699 64.6657C90.9625 65.0452 90.8551 65.4068 90.7405 65.7398C90.7011 65.8543 90.6653 65.9653 90.6223 66.0763C90.5794 66.1873 90.5794 66.198 90.5579 66.2589C90.53 66.3464 90.4978 66.4324 90.4612 66.5167C90.3109 66.9141 90.1569 67.2757 89.9958 67.5907C89.8744 67.8017 89.6973 67.9751 89.4839 68.092C87.6828 68.4989 85.8419 68.7031 83.9954 68.7006C82.702 68.7016 81.4105 68.6023 80.1324 68.4034C79.3262 68.2795 78.5268 68.1146 77.7373 67.9094C77.7373 67.7876 77.7373 67.6623 77.7623 67.5299C77.7874 67.3974 77.7838 67.1933 77.7946 67.0143C77.8053 66.8353 77.816 66.6563 77.8268 66.4558C77.8375 66.2553 77.8483 66.062 77.8554 65.8544C77.8554 65.7505 77.8554 65.6467 77.8554 65.5393C77.8805 64.9808 77.9055 64.3757 77.9306 63.7277C77.9306 63.5058 77.9378 63.2802 77.9521 63.0511C77.9807 62.0307 79.1944 61.0927 80.6623 61.0712C83.6159 61.0211 86.5481 60.9316 89.4158 60.7991C89.9492 60.7552 90.4829 60.8804 90.941 61.1571C91.1914 61.3024 91.3877 61.5253 91.5001 61.7921C91.6125 62.0589 91.6349 62.3551 91.5639 62.6358Z" fill="white"/>
</g>
<path d="M84.1995 66.7422C84.3427 66.0906 84.4823 65.3495 84.6112 64.5296C84.6507 64.3661 84.6427 64.1947 84.5882 64.0355C84.5336 63.8763 84.4348 63.736 84.3033 63.631C83.9358 63.3919 83.497 63.287 83.061 63.3339C82.595 63.3203 82.1353 63.4448 81.7399 63.6919C81.5876 63.7962 81.4607 63.9333 81.3683 64.0932C81.276 64.253 81.2207 64.4315 81.2065 64.6156C81.1253 65.4366 81.0394 66.173 80.9487 66.8245C80.9206 66.9523 80.936 67.0858 80.9924 67.2039C81.0488 67.3219 81.1431 67.4178 81.2602 67.4761C81.6173 67.6352 82.0095 67.6993 82.3987 67.6623C82.5383 67.6623 82.6708 67.6623 82.7925 67.6372C82.9142 67.6122 83.0324 67.605 83.1505 67.5835C83.2269 67.6637 83.3275 67.7166 83.4369 67.7339C83.6193 67.772 83.8059 67.7853 83.9918 67.7733H84.1315C84.1744 67.6265 84.2174 67.4726 84.2568 67.3115H84.1637C84.0993 67.3156 84.0347 67.3156 83.9704 67.3115C83.9523 67.3086 83.9351 67.3017 83.9202 67.2911C83.9053 67.2806 83.8931 67.2667 83.8844 67.2506C84.044 67.1217 84.1551 66.9424 84.1995 66.7422ZM83.5014 64.5153C83.3832 65.371 83.2579 66.1407 83.1254 66.8138C83.1164 66.8743 83.0928 66.9317 83.0566 66.9809C83.0205 67.0302 82.9728 67.0699 82.9178 67.0966C82.7879 67.1575 82.6459 67.1881 82.5025 67.1861C82.3698 67.199 82.2361 67.1755 82.1158 67.1181C82.0705 67.0902 82.036 67.0478 82.0178 66.9977C81.9996 66.9477 81.9988 66.893 82.0156 66.8424C82.1301 66.173 82.2376 65.4104 82.3378 64.5475C82.3424 64.4767 82.3628 64.4078 82.3975 64.3458C82.4322 64.2839 82.4803 64.2305 82.5383 64.1895C82.671 64.1093 82.8236 64.0683 82.9787 64.0714C83.1229 64.0555 83.2682 64.0896 83.3904 64.1681C83.4383 64.2107 83.4739 64.2654 83.4934 64.3265C83.5129 64.3876 83.5157 64.4528 83.5014 64.5153Z" fill="black"/>
<path d="M88.4026 63.4699C88.0542 63.2342 87.6307 63.136 87.214 63.1943C86.7489 63.189 86.2927 63.3223 85.9037 63.5774C85.7506 63.6853 85.621 63.8231 85.5225 63.9825C85.4241 64.1418 85.3589 64.3194 85.3308 64.5046C85.3058 64.6586 85.2771 64.8089 85.2521 64.9557L86.2939 64.9163C86.3261 64.7516 86.3583 64.587 86.3906 64.4151C86.4017 64.3436 86.4271 64.2751 86.4652 64.2136C86.5034 64.1521 86.5535 64.0989 86.6125 64.0571C86.7462 63.9753 86.8998 63.9319 87.0565 63.9318C87.1963 63.9153 87.3373 63.9496 87.4539 64.0285C87.5434 64.1001 87.5649 64.2468 87.5219 64.4581C87.4777 64.6759 87.3792 64.8791 87.2355 65.0488C87.0885 65.2222 86.9201 65.3762 86.7343 65.5071C86.5412 65.6483 86.3404 65.7785 86.1328 65.8973C85.9285 66.0126 85.7302 66.138 85.5385 66.2732C85.3611 66.3916 85.1977 66.5297 85.0516 66.6849C84.9204 66.816 84.8255 66.9789 84.7759 67.1575C84.7401 67.3043 84.7007 67.4439 84.6613 67.5764C85.6638 67.5406 86.6591 67.4977 87.6472 67.4475C87.7081 67.2936 87.7654 67.1289 87.8226 66.957C87.1675 66.9893 86.5087 67.0215 85.8464 67.0465C85.8514 66.9854 85.8692 66.926 85.8989 66.8724C85.9285 66.8187 85.9692 66.7719 86.0182 66.7351C86.1591 66.6149 86.31 66.5071 86.4693 66.4129C86.6507 66.2983 86.8548 66.179 87.0815 66.0548C87.3094 65.9226 87.5283 65.7755 87.7367 65.6145C87.9422 65.4566 88.1285 65.2752 88.2916 65.0739C88.4565 64.875 88.5707 64.6391 88.6246 64.3865C88.6819 64.2288 88.6915 64.0577 88.652 63.8947C88.6125 63.7317 88.5257 63.5839 88.4026 63.4699Z" fill="black"/>
<path d="M75.1739 40.8682V42.5223H74.3433H72.2238H70.6091H68.9694H68.0028C65.1995 42.5044 62.432 42.4722 59.729 42.4292C59.5141 42.4292 59.2993 42.4292 59.0881 42.4292C59.1203 41.885 59.1669 41.3551 59.2349 40.8074H59.6645C64.4118 40.8682 69.3596 40.8969 74.3433 40.904L75.1739 40.8682Z" fill="#263238"/>
<path d="M75.1739 43.4854C76.1447 43.4854 76.9317 42.6984 76.9317 41.7275C76.9317 40.7567 76.1447 39.9697 75.1739 39.9697C74.203 39.9697 73.416 40.7567 73.416 41.7275C73.416 42.6984 74.203 43.4854 75.1739 43.4854Z" fill="#263238"/>
<path opacity="0.2" d="M108.982 43.7789C108.976 49.8611 106.745 55.7311 102.709 60.2817C98.6737 64.8322 93.1126 67.7489 87.0746 68.4816C81.0367 69.2143 74.9394 67.7123 69.9325 64.259C64.9257 60.8057 61.3556 55.6397 59.8953 49.7354C58.4351 43.831 59.1858 37.5964 62.0058 32.2075C64.8258 26.8185 69.5202 22.6476 75.2036 20.4815C80.8871 18.3153 87.1667 18.3036 92.8581 20.4486C98.5496 22.5936 103.259 26.747 106.099 32.1254C107.993 35.7178 108.983 39.7178 108.982 43.7789Z" fill="white"/>
<path opacity="0.2" d="M108.982 43.7789C108.982 50.4019 106.351 56.7535 101.667 61.4366C96.9844 66.1198 90.6327 68.7507 84.0098 68.7507L108.982 43.7789Z" fill="white"/>
<path opacity="0.2" d="M59.7325 49.6325C58.7125 45.3784 58.8268 40.931 60.0641 36.7349C61.3013 32.5388 63.6181 28.7408 66.7829 25.7206C69.9478 22.7003 73.8499 20.5635 78.0992 19.5237C82.3486 18.484 86.7964 18.5776 90.9983 19.7953L59.7325 49.6325Z" fill="white"/>
<path opacity="0.2" d="M106.099 32.1255L71.6868 65.4999C69.6132 64.3197 67.7192 62.8488 66.0623 61.1321L101.767 26.2253C103.494 27.9678 104.954 29.956 106.099 32.1255Z" fill="white"/>
<path d="M98.3555 69.012L88.2845 76.3872H79.735L69.6675 69.012H98.3555Z" fill="#C9CCCD" stroke="#263238" stroke-linecap="round" stroke-linejoin="round"/>
<path d="M84.0098 14.758C77.6038 14.7581 71.3778 16.8775 66.3022 20.7858C61.2266 24.6941 57.5866 30.1718 55.9495 36.3651C54.3124 42.5584 54.7702 49.1192 57.2516 55.0251C59.7329 60.931 64.0984 65.8501 69.6676 69.0157C73.5309 71.2116 77.8468 72.4911 82.2827 72.7556C86.7186 73.0201 91.156 72.2625 95.2528 70.5412C99.3497 68.8199 102.997 66.1809 105.913 62.8276C108.828 59.4743 110.935 55.4962 112.071 51.2C113.207 46.9038 113.341 42.4041 112.463 38.048C111.585 33.6918 109.718 29.5954 107.007 26.0745C104.296 22.5536 100.812 19.7022 96.8252 17.7402C92.838 15.7782 88.4535 14.7579 84.0098 14.758ZM84.0098 68.7507C79.0708 68.7507 74.2428 67.2862 70.1362 64.5422C66.0296 61.7983 62.8289 57.8982 60.9389 53.3352C59.0488 48.7722 58.5543 43.7512 59.5178 38.9072C60.4814 34.0631 62.8597 29.6136 66.3521 26.1212C69.8444 22.6289 74.294 20.2505 79.138 19.287C83.9821 18.3235 89.0031 18.818 93.566 20.708C98.129 22.5981 102.029 25.7988 104.773 29.9054C107.517 34.012 108.982 38.84 108.982 43.779C108.982 47.0584 108.336 50.3059 107.082 53.3358C105.827 56.3657 103.987 59.1188 101.669 61.4377C99.3496 63.7566 96.5965 65.596 93.5666 66.8508C90.5367 68.1056 87.2892 68.7512 84.0098 68.7507Z" fill="#C9CCCD" stroke="#263238" stroke-linecap="round" stroke-linejoin="round"/>
<path d="M87.9014 76.3872H79.735V127.247H87.9014V76.3872Z" fill="#263238"/>
<path d="M78.5249 22.2978C80.2483 21.8823 82.015 21.6732 83.7878 21.6749" stroke="#263238" stroke-miterlimit="10"/>
<path d="M61.4868 43.9723C61.4863 39.6861 62.7209 35.4907 65.0429 31.888C67.3649 28.2853 70.6759 25.4281 74.5796 23.6583" stroke="#263238" stroke-miterlimit="10"/>
<path d="M92.2442 111.509C88.4241 100.976 88.442 99.2681 88.2201 92.8918C88.1485 90.9013 88.1878 88.8856 87.7152 86.9487C87.2427 85.0119 86.0576 82.4771 84.0849 82.1835C82.635 81.9651 81.2029 82.8995 80.4296 84.149C79.6563 85.3985 79.42 86.895 79.2803 88.3557C78.8222 93.0194 79.1796 97.7273 80.3365 102.268C78.9295 105.508 79.4665 107.932 78.5822 112.869V133.634H91.3026C91.3026 133.634 94.7109 118.354 92.2442 111.509Z" fill="white"/>
<path d="M91.9076 133.609C91.9076 133.609 94.7109 118.354 92.2263 111.509C88.4062 100.976 88.4241 99.2681 88.2021 92.8918C88.1305 90.9013 88.1699 88.8856 87.6973 86.9487C87.2248 85.0119 86.0397 82.4771 84.067 82.1835C82.6171 81.9651 81.185 82.8995 80.4117 84.149C79.6384 85.3985 79.4021 86.895 79.2624 88.3557C78.8043 93.0194 79.1617 97.7273 80.3186 102.268C78.9116 105.508 79.4486 107.932 78.5643 112.869" stroke="#263238" stroke-linecap="round" stroke-linejoin="round"/>
<path d="M89.201 89.1292C89.3475 89.7184 89.3359 90.3359 89.1674 90.9192C88.999 91.5025 88.6796 92.0311 88.2415 92.4516" fill="white"/>
<path d="M89.201 89.1292C89.3475 89.7184 89.3359 90.3359 89.1674 90.9192C88.999 91.5025 88.6796 92.0311 88.2415 92.4516" stroke="#263238" stroke-linecap="round" stroke-linejoin="round"/>
<path d="M85.7533 84.2923C85.8876 85.3046 85.8876 86.3303 85.7533 87.3426C84.1998 87.8716 82.5247 87.9301 80.938 87.5109C80.6706 86.6106 80.6361 85.6571 80.8377 84.7398" fill="white"/>
<path d="M85.7533 84.2923C85.8876 85.3046 85.8876 86.3303 85.7533 87.3426C84.1998 87.8716 82.5247 87.9301 80.938 87.5109C80.6706 86.6106 80.6361 85.6571 80.8377 84.7398" stroke="#263238" stroke-linecap="round" stroke-linejoin="round"/>
<path d="M81.2745 106.045C81.4249 106.643 81.5179 107.012 81.6325 107.442L81.2745 106.045Z" fill="white"/>
<path d="M81.2745 106.045C81.4249 106.643 81.5179 107.012 81.6325 107.442" stroke="#263238" stroke-linecap="round" stroke-linejoin="round"/>
<path d="M80.0715 101.302C80.1897 101.785 80.6802 103.722 81.1098 105.444L80.0715 101.302Z" fill="white"/>
<path d="M80.0715 101.302C80.1897 101.785 80.6802 103.722 81.1098 105.444" stroke="#263238" stroke-linecap="round" stroke-linejoin="round"/>
<path d="M88.5566 105.974C88.5566 106.729 88.596 107.406 88.6461 107.997L88.5566 105.974Z" fill="white"/>
<path d="M88.5566 105.974C88.5566 106.729 88.596 107.406 88.6461 107.997" stroke="#263238" stroke-linecap="round" stroke-linejoin="round"/>
<path d="M88.3776 96.4899C88.5888 99.1214 88.4993 101.996 88.5351 104.764L88.3776 96.4899Z" fill="white"/>
<path d="M88.3776 96.4899C88.5888 99.1214 88.4993 101.996 88.5351 104.764" stroke="#263238" stroke-linecap="round" stroke-linejoin="round"/>
<path d="M92.5199 99.0104C91.5356 100.316 90.4789 101.565 89.355 102.752L92.5199 99.0104Z" fill="white"/>
<path d="M92.5199 99.0104C91.5356 100.316 90.4789 101.565 89.355 102.752" stroke="#263238" stroke-linecap="round" stroke-linejoin="round"/>
<path d="M90.694 106.905C91.3542 106.44 91.9213 105.856 92.3659 105.183L90.694 106.905Z" fill="white"/>
<path d="M90.694 106.905C91.3542 106.44 91.9213 105.856 92.3659 105.183" stroke="#263238" stroke-linecap="round" stroke-linejoin="round"/>
<path d="M68.2749 105.304C68.9121 107.81 67.455 110.449 67.7414 113.034" stroke="#263238" stroke-linecap="round" stroke-linejoin="round"/>
<path d="M67.5409 99.5117C67.6949 100.997 67.8094 102.132 67.9634 103.618" stroke="#263238" stroke-linecap="round" stroke-linejoin="round"/>
<path d="M73.2692 128.35C73.5485 128.772 73.8277 129.184 74.1106 129.582" stroke="#263238" stroke-linecap="round" stroke-linejoin="round"/>
<path d="M68.0207 115.98C68.1066 118.866 70.0685 123.187 72.4386 127.032" stroke="#263238" stroke-linecap="round" stroke-linejoin="round"/>
<path d="M81.475 89.6124L85.4597 89.3081" stroke="#263238" stroke-linecap="round" stroke-linejoin="round"/>
<path d="M80.1109 91.7605C79.0118 92.3298 84.443 90.443 84.6864 90.4215" stroke="#263238" stroke-linecap="round" stroke-linejoin="round"/>
<path d="M81.1456 93.2248C80.7446 93.4361 85.0623 92.4551 85.9645 92.7021" stroke="#263238" stroke-linecap="round" stroke-linejoin="round"/>
<path d="M81.0167 96.4649C82.7817 96.6393 84.5586 96.2854 86.1221 95.4481" stroke="#263238" stroke-linecap="round" stroke-linejoin="round"/>
<path d="M78.9975 81.3315C79.5488 82.3053 80.2971 82.9784 80.3186 84.0954" stroke="#263238" stroke-linecap="round" stroke-linejoin="round"/>
<path d="M76.8207 87.2925C77.5761 87.8917 78.2868 88.545 78.9474 89.2473" stroke="#263238" stroke-linecap="round" stroke-linejoin="round"/>
<path d="M88.3776 96.0496C88.7905 95.8559 89.2438 95.7636 89.6996 95.7804C90.1555 95.7972 90.6007 95.9226 90.9983 96.1463" fill="white"/>
<path d="M88.3776 96.0496C88.7905 95.8559 89.2438 95.7636 89.6996 95.7804C90.1555 95.7972 90.6007 95.9226 90.9983 96.1463" stroke="#263238" stroke-linecap="round" stroke-linejoin="round"/>
<path d="M75.6142 96.4899C76.6883 96.8479 77.9771 97.675 79.5023 98.2084" stroke="#263238" stroke-linecap="round" stroke-linejoin="round"/>
<path d="M79.2875 101.198L76.81 103.092" stroke="#263238" stroke-linecap="round" stroke-linejoin="round"/>
<path d="M84.2461 156.795C86.5473 152.193 88.3304 147.351 89.5626 142.356L84.2461 156.795Z" fill="white"/>
<path d="M84.2461 156.795C86.5473 152.193 88.3304 147.351 89.5626 142.356" stroke="#263238" stroke-linecap="round" stroke-linejoin="round"/>
<mask id="mask1_14_400" style="mask-type:luminance" maskUnits="userSpaceOnUse" x="60" y="78" width="34" height="81">
<path d="M86.3047 156.261C87.2069 153.673 88.0088 151.22 88.6354 149.083C89.166 147.359 89.441 145.566 89.4516 143.763C89.4535 143.298 89.4893 142.833 89.559 142.374V142.349C89.6376 141.782 89.7706 141.225 89.9564 140.684C90.5436 138.983 91.0484 137.086 91.4601 135.381C92.638 130.495 93.1285 129.449 93.1321 115.379L92.527 110.152L92.4518 99.5439C92.4518 99.5439 93.2108 97.4996 93.1321 96.7979C92.885 94.6498 89.1939 89.1005 89.1939 89.1005L88.5136 83.2827C88.4988 83.1542 88.455 83.0307 88.3855 82.9216C88.3161 82.8124 88.2228 82.7205 88.1126 82.6526L83.0467 79.5271C82.4017 79.1284 81.6801 78.8697 80.9287 78.7679C80.1773 78.6661 79.4129 78.7234 78.685 78.9361C77.9572 79.1488 77.2822 79.5121 76.7038 80.0025C76.1255 80.4928 75.6567 81.0993 75.3278 81.7826L70.2511 92.3083L69.7499 92.7236C69.1561 93.2212 68.6694 93.8341 68.3193 94.5251C67.9691 95.2162 67.7628 95.9711 67.7128 96.7442C67.301 103.188 66.3881 100.725 66.7891 114.42C67.0469 123.205 68.4002 132.199 69.4814 138.145C69.806 139.945 69.508 141.801 68.6365 143.408L60.2588 158.867" fill="white"/>
</mask>
<g mask="url(#mask1_14_400)">
<path d="M90.6331 138.357C90.0853 140.1 88.6353 145.76 88.442 146.025C88.4945 143.629 88.6917 141.238 89.0327 138.865C89.2323 137.43 89.6136 136.026 90.1677 134.687C90.9016 132.897 92.101 129.879 93.2251 126.521C93.2251 126.517 92.3229 132.99 90.6331 138.357Z" fill="#263238"/>
</g>
<path d="M86.3047 156.261C87.2069 153.673 88.0088 151.22 88.6354 149.083C89.166 147.359 89.441 145.566 89.4516 143.763C89.4535 143.298 89.4893 142.833 89.559 142.374V142.349C89.6376 141.782 89.7706 141.225 89.9564 140.684C90.5436 138.983 91.0484 137.086 91.4601 135.381C92.638 130.495 93.1285 129.449 93.1321 115.379L92.527 110.152L92.4518 99.5439C92.4518 99.5439 93.2108 97.4996 93.1321 96.7979C92.885 94.6498 89.1939 89.1005 89.1939 89.1005L88.5136 83.2827C88.4988 83.1542 88.455 83.0307 88.3855 82.9216C88.3161 82.8124 88.2228 82.7205 88.1126 82.6526L83.0467 79.5271C82.4017 79.1284 81.6801 78.8697 80.9287 78.7679C80.1773 78.6661 79.4129 78.7234 78.685 78.9361C77.9572 79.1488 77.2822 79.5121 76.7038 80.0025C76.1255 80.4928 75.6567 81.0993 75.3278 81.7826L70.2511 92.3083L69.7499 92.7236C69.1561 93.2212 68.6694 93.8341 68.3193 94.5251C67.9691 95.2162 67.7628 95.9711 67.7128 96.7442C67.301 103.188 66.3881 100.725 66.7891 114.42C67.0469 123.205 68.4002 132.199 69.4814 138.145C69.806 139.945 69.508 141.801 68.6365 143.408L60.2588 158.867" stroke="#263238" stroke-linecap="round" stroke-linejoin="round"/>
</svg>
