<svg width="160" height="125" viewBox="0 0 160 125" fill="none" xmlns="http://www.w3.org/2000/svg">
<path d="M154.264 81.8098H152.592H76.9305H75.259V85.1606H76.9305V119.218H152.592V85.1606H154.264V81.8098Z" fill="#92E3A9"/>
<path opacity="0.5" d="M154.264 81.8098H152.592H76.9305H75.259V85.1606H76.9305V119.218H152.592V85.1606H154.264V81.8098Z" fill="white"/>
<path d="M78.9576 99.5952H99.5919V88.5786H78.9576V99.5952ZM79.3764 88.9856H99.173V99.2H79.3764V88.9856Z" fill="white"/>
<path d="M104.583 99.5952H125.221V88.5786H104.583V99.5952ZM105.009 88.9975H124.81V99.2H105.009V88.9975Z" fill="white"/>
<path d="M130.211 88.5786V99.5952H150.846V88.5786H130.211ZM150.427 99.2H130.63V88.9975H150.427V99.2Z" fill="white"/>
<path d="M78.9576 114.405H99.5919V103.377H78.9576V114.405ZM79.3764 103.795H99.173V113.986H79.3764V103.795Z" fill="white"/>
<path d="M104.583 114.405H125.221V103.377H104.583V114.405ZM105.009 103.795H124.81V113.986H105.009V103.795Z" fill="white"/>
<path d="M130.211 114.405H150.846V103.377H130.211V114.405ZM130.63 103.795H150.427V113.986H130.63V103.795Z" fill="white"/>
<path d="M89.496 95.4897C91.3466 95.4897 92.8468 94.9271 92.8468 94.2331C92.8468 93.5391 91.3466 92.9766 89.496 92.9766C87.6454 92.9766 86.1452 93.5391 86.1452 94.2331C86.1452 94.9271 87.6454 95.4897 89.496 95.4897Z" fill="white"/>
<path d="M114.998 95.4897C116.849 95.4897 118.349 94.9271 118.349 94.2331C118.349 93.5391 116.849 92.9766 114.998 92.9766C113.148 92.9766 111.648 93.5391 111.648 94.2331C111.648 94.9271 113.148 95.4897 114.998 95.4897Z" fill="white"/>
<path d="M141.24 95.4897C143.09 95.4897 144.591 94.9271 144.591 94.2331C144.591 93.5391 143.09 92.9766 141.24 92.9766C139.389 92.9766 137.889 93.5391 137.889 94.2331C137.889 94.9271 139.389 95.4897 141.24 95.4897Z" fill="white"/>
<path d="M89.496 107.775C87.6467 107.775 86.1452 108.336 86.1452 109.031C86.1452 109.727 87.6467 110.284 89.496 110.284C91.3453 110.284 92.8468 109.723 92.8468 109.031C92.8468 108.34 91.3453 107.775 89.496 107.775Z" fill="white"/>
<path d="M114.998 107.775C113.149 107.775 111.648 108.336 111.648 109.031C111.648 109.727 113.149 110.284 114.998 110.284C116.848 110.284 118.349 109.723 118.349 109.031C118.349 108.34 116.864 107.775 114.998 107.775Z" fill="white"/>
<path d="M141.24 107.775C139.391 107.775 137.893 108.336 137.893 109.031C137.893 109.727 139.391 110.284 141.24 110.284C143.089 110.284 144.591 109.723 144.591 109.031C144.591 108.34 143.093 107.775 141.24 107.775Z" fill="white"/>
<path d="M65.9614 78.8818C64.4361 81.146 62.3102 84.0898 61.1762 86.4527C61.6069 84.8959 62.0297 83.422 62.413 82.1062C62.9938 80.9642 64.5507 78.0836 66.3644 76.179C68.6444 73.7371 69.6204 72.1684 68.3915 72.034C67.5419 71.9392 65.0525 75.2544 63.4917 78.5459C63.8315 77.4198 64.1002 76.5702 64.282 76.0605C64.3571 75.8313 64.4282 75.5824 64.4993 75.3176C66.1138 73.0589 67.5841 70.7005 68.9012 68.2564C71.2049 63.9533 71.9478 59.8913 70.4107 61.6378C68.996 63.246 66.5343 71.2437 64.5784 75.0055C64.7443 74.3574 64.9024 73.6422 65.0407 72.9349C65.3173 72.2513 65.6808 71.5559 65.8863 70.9237C66.2063 69.9516 66.4869 68.9717 66.7121 67.9719C67.0836 66.4187 67.2719 64.8273 67.2732 63.2302C67.3129 61.3544 66.8018 59.508 65.8033 57.9195C65.5386 57.5244 63.9185 55.1022 63.4324 56.339C63.3691 56.545 63.3569 56.7633 63.3969 56.9751C63.634 59.0338 64.3808 60.9266 64.8431 62.9299C65.5346 65.9291 65.0762 70.9632 64.8431 73.1048C64.7562 73.4447 64.6455 73.8635 64.5151 74.3495C64.8352 70.6194 63.2191 66.1978 61.7215 65.4233C59.8683 64.467 61.6859 68.2209 63.1163 71.5006C63.7939 72.9358 64.1126 74.5143 64.0449 76.1C63.7525 77.1748 63.4166 78.3879 63.0689 79.6128C62.9978 79.7788 62.9346 79.9487 62.8713 80.1147C63.0321 79.3152 63.0971 78.4994 63.065 77.6845C62.9306 75.5429 60.5044 71.2556 58.8923 71.8601C57.2801 72.4647 60.0105 74.7249 61.4686 77.3566C62.2336 78.8118 62.5277 80.4687 62.3102 82.0983C62.3102 82.1971 62.2786 82.2919 62.2668 82.3828C62.0969 82.9439 61.9309 83.4813 61.7729 83.9949C61.3777 85.1804 61.0418 86.3184 60.706 87.4169C61.1186 85.8231 61.2996 84.1783 61.2434 82.5329C61.0418 79.3955 59.2044 76.4319 57.6871 76.0249C56.1697 75.6179 59.0661 80.739 60.0382 83.6156C60.5667 85.2957 60.6565 87.0832 60.299 88.8078C59.8288 90.3646 59.3862 91.9017 58.9318 93.5258C59.0587 91.3984 59.0124 89.2641 58.7935 87.1442C58.4971 83.6512 56.4226 81.4226 54.9922 81.5135C53.5618 81.6043 55.0554 83.5879 57.1181 87.8357C58.2072 90.066 58.6922 92.543 58.5248 95.0194C58.3391 95.703 58.1296 96.4064 57.9558 97.1413C57.7345 97.979 57.5606 98.8918 57.4026 99.8243C57.1971 98.9906 56.8889 97.7735 56.5293 96.4301C56.1106 94.9449 55.8067 93.4296 55.6205 91.8978C55.4269 90.1157 54.9567 87.8911 53.2101 86.9664C53.0914 86.8837 52.9561 86.828 52.8135 86.8032C52.671 86.7783 52.5248 86.785 52.3851 86.8226C52.2454 86.8603 52.1157 86.928 52.005 87.0211C51.8942 87.1142 51.8052 87.2304 51.7442 87.3616C51.5839 87.7439 51.548 88.1669 51.6414 88.5707C51.8733 89.783 52.2722 90.9572 52.8268 92.0598C52.4837 92.7177 52.3279 93.4571 52.3764 94.1975C52.3764 94.4741 52.4001 94.7507 52.4198 95.0273C52.2657 94.7428 52.1195 94.482 51.9812 94.237C51.7301 93.818 51.4216 93.4363 51.0645 93.103C51.154 92.4482 51.1989 91.7881 51.1989 91.1273C51.1989 90.2619 50.1833 88.0531 49.2666 89.6889C48.8991 90.3449 48.9703 91.6291 48.9347 92.4826C48.6858 92.7197 48.6107 93.2018 48.8201 93.9604C48.6779 95.9361 48.6502 97.9593 49.1283 99.8876L48.8122 99.3383C48.3668 97.0524 48.1026 94.735 48.0219 92.4075C47.9073 88.5628 48.5198 85.4096 47.4727 84.2241C46.4255 83.0387 45.8407 87.2075 46.2872 91.7516C46.4976 93.8251 47.0504 95.8493 47.9231 97.7419C46.8958 95.8966 45.8802 94.0158 44.92 92.2099C44.5249 91.2419 43.545 88.6221 43.786 85.9667C44.0903 82.6199 44.3115 79.8776 43.0392 77.9927C41.7668 76.1079 41.5021 77.3329 42.1264 81.2606C42.5532 83.9554 43.0076 87.5591 43.7899 90.0604C43.0471 88.626 42.3477 87.2628 41.7234 86.0299C41.3677 84.7971 40.5379 81.632 40.5379 79.0043C40.5379 75.6614 40.1823 73.8675 39.1944 74.5906C38.5069 75.1003 38.9495 79.2256 40.0559 82.6949C39.5382 81.6399 39.147 80.8299 38.9218 80.3517C38.8191 80.1344 38.7045 79.9013 38.5741 79.6602C38.2125 76.9081 37.678 74.1815 36.9737 71.4966C35.7211 66.7786 33.4886 63.3014 33.5597 65.6288C33.6229 67.7704 37.282 75.2939 38.4239 79.3797C38.0999 78.7909 37.7245 78.1627 37.3452 77.5502C37.0804 76.8587 36.871 76.104 36.5905 75.5033C36.1598 74.5748 35.6974 73.6659 35.1798 72.7808C34.3893 71.389 33.4384 70.0947 32.3466 68.9242C31.0819 67.484 29.4155 66.4548 27.5615 65.9686C27.0952 65.8579 24.266 65.1783 24.7481 66.4427C24.8382 66.6356 24.9738 66.8038 25.1432 66.9327C26.7238 68.2762 28.5572 69.1495 30.28 70.2993C32.8327 72.0221 35.9345 76.0131 37.2148 77.7478L37.8233 78.8818C35.5117 75.934 31.3114 73.8082 29.6913 74.2666C27.684 74.8316 31.5722 76.3331 34.8558 77.7517C36.3312 78.338 37.6414 79.2752 38.6729 80.4821C39.1944 81.47 39.7753 82.5803 40.3562 83.7144C40.4233 83.8843 40.4866 84.0503 40.5537 84.2162C40.1267 83.5223 39.6187 82.8816 39.0403 82.3077C37.4795 80.8378 32.7773 79.356 32.0147 80.897C31.2521 82.4381 34.7807 82.2326 37.6494 83.1572C39.1945 83.6994 40.5345 84.7054 41.4863 86.0378C41.5416 86.1169 41.593 86.1998 41.6483 86.2749C41.9091 86.7965 42.1541 87.3062 42.3872 87.7883C42.9246 88.9224 43.4383 89.9853 43.9401 91.0166C43.1568 89.565 42.168 88.2341 41.0042 87.0652C38.7124 84.9077 35.3458 83.9989 33.9509 84.7497C32.5561 85.5004 38.175 87.2509 40.8501 88.7011C42.3834 89.569 43.669 90.815 44.5842 92.3206C45.3033 93.7787 46.0264 95.2051 46.8049 96.7027C45.4457 95.0616 43.9565 93.5327 42.3516 92.1309C39.7476 89.7798 36.709 89.5665 35.7251 90.6096C34.7412 91.6528 37.1871 92.0835 41.589 93.7708C43.9055 94.6573 45.9491 96.1355 47.5161 98.058C47.8481 98.6863 48.1879 99.3304 48.5514 100.002C48.9465 100.761 49.4484 101.551 49.9779 102.337C49.2587 101.871 48.1997 101.192 47.0222 100.457C45.7008 99.6568 44.4443 98.7545 43.2644 97.7577C41.9051 96.5921 40.044 95.2842 38.1276 95.8018C37.9849 95.8226 37.8485 95.8745 37.7282 95.9538C37.6078 96.0332 37.5063 96.138 37.4309 96.2609C37.3555 96.3838 37.308 96.5217 37.2919 96.665C37.2757 96.8083 37.2912 96.9533 37.3373 97.09C37.4768 97.4808 37.7387 97.8161 38.0841 98.0462C39.8859 99.441 42.3082 100.113 44.4064 100.939C46.3292 101.695 48.3 102.324 50.3058 102.82C50.8037 103.535 51.3213 104.242 51.8429 104.914L50.9025 104.941C49.7882 104.977 44.762 102.697 42.2094 101.966C39.6568 101.235 37.2701 102.618 39.9452 104.056C42.6203 105.495 49.8949 105.175 49.8949 105.175L51.9931 105.111C52.487 105.744 52.9691 106.344 53.4275 106.893H43.458V109.659H45.4337L47.0143 119.495H60.2634L61.8637 109.659H63.8394V106.893H57.2366C57.1833 105.698 57.2149 104.5 57.3315 103.309C57.772 102.861 58.2611 102.464 58.7895 102.124C61.6899 100.121 66.6054 99.9547 67.9134 96.0942C68.2295 95.1656 67.8699 93.9723 66.7595 94.0237C65.9693 94.0592 65.1118 94.7626 64.6139 95.3355C62.9543 97.252 61.7057 99.2395 59.5482 100.694C58.807 101.263 58.0948 101.87 57.4144 102.511C57.4895 101.883 57.5843 101.211 57.7068 100.492C58.2282 99.5675 58.8228 98.6861 59.485 97.8565C61.2513 95.6635 63.9382 94.3793 65.8468 92.289C66.4316 91.6489 67.2021 89.3491 65.4161 89.9181C64.6258 90.171 63.6853 91.3762 63.0452 91.9254C61.2868 93.506 59.4889 95.1893 58.343 97.2678C58.3904 97.0623 58.4418 96.8726 58.4892 96.6513C59.722 94.6747 61.1107 92.7997 62.6422 91.0443C65.179 88.1597 67.779 86.271 67.8225 84.6904C67.8659 83.1098 64.5942 85.7573 61.8163 89.3768C60.5562 91.0372 59.5789 92.8943 58.9239 94.8732C59.4336 92.8264 59.975 90.7558 60.5044 88.7722C60.868 87.7844 61.9467 85.2159 63.9343 83.4339C66.4434 81.1934 68.4745 79.3441 68.834 77.1116C69.1936 74.879 68.186 75.5863 65.9614 78.8818ZM51.9299 104.297C51.5545 103.788 51.1633 103.234 50.7444 102.622C50.4949 101.583 50.3285 100.526 50.2466 99.4608C50.1959 98.554 50.2383 97.6444 50.373 96.7462C51.0474 97.5813 51.7635 98.3818 52.5186 99.1447C52.5006 99.9347 52.404 100.721 52.2302 101.492C52.0822 102.421 51.9819 103.358 51.9299 104.297ZM54.0794 106.901C53.5697 106.36 53.0126 105.716 52.408 104.926C52.4232 104.299 52.5093 103.676 52.6648 103.068C52.9061 102.111 53.2533 101.183 53.7001 100.302C54.6366 101.192 55.3241 101.78 55.3241 101.78L56.9047 103.167C56.7822 104.546 56.7111 105.842 56.6676 106.893L54.0794 106.901ZM56.9245 102.926L56.2172 102.306C55.822 101.95 55.1108 100.575 54.3363 98.9906C54.6666 98.3239 54.9595 97.6392 55.2135 96.9398C56.0512 98.4927 56.7941 99.7058 57.2327 100.35C57.1062 101.207 57.0074 102.081 56.9245 102.926Z" fill="#92E3A9"/>
<path opacity="0.5" d="M65.9614 78.8818C64.4361 81.146 62.3102 84.0898 61.1762 86.4527C61.6069 84.8959 62.0297 83.422 62.413 82.1062C62.9938 80.9642 64.5507 78.0836 66.3644 76.179C68.6444 73.7371 69.6204 72.1684 68.3915 72.034C67.5419 71.9392 65.0525 75.2544 63.4917 78.5459C63.8315 77.4198 64.1002 76.5702 64.282 76.0605C64.3571 75.8313 64.4282 75.5824 64.4993 75.3176C66.1138 73.0589 67.5841 70.7005 68.9012 68.2564C71.2049 63.9533 71.9478 59.8913 70.4107 61.6378C68.996 63.246 66.5343 71.2437 64.5784 75.0055C64.7443 74.3574 64.9024 73.6422 65.0407 72.9349C65.3173 72.2513 65.6808 71.5559 65.8863 70.9237C66.2063 69.9516 66.4869 68.9717 66.7121 67.9719C67.0836 66.4187 67.2719 64.8273 67.2732 63.2302C67.3129 61.3544 66.8018 59.508 65.8033 57.9195C65.5386 57.5244 63.9185 55.1022 63.4324 56.339C63.3691 56.545 63.3569 56.7633 63.3969 56.9751C63.634 59.0338 64.3808 60.9266 64.8431 62.9299C65.5346 65.9291 65.0762 70.9632 64.8431 73.1048C64.7562 73.4447 64.6455 73.8635 64.5151 74.3495C64.8352 70.6194 63.2191 66.1978 61.7215 65.4233C59.8683 64.467 61.6859 68.2209 63.1163 71.5006C63.7939 72.9358 64.1126 74.5143 64.0449 76.1C63.7525 77.1748 63.4166 78.3879 63.0689 79.6128C62.9978 79.7788 62.9346 79.9487 62.8713 80.1147C63.0321 79.3152 63.0971 78.4994 63.065 77.6845C62.9306 75.5429 60.5044 71.2556 58.8923 71.8601C57.2801 72.4647 60.0105 74.7249 61.4686 77.3566C62.2336 78.8118 62.5277 80.4687 62.3102 82.0983C62.3102 82.1971 62.2786 82.2919 62.2668 82.3828C62.0969 82.9439 61.9309 83.4813 61.7729 83.9949C61.3777 85.1804 61.0418 86.3184 60.706 87.4169C61.1186 85.8231 61.2996 84.1783 61.2434 82.5329C61.0418 79.3955 59.2044 76.4319 57.6871 76.0249C56.1697 75.6179 59.0661 80.739 60.0382 83.6156C60.5667 85.2957 60.6565 87.0832 60.299 88.8078C59.8288 90.3646 59.3862 91.9017 58.9318 93.5258C59.0587 91.3984 59.0124 89.2641 58.7935 87.1442C58.4971 83.6512 56.4226 81.4226 54.9922 81.5135C53.5618 81.6043 55.0554 83.5879 57.1181 87.8357C58.2072 90.066 58.6922 92.543 58.5248 95.0194C58.3391 95.703 58.1296 96.4064 57.9558 97.1413C57.7345 97.979 57.5606 98.8918 57.4026 99.8243C57.1971 98.9906 56.8889 97.7735 56.5293 96.4301C56.1106 94.9449 55.8067 93.4296 55.6205 91.8978C55.4269 90.1157 54.9567 87.8911 53.2101 86.9664C53.0914 86.8837 52.9561 86.828 52.8135 86.8032C52.671 86.7783 52.5248 86.785 52.3851 86.8226C52.2454 86.8603 52.1157 86.928 52.005 87.0211C51.8942 87.1142 51.8052 87.2304 51.7442 87.3616C51.5839 87.7439 51.548 88.1669 51.6414 88.5707C51.8733 89.783 52.2722 90.9572 52.8268 92.0598C52.4837 92.7177 52.3279 93.4571 52.3764 94.1975C52.3764 94.4741 52.4001 94.7507 52.4198 95.0273C52.2657 94.7428 52.1195 94.482 51.9812 94.237C51.7301 93.818 51.4216 93.4363 51.0645 93.103C51.154 92.4482 51.1989 91.7881 51.1989 91.1273C51.1989 90.2619 50.1833 88.0531 49.2666 89.6889C48.8991 90.3449 48.9703 91.6291 48.9347 92.4826C48.6858 92.7197 48.6107 93.2018 48.8201 93.9604C48.6779 95.9361 48.6502 97.9593 49.1283 99.8876L48.8122 99.3383C48.3668 97.0524 48.1026 94.735 48.0219 92.4075C47.9073 88.5628 48.5198 85.4096 47.4727 84.2241C46.4255 83.0387 45.8407 87.2075 46.2872 91.7516C46.4976 93.8251 47.0504 95.8493 47.9231 97.7419C46.8958 95.8966 45.8802 94.0158 44.92 92.2099C44.5249 91.2419 43.545 88.6221 43.786 85.9667C44.0903 82.6199 44.3115 79.8776 43.0392 77.9927C41.7668 76.1079 41.5021 77.3329 42.1264 81.2606C42.5532 83.9554 43.0076 87.5591 43.7899 90.0604C43.0471 88.626 42.3477 87.2628 41.7234 86.0299C41.3677 84.7971 40.5379 81.632 40.5379 79.0043C40.5379 75.6614 40.1823 73.8675 39.1944 74.5906C38.5069 75.1003 38.9495 79.2256 40.0559 82.6949C39.5382 81.6399 39.147 80.8299 38.9218 80.3517C38.8191 80.1344 38.7045 79.9013 38.5741 79.6602C38.2125 76.9081 37.678 74.1815 36.9737 71.4966C35.7211 66.7786 33.4886 63.3014 33.5597 65.6288C33.6229 67.7704 37.282 75.2939 38.4239 79.3797C38.0999 78.7909 37.7245 78.1627 37.3452 77.5502C37.0804 76.8587 36.871 76.104 36.5905 75.5033C36.1598 74.5748 35.6974 73.6659 35.1798 72.7808C34.3893 71.389 33.4384 70.0947 32.3466 68.9242C31.0819 67.484 29.4155 66.4548 27.5615 65.9686C27.0952 65.8579 24.266 65.1783 24.7481 66.4427C24.8382 66.6356 24.9738 66.8038 25.1432 66.9327C26.7238 68.2762 28.5572 69.1495 30.28 70.2993C32.8327 72.0221 35.9345 76.0131 37.2148 77.7478L37.8233 78.8818C35.5117 75.934 31.3114 73.8082 29.6913 74.2666C27.684 74.8316 31.5722 76.3331 34.8558 77.7517C36.3312 78.338 37.6414 79.2752 38.6729 80.4821C39.1944 81.47 39.7753 82.5803 40.3562 83.7144C40.4233 83.8843 40.4866 84.0503 40.5537 84.2162C40.1267 83.5223 39.6187 82.8816 39.0403 82.3077C37.4795 80.8378 32.7773 79.356 32.0147 80.897C31.2521 82.4381 34.7807 82.2326 37.6494 83.1572C39.1945 83.6994 40.5345 84.7054 41.4863 86.0378C41.5416 86.1169 41.593 86.1998 41.6483 86.2749C41.9091 86.7965 42.1541 87.3062 42.3872 87.7883C42.9246 88.9224 43.4383 89.9853 43.9401 91.0166C43.1568 89.565 42.168 88.2341 41.0042 87.0652C38.7124 84.9077 35.3458 83.9989 33.9509 84.7497C32.5561 85.5004 38.175 87.2509 40.8501 88.7011C42.3834 89.569 43.669 90.815 44.5842 92.3206C45.3033 93.7787 46.0264 95.2051 46.8049 96.7027C45.4457 95.0616 43.9565 93.5327 42.3516 92.1309C39.7476 89.7798 36.709 89.5665 35.7251 90.6096C34.7412 91.6528 37.1871 92.0835 41.589 93.7708C43.9055 94.6573 45.9491 96.1355 47.5161 98.058C47.8481 98.6863 48.1879 99.3304 48.5514 100.002C48.9465 100.761 49.4484 101.551 49.9779 102.337C49.2587 101.871 48.1997 101.192 47.0222 100.457C45.7008 99.6568 44.4443 98.7545 43.2644 97.7577C41.9051 96.5921 40.044 95.2842 38.1276 95.8018C37.9849 95.8226 37.8485 95.8745 37.7282 95.9538C37.6078 96.0332 37.5063 96.138 37.4309 96.2609C37.3555 96.3838 37.308 96.5217 37.2919 96.665C37.2757 96.8083 37.2912 96.9533 37.3373 97.09C37.4768 97.4808 37.7387 97.8161 38.0841 98.0462C39.8859 99.441 42.3082 100.113 44.4064 100.939C46.3292 101.695 48.3 102.324 50.3058 102.82C50.8037 103.535 51.3213 104.242 51.8429 104.914L50.9025 104.941C49.7882 104.977 44.762 102.697 42.2094 101.966C39.6568 101.235 37.2701 102.618 39.9452 104.056C42.6203 105.495 49.8949 105.175 49.8949 105.175L51.9931 105.111C52.487 105.744 52.9691 106.344 53.4275 106.893H43.458V109.659H45.4337L47.0143 119.495H60.2634L61.8637 109.659H63.8394V106.893H57.2366C57.1833 105.698 57.2149 104.5 57.3315 103.309C57.772 102.861 58.2611 102.464 58.7895 102.124C61.6899 100.121 66.6054 99.9547 67.9134 96.0942C68.2295 95.1656 67.8699 93.9723 66.7595 94.0237C65.9693 94.0592 65.1118 94.7626 64.6139 95.3355C62.9543 97.252 61.7057 99.2395 59.5482 100.694C58.807 101.263 58.0948 101.87 57.4144 102.511C57.4895 101.883 57.5843 101.211 57.7068 100.492C58.2282 99.5675 58.8228 98.6861 59.485 97.8565C61.2513 95.6635 63.9382 94.3793 65.8468 92.289C66.4316 91.6489 67.2021 89.3491 65.4161 89.9181C64.6258 90.171 63.6853 91.3762 63.0452 91.9254C61.2868 93.506 59.4889 95.1893 58.343 97.2678C58.3904 97.0623 58.4418 96.8726 58.4892 96.6513C59.722 94.6747 61.1107 92.7997 62.6422 91.0443C65.179 88.1597 67.779 86.271 67.8225 84.6904C67.8659 83.1098 64.5942 85.7573 61.8163 89.3768C60.5562 91.0372 59.5789 92.8943 58.9239 94.8732C59.4336 92.8264 59.975 90.7558 60.5044 88.7722C60.868 87.7844 61.9467 85.2159 63.9343 83.4339C66.4434 81.1934 68.4745 79.3441 68.834 77.1116C69.1936 74.879 68.186 75.5863 65.9614 78.8818ZM51.9299 104.297C51.5545 103.788 51.1633 103.234 50.7444 102.622C50.4949 101.583 50.3285 100.526 50.2466 99.4608C50.1959 98.554 50.2383 97.6444 50.373 96.7462C51.0474 97.5813 51.7635 98.3818 52.5186 99.1447C52.5006 99.9347 52.404 100.721 52.2302 101.492C52.0822 102.421 51.9819 103.358 51.9299 104.297ZM54.0794 106.901C53.5697 106.36 53.0126 105.716 52.408 104.926C52.4232 104.299 52.5093 103.676 52.6648 103.068C52.9061 102.111 53.2533 101.183 53.7001 100.302C54.6366 101.192 55.3241 101.78 55.3241 101.78L56.9047 103.167C56.7822 104.546 56.7111 105.842 56.6676 106.893L54.0794 106.901ZM56.9245 102.926L56.2172 102.306C55.822 101.95 55.1108 100.575 54.3363 98.9906C54.6666 98.3239 54.9595 97.6392 55.2135 96.9398C56.0512 98.4927 56.7941 99.7058 57.2327 100.35C57.1062 101.207 57.0074 102.081 56.9245 102.926Z" fill="white"/>
<path d="M26.9885 4.46869V44.5361H57.4144V4.46869H26.9885ZM55.3043 41.7424H29.1143V7.26629H55.3043V41.7424Z" fill="#92E3A9"/>
<path opacity="0.5" d="M26.9885 4.46869V44.5361H57.4144V4.46869H26.9885ZM55.3043 41.7424H29.1143V7.26629H55.3043V41.7424Z" fill="white"/>
<path d="M133.459 24.0164V53.6046H155.935V24.0164H133.459ZM154.366 51.538H135.04V26.0988H154.378L154.366 51.538Z" fill="#92E3A9"/>
<path opacity="0.5" d="M133.459 24.0164V53.6046H155.935V24.0164H133.459ZM154.366 51.538H135.04V26.0988H154.378L154.366 51.538Z" fill="white"/>
<path d="M4.95142 123.628C6.08547 119.787 17.833 79.8617 17.7935 79.5614C17.754 79.2611 18.7537 73.8991 21.093 69.43C23.4322 64.9609 26.6803 59.9822 27.0873 59.3736C27.7066 58.3821 28.1205 57.2762 28.3043 56.1216C28.6086 54.4976 31.8606 50.0246 32.8761 48.8075C33.8916 47.5905 36.9382 41.1892 37.1436 40.1737C37.3491 39.1582 38.5622 38.3442 40.1902 38.0399C41.8182 37.7357 44.0507 37.4314 44.0507 37.4314C44.4639 37.9176 44.7128 38.522 44.762 39.1582C44.762 40.0709 41.103 61.9105 40.9014 65.5695C40.6999 69.2285 41.2057 71.2556 39.5817 75.0173C37.9576 78.7791 33.1804 81.1104 30.8451 82.6356C28.5098 84.1609 28.6876 84.477 28.6876 84.477C28.6876 84.477 30.0074 121.039 29.9758 123.912" fill="white"/>
<mask id="mask0_14_236" style="mask-type:luminance" maskUnits="userSpaceOnUse" x="4" y="37" width="41" height="87">
<path d="M4.95142 123.628C6.08547 119.787 17.833 79.8617 17.7935 79.5614C17.754 79.2611 18.7537 73.8991 21.093 69.43C23.4322 64.9609 26.6803 59.9822 27.0873 59.3736C27.7066 58.3821 28.1205 57.2762 28.3043 56.1216C28.6086 54.4976 31.8606 50.0246 32.8761 48.8075C33.8916 47.5905 36.9382 41.1892 37.1436 40.1737C37.3491 39.1582 38.5622 38.3442 40.1902 38.0399C41.8182 37.7357 44.0507 37.4314 44.0507 37.4314C44.4639 37.9176 44.7128 38.522 44.762 39.1582C44.762 40.0709 41.103 61.9105 40.9014 65.5695C40.6999 69.2285 41.2057 71.2556 39.5817 75.0173C37.9576 78.7791 33.1804 81.1104 30.8451 82.6356C28.5098 84.1609 28.6876 84.477 28.6876 84.477C28.6876 84.477 30.0074 121.039 29.9758 123.912" fill="white"/>
</mask>
<g mask="url(#mask0_14_236)">
<g style="mix-blend-mode:multiply" opacity="0.7">
<path d="M46.2477 61.3888C45.8249 59.4961 43.0866 60.5472 43.0866 60.5472C41.2218 62.5708 38.9261 64.1494 36.3692 65.1664C32.0893 66.7848 27.9533 68.7609 24.0052 71.0738C24.4556 70.1689 24.9456 69.2561 25.4751 68.3078C28.2055 63.4791 33.0342 56.9712 35.7488 56.1295C37.4242 55.6158 39.0956 56.6787 40.1388 57.5797L40.2574 38.0201H40.1902C38.5622 38.3244 37.3452 39.1384 37.1436 40.1539C36.9421 41.1694 33.8916 47.5668 32.8761 48.7878C31.8606 50.0087 28.6086 54.4778 28.3043 56.1018C28.1205 57.2564 27.7067 58.3623 27.0873 59.3539C26.6921 59.9624 23.4283 64.9372 21.093 69.4102C18.7577 73.8832 17.754 79.2374 17.7935 79.5417C17.8212 79.7629 13.3008 96.1376 10.4281 106.443C12.799 101.78 16.4856 94.237 18.7261 88.6615C19.6072 88.5746 21.3143 86.1879 22.7289 84.2438C24.4082 81.9362 26.9253 81.304 31.9673 77.5264C37.0093 73.7489 42.6717 68.4974 43.5133 66.3992C44.355 64.301 46.6666 63.2776 46.2477 61.3888Z" fill="#92E3A9"/>
</g>
</g>
<path d="M4.95142 123.628C6.08547 119.787 17.833 79.8617 17.7935 79.5614C17.754 79.2611 18.7537 73.8991 21.093 69.43C23.4322 64.9609 26.6803 59.9822 27.0873 59.3736C27.7066 58.3821 28.1205 57.2762 28.3043 56.1216C28.6086 54.4976 31.8606 50.0246 32.8761 48.8075C33.8916 47.5905 36.9382 41.1892 37.1436 40.1737C37.3491 39.1582 38.5622 38.3442 40.1902 38.0399C41.8182 37.7357 44.0507 37.4314 44.0507 37.4314C44.4639 37.9176 44.7128 38.522 44.762 39.1582C44.762 40.0709 41.1029 61.9105 40.9014 65.5695C40.6999 69.2285 41.2057 71.2555 39.5817 75.0173C37.9576 78.7791 33.1804 81.1104 30.8451 82.6356C28.5098 84.1609 28.6876 84.477 28.6876 84.477C28.6876 84.477 30.0074 121.039 29.9758 123.912" stroke="#2E353A" stroke-linecap="round" stroke-linejoin="round"/>
<path d="M39.9847 62.3175C39.9847 62.3175 38.8704 62.2147 37.7521 60.1837" stroke="#2E353A" stroke-linecap="round" stroke-linejoin="round"/>
<path d="M38.7677 49.2145C38.7677 49.2145 41.9288 49.8231 42.3239 52.4626" stroke="#2E353A" stroke-linecap="round" stroke-linejoin="round"/>
<path d="M39.7832 40.9838C40.4824 41.5158 41.0611 42.1897 41.4813 42.9613C41.9015 43.733 42.1536 44.5847 42.2212 45.4607" stroke="#2E353A" stroke-linecap="round" stroke-linejoin="round"/>
<path d="M142.212 62.3254L141.963 20.1361C141.962 18.9064 141.473 17.7275 140.603 16.8584C139.733 15.9892 138.554 15.501 137.324 15.501H44.9991C43.7698 15.501 42.5908 15.9894 41.7216 16.8586C40.8524 17.7278 40.364 18.9068 40.364 20.1361L40.1111 62.3254C40.1106 62.9404 40.2314 63.5495 40.4665 64.1179C40.7016 64.6862 41.0465 65.2026 41.4814 65.6375C41.9163 66.0724 42.4327 66.4173 43.0011 66.6524C43.5694 66.8876 44.1785 67.0083 44.7936 67.0078H137.529C138.144 67.0083 138.754 66.8876 139.322 66.6524C139.89 66.4173 140.407 66.0724 140.842 65.6375C141.276 65.2026 141.621 64.6862 141.856 64.1179C142.092 63.5495 142.212 62.9404 142.212 62.3254Z" fill="#2E353A" stroke="#363636" stroke-width="0.868674" stroke-linecap="round" stroke-linejoin="round"/>
<path d="M137.024 64.716L136.822 17.7692H45.5009L45.3033 64.716H137.024Z" fill="white" stroke="#363636" stroke-width="0.651505" stroke-linecap="round" stroke-linejoin="round"/>
<path d="M136.822 17.7692H45.5009L45.493 20.1124H54.2651L56.5095 23.3209H136.846L136.822 17.7692Z" fill="#92E3A9" stroke="#2E353A" stroke-linecap="round" stroke-linejoin="round"/>
<g style="mix-blend-mode:multiply" opacity="0.5">
<path d="M136.822 27.1103L72.6313 64.716H137.024L136.822 27.1103Z" fill="#92E3A9"/>
</g>
<path d="M140.083 41.2299C140.088 40.8393 139.776 40.5186 139.385 40.5135C138.995 40.5085 138.674 40.821 138.669 41.2116C138.664 41.6022 138.976 41.923 139.367 41.928C139.758 41.9331 140.078 41.6205 140.083 41.2299Z" fill="white"/>
<path d="M52.5344 34.9223C54.6229 34.9223 56.3159 33.2292 56.3159 31.1408C56.3159 29.0523 54.6229 27.3593 52.5344 27.3593C50.4459 27.3593 48.7529 29.0523 48.7529 31.1408C48.7529 33.2292 50.4459 34.9223 52.5344 34.9223Z" fill="#92E3A9" stroke="#2E353A" stroke-linecap="round" stroke-linejoin="round"/>
<path d="M52.5344 50.4711C54.6229 50.4711 56.3159 48.7781 56.3159 46.6896C56.3159 44.6011 54.6229 42.9081 52.5344 42.9081C50.4459 42.9081 48.7529 44.6011 48.7529 46.6896C48.7529 48.7781 50.4459 50.4711 52.5344 50.4711Z" fill="white" stroke="#2E353A" stroke-linecap="round" stroke-linejoin="round"/>
<path d="M78.3767 34.9223C80.4652 34.9223 82.1582 33.2292 82.1582 31.1408C82.1582 29.0523 80.4652 27.3593 78.3767 27.3593C76.2882 27.3593 74.5952 29.0523 74.5952 31.1408C74.5952 33.2292 76.2882 34.9223 78.3767 34.9223Z" fill="white" stroke="#2E353A" stroke-linecap="round" stroke-linejoin="round"/>
<path d="M78.3767 50.4711C80.4652 50.4711 82.1582 48.7781 82.1582 46.6896C82.1582 44.6011 80.4652 42.9081 78.3767 42.9081C76.2882 42.9081 74.5952 44.6011 74.5952 46.6896C74.5952 48.7781 76.2882 50.4711 78.3767 50.4711Z" fill="#92E3A9" stroke="#2E353A" stroke-linecap="round" stroke-linejoin="round"/>
<path d="M104.223 34.9223C106.311 34.9223 108.004 33.2292 108.004 31.1408C108.004 29.0523 106.311 27.3593 104.223 27.3593C102.134 27.3593 100.441 29.0523 100.441 31.1408C100.441 33.2292 102.134 34.9223 104.223 34.9223Z" fill="#92E3A9" stroke="#2E353A" stroke-linecap="round" stroke-linejoin="round"/>
<path d="M104.223 50.4711C106.311 50.4711 108.004 48.7781 108.004 46.6896C108.004 44.6011 106.311 42.9081 104.223 42.9081C102.134 42.9081 100.441 44.6011 100.441 46.6896C100.441 48.7781 102.134 50.4711 104.223 50.4711Z" fill="#92E3A9" stroke="#2E353A" stroke-width="2" stroke-linecap="round" stroke-linejoin="round"/>
<path d="M130.065 34.9223C132.154 34.9223 133.847 33.2292 133.847 31.1408C133.847 29.0523 132.154 27.3593 130.065 27.3593C127.977 27.3593 126.284 29.0523 126.284 31.1408C126.284 33.2292 127.977 34.9223 130.065 34.9223Z" fill="#92E3A9" stroke="#2E353A" stroke-linecap="round" stroke-linejoin="round"/>
<path d="M130.065 50.4711C132.154 50.4711 133.847 48.7781 133.847 46.6896C133.847 44.6011 132.154 42.9081 130.065 42.9081C127.977 42.9081 126.284 44.6011 126.284 46.6896C126.284 48.7781 127.977 50.4711 130.065 50.4711Z" fill="white" stroke="#2E353A" stroke-linecap="round" stroke-linejoin="round"/>
<path d="M59.1056 36.2618H71.4933" stroke="#2E353A" stroke-linecap="round" stroke-linejoin="round"/>
<path d="M59.1056 39.1187H71.4933" stroke="#2E353A" stroke-linecap="round" stroke-linejoin="round"/>
<path d="M59.1056 41.9795H71.4933" stroke="#2E353A" stroke-linecap="round" stroke-linejoin="round"/>
<path d="M84.5962 36.2618H96.9839" stroke="#2E353A" stroke-linecap="round" stroke-linejoin="round"/>
<path d="M84.5962 39.1187H96.9839" stroke="#2E353A" stroke-linecap="round" stroke-linejoin="round"/>
<path d="M84.5962 41.9795H96.9839" stroke="#2E353A" stroke-linecap="round" stroke-linejoin="round"/>
<path d="M111.754 36.2618H124.142" stroke="#2E353A" stroke-linecap="round" stroke-linejoin="round"/>
<path d="M111.754 39.1187H124.142" stroke="#2E353A" stroke-linecap="round" stroke-linejoin="round"/>
<path d="M111.754 41.9795H124.142" stroke="#2E353A" stroke-linecap="round" stroke-linejoin="round"/>
<path d="M59.1056 52.4389H71.4933" stroke="#2E353A" stroke-linecap="round" stroke-linejoin="round"/>
<path d="M59.1056 55.2997H71.4933" stroke="#2E353A" stroke-linecap="round" stroke-linejoin="round"/>
<path d="M59.1056 58.1566H71.4933" stroke="#2E353A" stroke-linecap="round" stroke-linejoin="round"/>
<path d="M84.5962 52.4389H96.9839" stroke="#2E353A" stroke-linecap="round" stroke-linejoin="round"/>
<path d="M84.5962 55.2997H96.9839" stroke="#2E353A" stroke-linecap="round" stroke-linejoin="round"/>
<path d="M84.5962 58.1566H96.9839" stroke="#2E353A" stroke-linecap="round" stroke-linejoin="round"/>
<path d="M111.754 52.4389H124.142" stroke="#2E353A" stroke-linecap="round" stroke-linejoin="round"/>
<path d="M111.754 55.2997H124.142" stroke="#2E353A" stroke-linecap="round" stroke-linejoin="round"/>
<path d="M111.754 58.1566H124.142" stroke="#2E353A" stroke-linecap="round" stroke-linejoin="round"/>
<path d="M96.7626 46.8832H99.1098" stroke="#2E353A" stroke-linecap="round" stroke-linejoin="round"/>
<path d="M104.472 42.1929V39.2609" stroke="#2E353A" stroke-linecap="round" stroke-linejoin="round"/>
<path d="M99.2758 42.5287L100.785 43.7023" stroke="#2E353A" stroke-linecap="round" stroke-linejoin="round"/>
<path d="M101.121 49.8981L99.2758 50.9057" stroke="#2E353A" stroke-linecap="round" stroke-linejoin="round"/>
<path d="M112.347 46.8832H110" stroke="#2E353A" stroke-linecap="round" stroke-linejoin="round"/>
<path d="M109.83 42.5287L108.324 43.7023" stroke="#2E353A" stroke-linecap="round" stroke-linejoin="round"/>
<path d="M102.646 54.6517L104.622 61.709" stroke="#2E353A" stroke-linecap="round" stroke-linejoin="round"/>
<path d="M100.667 53.8021L101.797 57.473" stroke="#2E353A" stroke-linecap="round" stroke-linejoin="round"/>
<path d="M149.36 121.012C149.36 121.012 139.975 103.705 138.64 100.67C137.304 97.6353 136.297 92.854 135.969 91.5422C135.494 90.0028 135.451 88.3629 135.842 86.8005C136.336 84.5877 136.044 78.2733 136.265 76.8231C136.486 75.373 135.589 70.8367 135.08 68.296C134.57 65.7552 133.416 63.9494 131.859 63.7518C131.406 63.6976 130.947 63.7562 130.523 63.9223C130.098 64.0885 129.721 64.3571 129.425 64.7041C129.425 64.7041 128.777 59.2946 128.149 58.1724C127.52 57.0502 125.474 57.2122 124.379 57.4809C123.285 57.7496 122.759 61.2506 122.759 61.2506C122.759 61.2506 121.811 57.8879 121.783 56.3864C121.755 54.8848 119.93 53.5927 118.507 53.9484C117.085 54.304 116.318 54.956 115.931 58.0697C115.544 61.1834 116.275 66.0002 116.275 66.0002L115.536 66.3005C115.536 66.3005 112.873 56.9752 112.027 54.5134C111.181 52.0517 110.367 49.2343 109.798 47.4009C109.229 45.5674 108.384 42.6592 106.056 43.1057C103.729 43.5522 104.302 48.6377 104.302 48.6377C104.302 48.6377 107.941 64.2221 108.131 65.4509C108.321 66.6798 108.921 70.9474 108.803 72.3699C108.684 73.7924 108.688 77.5067 108.688 77.5067L105.223 73.3735C104.796 72.2553 104.257 71.1829 103.614 70.1729C102.429 68.2604 99.7934 66.4783 98.0824 67.0118C96.3714 67.5452 97.7228 69.3075 98.4301 70.2914C99.1374 71.2753 99.7104 74.0374 99.7104 75.4283C99.7104 76.8192 100.896 77.7991 102.326 80.3517C103.757 82.9044 110.936 91.7239 112.023 93.3124C112.828 94.3798 113.84 95.2736 114.998 95.9401C114.998 95.9401 119.147 99.5557 121.084 104.068C123.02 108.581 128.959 121.537 128.959 121.537" fill="white"/>
<mask id="mask1_14_236" style="mask-type:luminance" maskUnits="userSpaceOnUse" x="97" y="43" width="53" height="79">
<path d="M149.36 121.012C149.36 121.012 139.975 103.705 138.64 100.67C137.304 97.6353 136.297 92.854 135.969 91.5422C135.494 90.0028 135.451 88.3629 135.842 86.8005C136.336 84.5877 136.044 78.2733 136.265 76.8231C136.486 75.373 135.589 70.8367 135.08 68.296C134.57 65.7552 133.416 63.9494 131.859 63.7518C131.406 63.6976 130.947 63.7562 130.523 63.9223C130.098 64.0885 129.721 64.3571 129.425 64.7041C129.425 64.7041 128.777 59.2946 128.149 58.1724C127.52 57.0502 125.474 57.2122 124.379 57.4809C123.285 57.7496 122.759 61.2506 122.759 61.2506C122.759 61.2506 121.811 57.8879 121.783 56.3864C121.755 54.8848 119.93 53.5927 118.507 53.9484C117.085 54.304 116.318 54.956 115.931 58.0697C115.544 61.1834 116.275 66.0002 116.275 66.0002L115.536 66.3005C115.536 66.3005 112.873 56.9752 112.027 54.5134C111.181 52.0517 110.367 49.2343 109.798 47.4009C109.229 45.5674 108.384 42.6592 106.056 43.1057C103.729 43.5522 104.302 48.6377 104.302 48.6377C104.302 48.6377 107.941 64.2221 108.131 65.4509C108.321 66.6798 108.921 70.9474 108.803 72.3699C108.684 73.7924 108.688 77.5067 108.688 77.5067L105.223 73.3735C104.796 72.2553 104.257 71.1829 103.614 70.1729C102.429 68.2604 99.7934 66.4783 98.0824 67.0118C96.3714 67.5452 97.7228 69.3075 98.4301 70.2914C99.1374 71.2753 99.7104 74.0374 99.7104 75.4283C99.7104 76.8192 100.896 77.7991 102.326 80.3517C103.757 82.9044 110.936 91.7239 112.023 93.3124C112.828 94.3798 113.84 95.2736 114.998 95.9401C114.998 95.9401 119.147 99.5557 121.084 104.068C123.02 108.581 128.959 121.537 128.959 121.537" fill="white"/>
</mask>
<g mask="url(#mask1_14_236)">
<g style="mix-blend-mode:multiply" opacity="0.7">
<path d="M135.151 116.894C137.091 115.116 137.573 100.753 137.328 95.4066C137.328 95.3632 137.328 95.3118 137.328 95.2644C136.636 93.4784 136.099 92.0282 135.977 91.5421C135.502 90.0028 135.458 88.3629 135.85 86.8004C136.344 84.5877 136.052 78.2733 136.273 76.8231C136.403 75.9657 136.139 74.0137 135.799 72.0379C134.392 71.9155 131.816 73.1839 131.816 73.1839C131.816 73.1839 129.785 70.2282 128.461 70.1255C127.137 70.0227 124.841 72.1012 124.841 72.1012C124.841 72.1012 123.526 67.6677 120.823 68.1221C118.12 68.5765 117.361 68.1221 116.295 68.1695C115.228 68.2169 114.362 65.6208 113.295 63.0722C112.228 60.5235 110.699 50.9927 109.794 49.017C109.794 49.017 108.376 45.0418 106.538 46.3656C104.701 47.6893 106.428 52.0161 107.289 54.6122C108.151 57.2083 108.613 62.1396 109.312 64.4907C110.103 67.1105 109.707 71.0027 110.431 73.8556C111.154 76.7085 113.011 77.6332 111.987 81.3633C110.964 85.0934 108.728 83.9041 106.234 81.711C103.741 79.518 102.508 74.4957 101.097 74.9936C100.609 75.1173 100.136 75.299 99.6906 75.5349C99.7223 76.9021 100.876 77.9058 102.306 80.4031C103.737 82.9004 110.936 91.7239 112.023 93.3124C112.828 94.3798 113.84 95.2736 114.998 95.9401C114.998 95.9401 119.147 99.5556 121.084 104.068C121.431 104.878 121.985 106.075 122.664 107.498C123.454 108.13 121.779 105.127 122.19 105.625C124.928 108.838 133.214 118.677 135.151 116.894Z" fill="#92E3A9"/>
</g>
</g>
<path d="M149.36 121.012C149.36 121.012 139.975 103.705 138.64 100.67C137.304 97.6353 136.297 92.854 135.969 91.5422C135.494 90.0028 135.451 88.3629 135.842 86.8005C136.336 84.5877 136.044 78.2733 136.265 76.8231C136.486 75.373 135.589 70.8367 135.08 68.296C134.57 65.7552 133.416 63.9494 131.859 63.7518C131.406 63.6976 130.947 63.7562 130.523 63.9223C130.098 64.0885 129.721 64.3571 129.425 64.7041C129.425 64.7041 128.777 59.2946 128.149 58.1724C127.52 57.0502 125.474 57.2122 124.379 57.4809C123.285 57.7496 122.759 61.2506 122.759 61.2506C122.759 61.2506 121.811 57.8879 121.783 56.3864C121.755 54.8848 119.93 53.5927 118.507 53.9484C117.085 54.304 116.318 54.956 115.931 58.0697C115.544 61.1834 116.275 66.0002 116.275 66.0002L115.536 66.3005C115.536 66.3005 112.873 56.9752 112.027 54.5134C111.181 52.0517 110.367 49.2343 109.798 47.4009C109.229 45.5674 108.384 42.6592 106.056 43.1057C103.729 43.5522 104.302 48.6377 104.302 48.6377C104.302 48.6377 107.941 64.2221 108.131 65.4509C108.321 66.6798 108.921 70.9474 108.803 72.3699C108.684 73.7924 108.688 77.5067 108.688 77.5067L105.223 73.3735C104.796 72.2553 104.257 71.1829 103.614 70.1729C102.429 68.2604 99.7934 66.4783 98.0824 67.0118C96.3714 67.5452 97.7228 69.3075 98.4301 70.2914C99.1374 71.2753 99.7104 74.0374 99.7104 75.4283C99.7104 76.8192 100.896 77.7991 102.326 80.3517C103.757 82.9044 110.936 91.7239 112.023 93.3124C112.828 94.3798 113.84 95.2736 114.998 95.9401C114.998 95.9401 119.147 99.5557 121.084 104.068C123.02 108.581 128.959 121.537 128.959 121.537" stroke="#2E353A" stroke-linecap="round" stroke-linejoin="round"/>
<path d="M104.824 44.2358C104.824 44.2358 105.254 46.9069 105.337 47.2428C105.523 47.9975 108.645 47.638 108.894 47.0571C109.115 46.5395 108.953 45.4173 108.953 45.4173" stroke="#2E353A" stroke-linecap="round" stroke-linejoin="round"/>
<path d="M99.4773 70.4139C99.7368 70.1501 99.8978 69.8051 99.933 69.4367C99.9683 69.0683 99.8757 68.699 99.6709 68.3908C98.9359 67.2963 98.525 67.0513 98.525 67.0513" stroke="#2E353A" stroke-linecap="round" stroke-linejoin="round"/>
<path d="M108.435 59.7135C108.435 59.7135 109.83 60.1797 111.142 58.4609" stroke="#2E353A" stroke-width="0.75" stroke-linecap="round" stroke-linejoin="round"/>
<path d="M108.601 58.5004C108.601 58.5004 110.462 57.1055 111.885 57.2201" stroke="#2E353A" stroke-width="0.75" stroke-linecap="round" stroke-linejoin="round"/>
<path d="M106.673 51.21C106.673 51.21 108.068 49.8191 109.186 50.1194" stroke="#2E353A" stroke-width="0.75" stroke-linecap="round" stroke-linejoin="round"/>
<path d="M107.985 50.8821C108.558 50.9785 109.145 50.9515 109.708 50.803" stroke="#2E353A" stroke-width="0.75" stroke-linecap="round" stroke-linejoin="round"/>
<path d="M122.755 61.2625L123.49 65.613" stroke="#2E353A" stroke-linecap="round" stroke-linejoin="round"/>
<path d="M129.421 64.7159L130.207 69.2838" stroke="#2E353A" stroke-linecap="round" stroke-linejoin="round"/>
<path d="M108.684 77.5344C108.684 77.5344 108.487 80.9524 108.814 82.2761" stroke="#2E353A" stroke-linecap="round" stroke-linejoin="round"/>
<path d="M123.494 67.9285C123.494 67.9285 124.304 70.0741 124.106 71.4847" stroke="#2E353A" stroke-width="0.75" stroke-linecap="round" stroke-linejoin="round"/>
<path d="M130.121 70.1452C130.121 70.1452 130.67 71.2516 130.342 73.2668" stroke="#2E353A" stroke-width="0.75" stroke-linecap="round" stroke-linejoin="round"/>
<path d="M36.2269 63.9415C36.2269 63.9415 39.5816 63.333 41.4072 61.1004C43.2328 58.8679 47.603 56.0189 49.0255 55.5131C50.4481 55.0074 52.6846 54.9007 53.4985 55.6119C54.3125 56.3232 54.7156 58.0499 53.4985 60.0849C52.2815 62.1199 47.3185 64.0324 46.2833 64.957C45.248 65.8817 44.355 66.4823 43.1221 69.2246C41.9221 71.8811 40.1946 74.266 38.0445 76.2344C36.1123 77.9612 32.56 80.9089 30.7305 82.0232" fill="white"/>
<mask id="mask2_14_236" style="mask-type:luminance" maskUnits="userSpaceOnUse" x="30" y="55" width="25" height="28">
<path d="M36.2269 63.9415C36.2269 63.9415 39.5816 63.333 41.4072 61.1004C43.2328 58.8679 47.603 56.0189 49.0255 55.5131C50.4481 55.0074 52.6846 54.9007 53.4985 55.6119C54.3125 56.3232 54.7156 58.0499 53.4985 60.0849C52.2815 62.1199 47.3185 64.0324 46.2833 64.957C45.248 65.8817 44.355 66.4823 43.1221 69.2246C41.9221 71.8811 40.1946 74.266 38.0445 76.2344C36.1123 77.9612 32.56 80.9089 30.7305 82.0232" fill="white"/>
</mask>
<g mask="url(#mask2_14_236)">
<g style="mix-blend-mode:multiply" opacity="0.7">
<path d="M46.2477 61.3889C45.8249 59.4962 43.0865 60.5472 43.0865 60.5472C41.2218 62.5709 38.9261 64.1495 36.3691 65.1665C32.0892 66.7849 27.9532 68.761 24.0051 71.0738C24.4556 70.169 24.9456 69.2562 25.475 68.3078C28.2055 63.4792 33.0341 56.9712 35.7487 56.1296C37.4241 55.6159 39.0956 56.6788 40.1388 57.5797L40.2573 38.0202H40.1901C38.5621 38.3245 37.3451 39.1385 37.1436 40.154C36.9421 41.1695 33.8916 47.5668 32.8761 48.7878C31.8605 50.0088 28.6085 54.4779 28.3043 56.1019C28.1205 57.2565 27.7066 58.3624 27.0872 59.3539C26.6921 59.9624 23.4282 64.9373 21.0929 69.4103C18.7576 73.8833 17.754 79.2375 17.7935 79.5417C17.8211 79.763 13.3007 96.1377 10.428 106.443C12.7989 101.78 16.4856 94.237 18.726 88.6616C19.6072 88.5747 21.3142 86.188 22.7288 84.2439C24.4082 81.9363 26.9252 81.3041 31.9672 77.5265C37.0092 73.7489 42.6716 68.4975 43.5133 66.3993C44.3549 64.3011 46.6665 63.2777 46.2477 61.3889Z" fill="#92E3A9"/>
</g>
</g>
<path d="M36.2269 63.9415C36.2269 63.9415 39.5816 63.333 41.4072 61.1004C43.2328 58.8679 47.603 56.0189 49.0255 55.5131C50.4481 55.0074 52.6846 54.9007 53.4985 55.6119C54.3125 56.3232 54.7156 58.0499 53.4985 60.0849C52.2815 62.1199 47.3185 64.0324 46.2833 64.957C45.248 65.8817 44.355 66.4823 43.1221 69.2246C41.9221 71.8811 40.1946 74.266 38.0445 76.2344C36.1123 77.9612 32.56 80.9089 30.7305 82.0232" stroke="#2E353A" stroke-linecap="round" stroke-linejoin="round"/>
<path d="M53.5974 59.2907C52.9888 60.2035 51.4636 60.3062 51.4636 60.3062C51.4636 60.3062 50.8551 58.9864 50.4481 58.1724C50.1311 57.6247 49.676 57.1697 49.1283 56.8527C49.1283 56.8527 49.638 55.5329 50.6535 55.5329" stroke="#2E353A" stroke-linecap="round" stroke-linejoin="round"/>
<path d="M13.8303 84.5481C17.5791 83.7361 21.419 83.4238 25.2499 83.6195C31.7341 83.9317 33.2752 87.6342 33.2752 87.6342L32.967 95.9677C32.967 95.9677 29.5727 93.4981 22.472 92.5735C15.3713 91.6488 11.6688 92.2653 11.6688 92.2653L13.8303 84.5481Z" fill="white" stroke="#2E353A" stroke-linecap="round" stroke-linejoin="round"/>
<path d="M33.3384 123.434L35.0099 96.6869C24.2067 90.2026 11.6688 92.2653 11.6688 92.2653L1 123.434H33.3384Z" fill="#2E353A" stroke="#2E353A" stroke-linecap="round" stroke-linejoin="round"/>
<path d="M117.654 102.887C117.654 102.887 118.709 98.6744 124.502 95.2486C130.294 91.8227 138.991 93.1425 138.991 93.1425L140.307 96.5644C140.307 96.5644 133.195 96.3036 127.927 99.2C122.66 102.096 120.025 105.522 120.025 105.522L117.654 102.887Z" fill="white" stroke="#2E353A" stroke-linecap="round" stroke-linejoin="round"/>
<path d="M156.872 123.434L141.24 95.4896C141.24 95.4896 135.313 93.9328 128.2 96.8292C121.088 99.7256 118.187 105.258 118.187 105.258L121.178 123.434H156.872Z" fill="#2E353A" stroke="#2E353A" stroke-linecap="round" stroke-linejoin="round"/>
<path d="M121.582 106.103C121.779 106.953 121.542 107.735 121.044 107.85C120.546 107.964 119.985 107.372 119.788 106.522C119.59 105.672 119.827 104.89 120.321 104.775C120.815 104.661 121.38 105.254 121.582 106.103Z" fill="white"/>
</svg>
